%TF.GenerationSoftware,KiCad,Pcbnew,8.0.3-8.0.3-0~ubuntu24.04.1*%
%TF.CreationDate,2024-07-11T14:27:14+08:00*%
%TF.ProjectId,CawBMS,43617742-4d53-42e6-9b69-6361645f7063,rev?*%
%TF.SameCoordinates,Original*%
%TF.FileFunction,Copper,L1,Top*%
%TF.FilePolarity,Positive*%
%FSLAX46Y46*%
G04 Gerber Fmt 4.6, Leading zero omitted, Abs format (unit mm)*
G04 Created by KiCad (PCBNEW 8.0.3-8.0.3-0~ubuntu24.04.1) date 2024-07-11 14:27:14*
%MOMM*%
%LPD*%
G01*
G04 APERTURE LIST*
G04 Aperture macros list*
%AMRoundRect*
0 Rectangle with rounded corners*
0 $1 Rounding radius*
0 $2 $3 $4 $5 $6 $7 $8 $9 X,Y pos of 4 corners*
0 Add a 4 corners polygon primitive as box body*
4,1,4,$2,$3,$4,$5,$6,$7,$8,$9,$2,$3,0*
0 Add four circle primitives for the rounded corners*
1,1,$1+$1,$2,$3*
1,1,$1+$1,$4,$5*
1,1,$1+$1,$6,$7*
1,1,$1+$1,$8,$9*
0 Add four rect primitives between the rounded corners*
20,1,$1+$1,$2,$3,$4,$5,0*
20,1,$1+$1,$4,$5,$6,$7,0*
20,1,$1+$1,$6,$7,$8,$9,0*
20,1,$1+$1,$8,$9,$2,$3,0*%
G04 Aperture macros list end*
%TA.AperFunction,ComponentPad*%
%ADD10C,0.700000*%
%TD*%
%TA.AperFunction,ComponentPad*%
%ADD11C,4.400000*%
%TD*%
%TA.AperFunction,SMDPad,CuDef*%
%ADD12R,0.749000X1.300000*%
%TD*%
%TA.AperFunction,SMDPad,CuDef*%
%ADD13R,4.560000X4.000000*%
%TD*%
%TA.AperFunction,SMDPad,CuDef*%
%ADD14RoundRect,0.150000X0.200000X-0.150000X0.200000X0.150000X-0.200000X0.150000X-0.200000X-0.150000X0*%
%TD*%
%TA.AperFunction,SMDPad,CuDef*%
%ADD15RoundRect,0.155000X-0.212500X-0.155000X0.212500X-0.155000X0.212500X0.155000X-0.212500X0.155000X0*%
%TD*%
%TA.AperFunction,SMDPad,CuDef*%
%ADD16RoundRect,0.160000X-0.197500X-0.160000X0.197500X-0.160000X0.197500X0.160000X-0.197500X0.160000X0*%
%TD*%
%TA.AperFunction,SMDPad,CuDef*%
%ADD17RoundRect,0.249999X-0.450001X-1.425001X0.450001X-1.425001X0.450001X1.425001X-0.450001X1.425001X0*%
%TD*%
%TA.AperFunction,SMDPad,CuDef*%
%ADD18R,0.500000X1.700000*%
%TD*%
%TA.AperFunction,SMDPad,CuDef*%
%ADD19R,1.200000X2.500000*%
%TD*%
%TA.AperFunction,SMDPad,CuDef*%
%ADD20RoundRect,0.155000X-0.155000X0.212500X-0.155000X-0.212500X0.155000X-0.212500X0.155000X0.212500X0*%
%TD*%
%TA.AperFunction,SMDPad,CuDef*%
%ADD21R,0.800000X1.700000*%
%TD*%
%TA.AperFunction,SMDPad,CuDef*%
%ADD22RoundRect,0.250000X-0.650000X1.500000X-0.650000X-1.500000X0.650000X-1.500000X0.650000X1.500000X0*%
%TD*%
%TA.AperFunction,SMDPad,CuDef*%
%ADD23RoundRect,0.237500X-0.237500X0.300000X-0.237500X-0.300000X0.237500X-0.300000X0.237500X0.300000X0*%
%TD*%
%TA.AperFunction,SMDPad,CuDef*%
%ADD24RoundRect,0.160000X0.160000X-0.197500X0.160000X0.197500X-0.160000X0.197500X-0.160000X-0.197500X0*%
%TD*%
%TA.AperFunction,SMDPad,CuDef*%
%ADD25RoundRect,0.250001X1.074999X-0.462499X1.074999X0.462499X-1.074999X0.462499X-1.074999X-0.462499X0*%
%TD*%
%TA.AperFunction,SMDPad,CuDef*%
%ADD26RoundRect,0.160000X-0.222500X-0.160000X0.222500X-0.160000X0.222500X0.160000X-0.222500X0.160000X0*%
%TD*%
%TA.AperFunction,SMDPad,CuDef*%
%ADD27RoundRect,0.250000X0.250000X0.250000X-0.250000X0.250000X-0.250000X-0.250000X0.250000X-0.250000X0*%
%TD*%
%TA.AperFunction,SMDPad,CuDef*%
%ADD28RoundRect,0.155000X0.212500X0.155000X-0.212500X0.155000X-0.212500X-0.155000X0.212500X-0.155000X0*%
%TD*%
%TA.AperFunction,SMDPad,CuDef*%
%ADD29RoundRect,0.237500X-0.300000X-0.237500X0.300000X-0.237500X0.300000X0.237500X-0.300000X0.237500X0*%
%TD*%
%TA.AperFunction,SMDPad,CuDef*%
%ADD30R,0.150000X0.250000*%
%TD*%
%TA.AperFunction,SMDPad,CuDef*%
%ADD31R,0.500000X0.250000*%
%TD*%
%TA.AperFunction,SMDPad,CuDef*%
%ADD32RoundRect,0.160000X0.197500X0.160000X-0.197500X0.160000X-0.197500X-0.160000X0.197500X-0.160000X0*%
%TD*%
%TA.AperFunction,SMDPad,CuDef*%
%ADD33RoundRect,0.237500X0.237500X-0.300000X0.237500X0.300000X-0.237500X0.300000X-0.237500X-0.300000X0*%
%TD*%
%TA.AperFunction,ComponentPad*%
%ADD34RoundRect,1.500000X-1.000000X-1.000000X1.000000X-1.000000X1.000000X1.000000X-1.000000X1.000000X0*%
%TD*%
%TA.AperFunction,SMDPad,CuDef*%
%ADD35RoundRect,0.250000X0.650000X-1.500000X0.650000X1.500000X-0.650000X1.500000X-0.650000X-1.500000X0*%
%TD*%
%TA.AperFunction,SMDPad,CuDef*%
%ADD36R,1.700000X0.500000*%
%TD*%
%TA.AperFunction,SMDPad,CuDef*%
%ADD37R,2.500000X1.200000*%
%TD*%
%TA.AperFunction,SMDPad,CuDef*%
%ADD38O,0.350000X0.840000*%
%TD*%
%TA.AperFunction,SMDPad,CuDef*%
%ADD39R,2.400000X1.650000*%
%TD*%
%TA.AperFunction,SMDPad,CuDef*%
%ADD40RoundRect,0.237500X-0.237500X0.287500X-0.237500X-0.287500X0.237500X-0.287500X0.237500X0.287500X0*%
%TD*%
%TA.AperFunction,SMDPad,CuDef*%
%ADD41RoundRect,0.155000X0.155000X-0.212500X0.155000X0.212500X-0.155000X0.212500X-0.155000X-0.212500X0*%
%TD*%
%TA.AperFunction,SMDPad,CuDef*%
%ADD42O,0.607000X0.364000*%
%TD*%
%TA.AperFunction,SMDPad,CuDef*%
%ADD43R,1.000000X1.600000*%
%TD*%
%TA.AperFunction,SMDPad,CuDef*%
%ADD44RoundRect,0.075000X-0.662500X-0.075000X0.662500X-0.075000X0.662500X0.075000X-0.662500X0.075000X0*%
%TD*%
%TA.AperFunction,SMDPad,CuDef*%
%ADD45RoundRect,0.075000X-0.075000X-0.662500X0.075000X-0.662500X0.075000X0.662500X-0.075000X0.662500X0*%
%TD*%
%TA.AperFunction,SMDPad,CuDef*%
%ADD46R,1.700000X0.650000*%
%TD*%
%TA.AperFunction,SMDPad,CuDef*%
%ADD47O,1.742000X0.364000*%
%TD*%
%TA.AperFunction,SMDPad,CuDef*%
%ADD48RoundRect,0.150000X-0.587500X-0.150000X0.587500X-0.150000X0.587500X0.150000X-0.587500X0.150000X0*%
%TD*%
%TA.AperFunction,SMDPad,CuDef*%
%ADD49RoundRect,0.237500X0.300000X0.237500X-0.300000X0.237500X-0.300000X-0.237500X0.300000X-0.237500X0*%
%TD*%
%TA.AperFunction,ViaPad*%
%ADD50C,0.609600*%
%TD*%
%TA.AperFunction,ViaPad*%
%ADD51C,1.016000*%
%TD*%
%TA.AperFunction,Conductor*%
%ADD52C,0.254000*%
%TD*%
%TA.AperFunction,Conductor*%
%ADD53C,0.508000*%
%TD*%
%TA.AperFunction,Conductor*%
%ADD54C,0.152400*%
%TD*%
%TA.AperFunction,Conductor*%
%ADD55C,0.127000*%
%TD*%
%TA.AperFunction,Conductor*%
%ADD56C,0.129286*%
%TD*%
G04 APERTURE END LIST*
D10*
%TO.P,H4,1,1*%
%TO.N,unconnected-(H4-Pad1)*%
X159350000Y-113500000D03*
X159833274Y-112333274D03*
X159833274Y-114666726D03*
X161000000Y-111850000D03*
D11*
X161000000Y-113500000D03*
D10*
X161000000Y-115150000D03*
X162166726Y-112333274D03*
X162166726Y-114666726D03*
X162650000Y-113500000D03*
%TD*%
D12*
%TO.P,Q6,1,S*%
%TO.N,Net-(C25-Pad1)*%
X133985000Y-123165000D03*
%TO.P,Q6,2,S*%
X132715000Y-123165000D03*
%TO.P,Q6,3,S*%
X131445000Y-123165000D03*
%TO.P,Q6,4,G*%
%TO.N,Net-(Q6-G)*%
X130175000Y-123165000D03*
%TO.P,Q6,5,D*%
%TO.N,Net-(Q6-D-Pad5)*%
X130175000Y-128803000D03*
%TO.P,Q6,6,D*%
X131445000Y-128803000D03*
%TO.P,Q6,7,D*%
X132715000Y-128803000D03*
%TO.P,Q6,8,D*%
X133985000Y-128778000D03*
D13*
X132080000Y-126721000D03*
%TD*%
D14*
%TO.P,D12,1,K*%
%TO.N,Net-(D11-K)*%
X149663176Y-118986000D03*
%TO.P,D12,2,A*%
%TO.N,PACK-*%
X149663176Y-120386000D03*
%TD*%
D15*
%TO.P,C3,1*%
%TO.N,+3.3V*%
X151070500Y-101092000D03*
%TO.P,C3,2*%
%TO.N,GND*%
X152205500Y-101092000D03*
%TD*%
D16*
%TO.P,R21,1*%
%TO.N,Net-(D5-A)*%
X124087000Y-102538444D03*
%TO.P,R21,2*%
%TO.N,/BQ76920/VC3*%
X125282000Y-102538444D03*
%TD*%
D17*
%TO.P,R34,1*%
%TO.N,-BATT*%
X121662000Y-127762000D03*
%TO.P,R34,2*%
%TO.N,Net-(C25-Pad1)*%
X127762000Y-127762000D03*
%TD*%
D18*
%TO.P,CN1,1,1*%
%TO.N,GND*%
X133834000Y-97077000D03*
%TO.P,CN1,2,2*%
X132834000Y-97077000D03*
%TO.P,CN1,3,3*%
%TO.N,+3.3V*%
X131834000Y-97077000D03*
%TO.P,CN1,4,4*%
%TO.N,+5V*%
X130834000Y-97077000D03*
D19*
%TO.P,CN1,5,5*%
%TO.N,unconnected-(CN1-Pad5)*%
X134934000Y-93677000D03*
%TO.P,CN1,6,6*%
%TO.N,unconnected-(CN1-Pad6)*%
X129734000Y-93677000D03*
%TD*%
D10*
%TO.P,H2,1,1*%
%TO.N,unconnected-(H2-Pad1)*%
X159350000Y-94500000D03*
X159833274Y-93333274D03*
X159833274Y-95666726D03*
X161000000Y-92850000D03*
D11*
X161000000Y-94500000D03*
D10*
X161000000Y-96150000D03*
X162166726Y-93333274D03*
X162166726Y-95666726D03*
X162650000Y-94500000D03*
%TD*%
D16*
%TO.P,R27,1*%
%TO.N,Net-(D8-A)*%
X124087000Y-111125000D03*
%TO.P,R27,2*%
%TO.N,/BQ76920/VC0*%
X125282000Y-111125000D03*
%TD*%
D20*
%TO.P,C10,1*%
%TO.N,/BQ76920/VC4*%
X126873000Y-99782000D03*
%TO.P,C10,2*%
%TO.N,/BQ76920/VC3*%
X126873000Y-100917000D03*
%TD*%
D12*
%TO.P,Q8,1,S*%
%TO.N,PACK-*%
X146007666Y-123165000D03*
%TO.P,Q8,2,S*%
X144737666Y-123165000D03*
%TO.P,Q8,3,S*%
X143467666Y-123165000D03*
%TO.P,Q8,4,G*%
%TO.N,Net-(Q8-G)*%
X142197666Y-123165000D03*
%TO.P,Q8,5,D*%
%TO.N,Net-(Q6-D-Pad5)*%
X142197666Y-128803000D03*
%TO.P,Q8,6,D*%
X143467666Y-128803000D03*
%TO.P,Q8,7,D*%
X144737666Y-128803000D03*
%TO.P,Q8,8,D*%
X146007666Y-128778000D03*
D13*
X144102666Y-126721000D03*
%TD*%
D16*
%TO.P,R24,1*%
%TO.N,Net-(D7-K)*%
X124087000Y-106813777D03*
%TO.P,R24,2*%
%TO.N,/BQ76920/VC1*%
X125282000Y-106813777D03*
%TD*%
D21*
%TO.P,SW1,1,1*%
%TO.N,GND*%
X123683500Y-93726000D03*
%TO.P,SW1,2,2*%
%TO.N,/RESET*%
X120283500Y-93726000D03*
%TD*%
D10*
%TO.P,H1,1,1*%
%TO.N,unconnected-(H1-Pad1)*%
X110850000Y-94500000D03*
X111333274Y-93333274D03*
X111333274Y-95666726D03*
X112500000Y-92850000D03*
D11*
X112500000Y-94500000D03*
D10*
X112500000Y-96150000D03*
X113666726Y-93333274D03*
X113666726Y-95666726D03*
X114150000Y-94500000D03*
%TD*%
D22*
%TO.P,D9,1,A1*%
%TO.N,-BATT*%
X118110000Y-120436000D03*
%TO.P,D9,2,A2*%
%TO.N,PACK+*%
X118110000Y-125436000D03*
%TD*%
D23*
%TO.P,C26,1*%
%TO.N,Net-(C25-Pad2)*%
X139888088Y-119178500D03*
%TO.P,C26,2*%
%TO.N,PACK-*%
X139888088Y-120903500D03*
%TD*%
D16*
%TO.P,R37,1*%
%TO.N,-BATT*%
X115902500Y-115443000D03*
%TO.P,R37,2*%
%TO.N,GND*%
X117097500Y-115443000D03*
%TD*%
D24*
%TO.P,R40,1*%
%TO.N,PACK-*%
X151229448Y-120088500D03*
%TO.P,R40,2*%
%TO.N,Net-(D11-K)*%
X151229448Y-118893500D03*
%TD*%
D14*
%TO.P,D4,1,K*%
%TO.N,Net-(D4-K)*%
X122398500Y-96963000D03*
%TO.P,D4,2,A*%
%TO.N,Net-(D4-A)*%
X122398500Y-98363000D03*
%TD*%
D16*
%TO.P,R16,1*%
%TO.N,Net-(D7-A)*%
X117766500Y-108839000D03*
%TO.P,R16,2*%
%TO.N,Net-(Q5-D)*%
X118961500Y-108839000D03*
%TD*%
D20*
%TO.P,C23,1*%
%TO.N,/BQ76920/SRN*%
X126492000Y-114494500D03*
%TO.P,C23,2*%
%TO.N,GND*%
X126492000Y-115629500D03*
%TD*%
D25*
%TO.P,L2,1*%
%TO.N,+3.3V*%
X146939000Y-115660500D03*
%TO.P,L2,2*%
%TO.N,Net-(U3-L)*%
X146939000Y-112685500D03*
%TD*%
D14*
%TO.P,D8,1,K*%
%TO.N,Net-(D8-K)*%
X122398500Y-108139000D03*
%TO.P,D8,2,A*%
%TO.N,Net-(D8-A)*%
X122398500Y-109539000D03*
%TD*%
D26*
%TO.P,L1,1*%
%TO.N,+3.3V*%
X138881500Y-108966000D03*
%TO.P,L1,2*%
%TO.N,+3.3VA*%
X140026500Y-108966000D03*
%TD*%
D27*
%TO.P,D11,1,K*%
%TO.N,Net-(D11-K)*%
X144125000Y-119380000D03*
%TO.P,D11,2,A*%
%TO.N,Net-(D11-A)*%
X141625000Y-119380000D03*
%TD*%
D28*
%TO.P,C18,1*%
%TO.N,GND*%
X140013500Y-112268000D03*
%TO.P,C18,2*%
%TO.N,Net-(U4-CAP1)*%
X138878500Y-112268000D03*
%TD*%
D29*
%TO.P,C28,1*%
%TO.N,Net-(C27-Pad2)*%
X154712500Y-117348000D03*
%TO.P,C28,2*%
%TO.N,PACK-*%
X156437500Y-117348000D03*
%TD*%
D16*
%TO.P,R12,1*%
%TO.N,/BQ76920/BAT*%
X117766500Y-97663000D03*
%TO.P,R12,2*%
%TO.N,Net-(Q1-D)*%
X118961500Y-97663000D03*
%TD*%
%TO.P,R25,1*%
%TO.N,Net-(D7-A)*%
X124087000Y-108238888D03*
%TO.P,R25,2*%
%TO.N,/BQ76920/VC1*%
X125282000Y-108238888D03*
%TD*%
D30*
%TO.P,Q1,1,G*%
%TO.N,Net-(D4-K)*%
X120445500Y-97988000D03*
%TO.P,Q1,2,S*%
%TO.N,Net-(D4-A)*%
X120795500Y-97988000D03*
D31*
%TO.P,Q1,3,D*%
%TO.N,Net-(Q1-D)*%
X120620500Y-97338000D03*
%TD*%
D16*
%TO.P,R38,1*%
%TO.N,GND*%
X135965000Y-101727000D03*
%TO.P,R38,2*%
%TO.N,/ALERT*%
X137160000Y-101727000D03*
%TD*%
D20*
%TO.P,C12,1*%
%TO.N,/BQ76920/VC2*%
X126873000Y-105585000D03*
%TO.P,C12,2*%
%TO.N,/BQ76920/VC1*%
X126873000Y-106720000D03*
%TD*%
D18*
%TO.P,CN2,1,1*%
%TO.N,/I2C2_SDA*%
X140692000Y-97077000D03*
%TO.P,CN2,2,2*%
%TO.N,/I2C2_SCL*%
X139692000Y-97077000D03*
%TO.P,CN2,3,3*%
%TO.N,GND*%
X138692000Y-97077000D03*
%TO.P,CN2,4,4*%
%TO.N,+3.3V*%
X137692000Y-97077000D03*
D19*
%TO.P,CN2,5,5*%
%TO.N,unconnected-(CN2-Pad5)*%
X141792000Y-93677000D03*
%TO.P,CN2,6,6*%
%TO.N,unconnected-(CN2-Pad6)*%
X136592000Y-93677000D03*
%TD*%
D28*
%TO.P,C6,1*%
%TO.N,+3.3VA*%
X140021500Y-107696000D03*
%TO.P,C6,2*%
%TO.N,GND*%
X138886500Y-107696000D03*
%TD*%
D32*
%TO.P,R28,1*%
%TO.N,GND*%
X137160000Y-106426000D03*
%TO.P,R28,2*%
%TO.N,Net-(U4-TS1)*%
X135965000Y-106426000D03*
%TD*%
%TO.P,R5,1*%
%TO.N,+3.3V*%
X143980500Y-112014000D03*
%TO.P,R5,2*%
%TO.N,/I2C1_SDA*%
X142785500Y-112014000D03*
%TD*%
D33*
%TO.P,C27,1*%
%TO.N,PACK+*%
X152825720Y-120903500D03*
%TO.P,C27,2*%
%TO.N,Net-(C27-Pad2)*%
X152825720Y-119178500D03*
%TD*%
D12*
%TO.P,Q9,1,S*%
%TO.N,PACK-*%
X152019000Y-123165000D03*
%TO.P,Q9,2,S*%
X150749000Y-123165000D03*
%TO.P,Q9,3,S*%
X149479000Y-123165000D03*
%TO.P,Q9,4,G*%
%TO.N,Net-(Q9-G)*%
X148209000Y-123165000D03*
%TO.P,Q9,5,D*%
%TO.N,Net-(Q6-D-Pad5)*%
X148209000Y-128803000D03*
%TO.P,Q9,6,D*%
X149479000Y-128803000D03*
%TO.P,Q9,7,D*%
X150749000Y-128803000D03*
%TO.P,Q9,8,D*%
X152019000Y-128778000D03*
D13*
X150114000Y-126721000D03*
%TD*%
D30*
%TO.P,Q2,1,G*%
%TO.N,Net-(D5-K)*%
X120445500Y-100782000D03*
%TO.P,Q2,2,S*%
%TO.N,Net-(D5-A)*%
X120795500Y-100782000D03*
D31*
%TO.P,Q2,3,D*%
%TO.N,Net-(Q2-D)*%
X120620500Y-100132000D03*
%TD*%
D15*
%TO.P,C5,1*%
%TO.N,+5V*%
X154372500Y-102489000D03*
%TO.P,C5,2*%
%TO.N,GND*%
X155507500Y-102489000D03*
%TD*%
D21*
%TO.P,SW2,1,1*%
%TO.N,/KEY_A*%
X124919000Y-93726000D03*
%TO.P,SW2,2,2*%
%TO.N,GND*%
X128319000Y-93726000D03*
%TD*%
D16*
%TO.P,R20,1*%
%TO.N,Net-(D5-K)*%
X124087000Y-101113333D03*
%TO.P,R20,2*%
%TO.N,/BQ76920/VC3*%
X125282000Y-101113333D03*
%TD*%
D34*
%TO.P,H7,1,1*%
%TO.N,PACK+*%
X160528000Y-126627000D03*
%TD*%
D35*
%TO.P,D10,1,K*%
%TO.N,PACK+*%
X155702000Y-125391000D03*
%TO.P,D10,2,A*%
%TO.N,PACK-*%
X155702000Y-120391000D03*
%TD*%
D18*
%TO.P,CN3,1,1*%
%TO.N,/SPI1_NSS*%
X156456000Y-96950000D03*
%TO.P,CN3,2,2*%
%TO.N,/SPI1_SCK*%
X155456000Y-96950000D03*
%TO.P,CN3,3,3*%
%TO.N,/SPI1_MISO*%
X154456000Y-96950000D03*
%TO.P,CN3,4,4*%
%TO.N,/SPI1_MOSI*%
X153456000Y-96950000D03*
%TO.P,CN3,5,5*%
%TO.N,GND*%
X152456000Y-96950000D03*
%TO.P,CN3,6,6*%
%TO.N,+3.3V*%
X151456000Y-96950000D03*
D19*
%TO.P,CN3,7,7*%
%TO.N,unconnected-(CN3-Pad7)*%
X150356000Y-93550000D03*
%TO.P,CN3,8,8*%
%TO.N,unconnected-(CN3-Pad8)*%
X157556000Y-93550000D03*
%TD*%
D30*
%TO.P,Q5,1,G*%
%TO.N,Net-(D8-K)*%
X120445500Y-109164000D03*
%TO.P,Q5,2,S*%
%TO.N,Net-(D8-A)*%
X120795500Y-109164000D03*
D31*
%TO.P,Q5,3,D*%
%TO.N,Net-(Q5-D)*%
X120620500Y-108514000D03*
%TD*%
D20*
%TO.P,C11,1*%
%TO.N,/BQ76920/VC3*%
X126873000Y-102683500D03*
%TO.P,C11,2*%
%TO.N,/BQ76920/VC2*%
X126873000Y-103818500D03*
%TD*%
D14*
%TO.P,D7,1,K*%
%TO.N,Net-(D7-K)*%
X122398500Y-105333750D03*
%TO.P,D7,2,A*%
%TO.N,Net-(D7-A)*%
X122398500Y-106733750D03*
%TD*%
D30*
%TO.P,Q3,1,G*%
%TO.N,Net-(D6-K)*%
X120445500Y-103576000D03*
%TO.P,Q3,2,S*%
%TO.N,Net-(D6-A)*%
X120795500Y-103576000D03*
D31*
%TO.P,Q3,3,D*%
%TO.N,Net-(Q3-D)*%
X120620500Y-102926000D03*
%TD*%
D32*
%TO.P,R39,1*%
%TO.N,Net-(D11-K)*%
X144107500Y-117094000D03*
%TO.P,R39,2*%
%TO.N,Net-(D11-A)*%
X142912500Y-117094000D03*
%TD*%
D36*
%TO.P,U5,1,1*%
%TO.N,/CAN_N*%
X158701000Y-109000000D03*
%TO.P,U5,2,2*%
%TO.N,/CAN_P*%
X158701000Y-108000000D03*
D37*
%TO.P,U5,3,3*%
%TO.N,unconnected-(U5-Pad3)*%
X162101000Y-106900000D03*
%TO.P,U5,4,4*%
%TO.N,unconnected-(U5-Pad4)*%
X162101000Y-110100000D03*
%TD*%
D38*
%TO.P,U2,1,TXD*%
%TO.N,/CAN_TX*%
X155859000Y-103632000D03*
%TO.P,U2,2,GND*%
%TO.N,GND*%
X155209000Y-103632000D03*
%TO.P,U2,3,VCC*%
%TO.N,+5V*%
X154559000Y-103632000D03*
%TO.P,U2,4,RXD*%
%TO.N,/CAN_RX*%
X153909000Y-103632000D03*
%TO.P,U2,5,NC/VIO*%
%TO.N,+3.3V*%
X153909000Y-106622000D03*
%TO.P,U2,6,CANL*%
%TO.N,/CAN_N*%
X154559000Y-106622000D03*
%TO.P,U2,7,CANH*%
%TO.N,/CAN_P*%
X155209000Y-106622000D03*
%TO.P,U2,8,STB*%
%TO.N,/CAN_STB*%
X155859000Y-106622000D03*
D39*
%TO.P,U2,9,EP*%
%TO.N,GND*%
X154884000Y-105127000D03*
%TD*%
D26*
%TO.P,D2,1,K*%
%TO.N,Net-(D2-K)*%
X131761500Y-105533800D03*
%TO.P,D2,2,A*%
%TO.N,+3.3V*%
X132906500Y-105533800D03*
%TD*%
D32*
%TO.P,R29,1*%
%TO.N,Net-(R29-Pad1)*%
X137160000Y-105156000D03*
%TO.P,R29,2*%
%TO.N,Net-(U4-TS1)*%
X135965000Y-105156000D03*
%TD*%
D14*
%TO.P,D5,1,K*%
%TO.N,Net-(D5-K)*%
X122398500Y-99723250D03*
%TO.P,D5,2,A*%
%TO.N,Net-(D5-A)*%
X122398500Y-101123250D03*
%TD*%
D24*
%TO.P,R35,1*%
%TO.N,Net-(C25-Pad1)*%
X125349000Y-116802500D03*
%TO.P,R35,2*%
%TO.N,/BQ76920/SRN*%
X125349000Y-115607500D03*
%TD*%
D28*
%TO.P,C2,1*%
%TO.N,+3.3V*%
X149411500Y-110744000D03*
%TO.P,C2,2*%
%TO.N,GND*%
X148276500Y-110744000D03*
%TD*%
D30*
%TO.P,Q4,1,G*%
%TO.N,Net-(D7-K)*%
X120445500Y-106370000D03*
%TO.P,Q4,2,S*%
%TO.N,Net-(D7-A)*%
X120795500Y-106370000D03*
D31*
%TO.P,Q4,3,D*%
%TO.N,Net-(Q4-D)*%
X120620500Y-105720000D03*
%TD*%
D24*
%TO.P,R6,1*%
%TO.N,/CAN_N*%
X156920000Y-109097500D03*
%TO.P,R6,2*%
%TO.N,/CAN_P*%
X156920000Y-107902500D03*
%TD*%
D16*
%TO.P,R19,1*%
%TO.N,Net-(D4-A)*%
X124087000Y-99688222D03*
%TO.P,R19,2*%
%TO.N,/BQ76920/VC4*%
X125282000Y-99688222D03*
%TD*%
D40*
%TO.P,L3,1*%
%TO.N,/BQ76920/DSG*%
X136175544Y-119166000D03*
%TO.P,L3,2*%
%TO.N,Net-(Q7-G)*%
X136175544Y-120916000D03*
%TD*%
D33*
%TO.P,C25,1*%
%TO.N,Net-(C25-Pad1)*%
X138031816Y-120903500D03*
%TO.P,C25,2*%
%TO.N,Net-(C25-Pad2)*%
X138031816Y-119178500D03*
%TD*%
D40*
%TO.P,L4,1*%
%TO.N,/BQ76920/DSG*%
X134319272Y-119166000D03*
%TO.P,L4,2*%
%TO.N,Net-(Q6-G)*%
X134319272Y-120916000D03*
%TD*%
D28*
%TO.P,C1,1*%
%TO.N,+3.3V*%
X142688500Y-100465000D03*
%TO.P,C1,2*%
%TO.N,GND*%
X141553500Y-100465000D03*
%TD*%
D16*
%TO.P,R22,1*%
%TO.N,Net-(D6-K)*%
X124087000Y-103963555D03*
%TO.P,R22,2*%
%TO.N,/BQ76920/VC2*%
X125282000Y-103963555D03*
%TD*%
D41*
%TO.P,C7,1*%
%TO.N,+3.3V*%
X152527000Y-106739500D03*
%TO.P,C7,2*%
%TO.N,GND*%
X152527000Y-105604500D03*
%TD*%
D20*
%TO.P,C9,1*%
%TO.N,/BQ76920/VC5*%
X126873000Y-96880500D03*
%TO.P,C9,2*%
%TO.N,/BQ76920/VC4*%
X126873000Y-98015500D03*
%TD*%
D36*
%TO.P,CN5,1,1*%
%TO.N,/SWDIO*%
X158574000Y-103489000D03*
%TO.P,CN5,2,2*%
%TO.N,/SWCLK*%
X158574000Y-102489000D03*
%TO.P,CN5,3,3*%
%TO.N,GND*%
X158574000Y-101489000D03*
%TO.P,CN5,4,4*%
%TO.N,+3.3V*%
X158574000Y-100489000D03*
D37*
%TO.P,CN5,5,5*%
%TO.N,unconnected-(CN5-Pad5)*%
X161974000Y-104589000D03*
%TO.P,CN5,6,6*%
%TO.N,unconnected-(CN5-Pad6)*%
X161974000Y-99389000D03*
%TD*%
D28*
%TO.P,C4,1*%
%TO.N,+3.3V*%
X142688500Y-99322000D03*
%TO.P,C4,2*%
%TO.N,GND*%
X141553500Y-99322000D03*
%TD*%
D15*
%TO.P,C22,1*%
%TO.N,/BQ76920/SRP*%
X124154500Y-114435000D03*
%TO.P,C22,2*%
%TO.N,/BQ76920/SRN*%
X125289500Y-114435000D03*
%TD*%
D24*
%TO.P,R31,1*%
%TO.N,-BATT*%
X124079000Y-116802500D03*
%TO.P,R31,2*%
%TO.N,/BQ76920/SRP*%
X124079000Y-115607500D03*
%TD*%
D16*
%TO.P,R15,1*%
%TO.N,Net-(D6-A)*%
X117766500Y-106045000D03*
%TO.P,R15,2*%
%TO.N,Net-(Q4-D)*%
X118961500Y-106045000D03*
%TD*%
D17*
%TO.P,R33,1*%
%TO.N,-BATT*%
X121662000Y-123698000D03*
%TO.P,R33,2*%
%TO.N,Net-(C25-Pad1)*%
X127762000Y-123698000D03*
%TD*%
D26*
%TO.P,D3,1,K*%
%TO.N,Net-(D3-K)*%
X131761500Y-108077000D03*
%TO.P,D3,2,A*%
%TO.N,+3.3V*%
X132906500Y-108077000D03*
%TD*%
D16*
%TO.P,R9,1*%
%TO.N,Net-(D2-K)*%
X131736500Y-104262200D03*
%TO.P,R9,2*%
%TO.N,/LED_B*%
X132931500Y-104262200D03*
%TD*%
D41*
%TO.P,C21,1*%
%TO.N,GND*%
X122936000Y-115629500D03*
%TO.P,C21,2*%
%TO.N,/BQ76920/SRP*%
X122936000Y-114494500D03*
%TD*%
D42*
%TO.P,U3,1,GND*%
%TO.N,GND*%
X151523000Y-114442000D03*
%TO.P,U3,2,VOUT*%
%TO.N,+5V*%
X151523000Y-113792000D03*
%TO.P,U3,3,FB*%
X151523000Y-113142000D03*
%TO.P,U3,4,EN*%
%TO.N,+3.3V*%
X149467000Y-113142000D03*
%TO.P,U3,5,L*%
%TO.N,Net-(U3-L)*%
X149467000Y-113792000D03*
%TO.P,U3,6,VIN*%
%TO.N,+3.3V*%
X149467000Y-114442000D03*
D43*
%TO.P,U3,7,PP*%
%TO.N,GND*%
X150495000Y-113792000D03*
%TD*%
D34*
%TO.P,H8,1,1*%
%TO.N,PACK-*%
X160528000Y-119181000D03*
%TD*%
D16*
%TO.P,R2,1*%
%TO.N,GND*%
X141896500Y-98179000D03*
%TO.P,R2,2*%
%TO.N,Net-(U1-BOOT0)*%
X143091500Y-98179000D03*
%TD*%
D44*
%TO.P,U1,1,VBAT*%
%TO.N,+3.3V*%
X142403500Y-102160000D03*
%TO.P,U1,2,PC13*%
%TO.N,/ALERT*%
X142403500Y-102660000D03*
%TO.P,U1,3,PC14*%
%TO.N,/LED_A*%
X142403500Y-103160000D03*
%TO.P,U1,4,PC15*%
%TO.N,/LED_B*%
X142403500Y-103660000D03*
%TO.P,U1,5,PD0*%
%TO.N,/HSE_IN*%
X142403500Y-104160000D03*
%TO.P,U1,6,PD1*%
%TO.N,/HSE_OUT*%
X142403500Y-104660000D03*
%TO.P,U1,7,NRST*%
%TO.N,/RESET*%
X142403500Y-105160000D03*
%TO.P,U1,8,VSSA*%
%TO.N,Net-(U1-VSSA)*%
X142403500Y-105660000D03*
%TO.P,U1,9,VDDA*%
%TO.N,+3.3VA*%
X142403500Y-106160000D03*
%TO.P,U1,10,PA0*%
%TO.N,unconnected-(U1-PA0-Pad10)*%
X142403500Y-106660000D03*
%TO.P,U1,11,PA1*%
%TO.N,unconnected-(U1-PA1-Pad11)*%
X142403500Y-107160000D03*
%TO.P,U1,12,PA2*%
%TO.N,unconnected-(U1-PA2-Pad12)*%
X142403500Y-107660000D03*
D45*
%TO.P,U1,13,PA3*%
%TO.N,unconnected-(U1-PA3-Pad13)*%
X143816000Y-109072500D03*
%TO.P,U1,14,PA4*%
%TO.N,unconnected-(U1-PA4-Pad14)*%
X144316000Y-109072500D03*
%TO.P,U1,15,PA5*%
%TO.N,unconnected-(U1-PA5-Pad15)*%
X144816000Y-109072500D03*
%TO.P,U1,16,PA6*%
%TO.N,unconnected-(U1-PA6-Pad16)*%
X145316000Y-109072500D03*
%TO.P,U1,17,PA7*%
%TO.N,unconnected-(U1-PA7-Pad17)*%
X145816000Y-109072500D03*
%TO.P,U1,18,PB0*%
%TO.N,unconnected-(U1-PB0-Pad18)*%
X146316000Y-109072500D03*
%TO.P,U1,19,PB1*%
%TO.N,unconnected-(U1-PB1-Pad19)*%
X146816000Y-109072500D03*
%TO.P,U1,20,PB2*%
%TO.N,Net-(U1-PB2)*%
X147316000Y-109072500D03*
%TO.P,U1,21,PB10*%
%TO.N,/I2C2_SCL*%
X147816000Y-109072500D03*
%TO.P,U1,22,PB11*%
%TO.N,/I2C2_SDA*%
X148316000Y-109072500D03*
%TO.P,U1,23,VSS*%
%TO.N,GND*%
X148816000Y-109072500D03*
%TO.P,U1,24,VDD*%
%TO.N,+3.3V*%
X149316000Y-109072500D03*
D44*
%TO.P,U1,25,PB12*%
%TO.N,unconnected-(U1-PB12-Pad25)*%
X150728500Y-107660000D03*
%TO.P,U1,26,PB13*%
%TO.N,unconnected-(U1-PB13-Pad26)*%
X150728500Y-107160000D03*
%TO.P,U1,27,PB14*%
%TO.N,unconnected-(U1-PB14-Pad27)*%
X150728500Y-106660000D03*
%TO.P,U1,28,PB15*%
%TO.N,unconnected-(U1-PB15-Pad28)*%
X150728500Y-106160000D03*
%TO.P,U1,29,PA8*%
%TO.N,unconnected-(U1-PA8-Pad29)*%
X150728500Y-105660000D03*
%TO.P,U1,30,PA9*%
%TO.N,/KEY_A*%
X150728500Y-105160000D03*
%TO.P,U1,31,PA10*%
%TO.N,/CAN_STB*%
X150728500Y-104660000D03*
%TO.P,U1,32,PA11*%
%TO.N,/CAN_RX*%
X150728500Y-104160000D03*
%TO.P,U1,33,PA12*%
%TO.N,/CAN_TX*%
X150728500Y-103660000D03*
%TO.P,U1,34,PA13*%
%TO.N,/SWDIO*%
X150728500Y-103160000D03*
%TO.P,U1,35,VSS*%
%TO.N,GND*%
X150728500Y-102660000D03*
%TO.P,U1,36,VDD*%
%TO.N,+3.3V*%
X150728500Y-102160000D03*
D45*
%TO.P,U1,37,PA14*%
%TO.N,/SWCLK*%
X149316000Y-100747500D03*
%TO.P,U1,38,PA15*%
%TO.N,/SPI1_NSS*%
X148816000Y-100747500D03*
%TO.P,U1,39,PB3*%
%TO.N,/SPI1_SCK*%
X148316000Y-100747500D03*
%TO.P,U1,40,PB4*%
%TO.N,/SPI1_MISO*%
X147816000Y-100747500D03*
%TO.P,U1,41,PB5*%
%TO.N,/SPI1_MOSI*%
X147316000Y-100747500D03*
%TO.P,U1,42,PB6*%
%TO.N,/USART1_TX*%
X146816000Y-100747500D03*
%TO.P,U1,43,PB7*%
%TO.N,/USART1_RX*%
X146316000Y-100747500D03*
%TO.P,U1,44,BOOT0*%
%TO.N,Net-(U1-BOOT0)*%
X145816000Y-100747500D03*
%TO.P,U1,45,PB8*%
%TO.N,/I2C1_SCL*%
X145316000Y-100747500D03*
%TO.P,U1,46,PB9*%
%TO.N,/I2C1_SDA*%
X144816000Y-100747500D03*
%TO.P,U1,47,VSS*%
%TO.N,GND*%
X144316000Y-100747500D03*
%TO.P,U1,48,VDD*%
%TO.N,+3.3V*%
X143816000Y-100747500D03*
%TD*%
D34*
%TO.P,H6,1,1*%
%TO.N,-BATT*%
X113030000Y-119173000D03*
%TD*%
D46*
%TO.P,X1,1,OSC1*%
%TO.N,/HSE_IN*%
X139454000Y-101424000D03*
D36*
%TO.P,X1,2,GND*%
%TO.N,GND*%
X139454000Y-102624000D03*
D46*
%TO.P,X1,3,OSC2*%
%TO.N,/HSE_OUT*%
X139454000Y-103824000D03*
%TD*%
D26*
%TO.P,D1,1,K*%
%TO.N,Net-(D1-K)*%
X131761500Y-102990600D03*
%TO.P,D1,2,A*%
%TO.N,+3.3V*%
X132906500Y-102990600D03*
%TD*%
D16*
%TO.P,R30,1*%
%TO.N,/BQ76920/BAT*%
X135927500Y-109220000D03*
%TO.P,R30,2*%
%TO.N,Net-(U4-BAT)*%
X137122500Y-109220000D03*
%TD*%
%TO.P,R26,1*%
%TO.N,Net-(D8-K)*%
X124087000Y-109664000D03*
%TO.P,R26,2*%
%TO.N,/BQ76920/VC0*%
X125282000Y-109664000D03*
%TD*%
D47*
%TO.P,U4,1,DSG*%
%TO.N,/BQ76920/DSG*%
X136737000Y-116090000D03*
%TO.P,U4,2,CHG*%
%TO.N,/BQ76920/CHG*%
X136737000Y-115440000D03*
%TO.P,U4,3,VSS*%
%TO.N,GND*%
X136737000Y-114790000D03*
%TO.P,U4,4,SDA*%
%TO.N,/I2C1_SDA*%
X136737000Y-114140000D03*
%TO.P,U4,5,SCL*%
%TO.N,/I2C1_SCL*%
X136737000Y-113490000D03*
%TO.P,U4,6,TS1*%
%TO.N,Net-(U4-TS1)*%
X136737000Y-112840000D03*
%TO.P,U4,7,CAP1*%
%TO.N,Net-(U4-CAP1)*%
X136737000Y-112190000D03*
%TO.P,U4,8,REGOUT*%
%TO.N,+3.3V*%
X136737000Y-111540000D03*
%TO.P,U4,9,REGSRC*%
%TO.N,/BQ76920/BAT*%
X136737000Y-110890000D03*
%TO.P,U4,10,BAT*%
%TO.N,Net-(U4-BAT)*%
X136737000Y-110240000D03*
%TO.P,U4,11,NC*%
%TO.N,unconnected-(U4-NC-Pad11)*%
X130995000Y-110240000D03*
%TO.P,U4,12,VC5*%
%TO.N,/BQ76920/VC5*%
X130995000Y-110890000D03*
%TO.P,U4,13,VC4*%
%TO.N,/BQ76920/VC4*%
X130995000Y-111540000D03*
%TO.P,U4,14,VC3*%
%TO.N,/BQ76920/VC3*%
X130995000Y-112190000D03*
%TO.P,U4,15,VC2*%
%TO.N,/BQ76920/VC2*%
X130995000Y-112840000D03*
%TO.P,U4,16,VC1*%
%TO.N,/BQ76920/VC1*%
X130995000Y-113490000D03*
%TO.P,U4,17,VC0*%
%TO.N,/BQ76920/VC0*%
X130995000Y-114140000D03*
%TO.P,U4,18,SRP*%
%TO.N,/BQ76920/SRP*%
X130995000Y-114790000D03*
%TO.P,U4,19,SRN*%
%TO.N,/BQ76920/SRN*%
X130995000Y-115440000D03*
%TO.P,U4,20,ALERT*%
%TO.N,/ALERT*%
X130995000Y-116090000D03*
%TD*%
D34*
%TO.P,H5,1,1*%
%TO.N,PACK+*%
X113030000Y-126492000D03*
%TD*%
D17*
%TO.P,R32,1*%
%TO.N,-BATT*%
X121662000Y-119634000D03*
%TO.P,R32,2*%
%TO.N,Net-(C25-Pad1)*%
X127762000Y-119634000D03*
%TD*%
D32*
%TO.P,R3,1*%
%TO.N,Net-(U1-VSSA)*%
X140043500Y-106426000D03*
%TO.P,R3,2*%
%TO.N,GND*%
X138848500Y-106426000D03*
%TD*%
D10*
%TO.P,H3,1,1*%
%TO.N,unconnected-(H3-Pad1)*%
X110850000Y-113500000D03*
X111333274Y-112333274D03*
X111333274Y-114666726D03*
X112500000Y-111850000D03*
D11*
X112500000Y-113500000D03*
D10*
X112500000Y-115150000D03*
X113666726Y-112333274D03*
X113666726Y-114666726D03*
X114150000Y-113500000D03*
%TD*%
D12*
%TO.P,Q7,1,S*%
%TO.N,Net-(C25-Pad1)*%
X139996333Y-123165000D03*
%TO.P,Q7,2,S*%
X138726333Y-123165000D03*
%TO.P,Q7,3,S*%
X137456333Y-123165000D03*
%TO.P,Q7,4,G*%
%TO.N,Net-(Q7-G)*%
X136186333Y-123165000D03*
%TO.P,Q7,5,D*%
%TO.N,Net-(Q6-D-Pad5)*%
X136186333Y-128803000D03*
%TO.P,Q7,6,D*%
X137456333Y-128803000D03*
%TO.P,Q7,7,D*%
X138726333Y-128803000D03*
%TO.P,Q7,8,D*%
X139996333Y-128778000D03*
D13*
X138091333Y-126721000D03*
%TD*%
D40*
%TO.P,L5,1*%
%TO.N,Net-(D11-K)*%
X145980632Y-119166000D03*
%TO.P,L5,2*%
%TO.N,Net-(Q8-G)*%
X145980632Y-120916000D03*
%TD*%
D16*
%TO.P,R17,1*%
%TO.N,/BQ76920/BAT*%
X124087000Y-96838000D03*
%TO.P,R17,2*%
%TO.N,/BQ76920/VC5*%
X125282000Y-96838000D03*
%TD*%
D15*
%TO.P,C15,1*%
%TO.N,+3.3V*%
X138886500Y-110236000D03*
%TO.P,C15,2*%
%TO.N,GND*%
X140021500Y-110236000D03*
%TD*%
D24*
%TO.P,R36,1*%
%TO.N,Net-(C25-Pad1)*%
X132723000Y-120088500D03*
%TO.P,R36,2*%
%TO.N,/BQ76920/DSG*%
X132723000Y-118893500D03*
%TD*%
D16*
%TO.P,R1,1*%
%TO.N,GND*%
X145841500Y-110744000D03*
%TO.P,R1,2*%
%TO.N,Net-(U1-PB2)*%
X147036500Y-110744000D03*
%TD*%
D18*
%TO.P,CN4,1,1*%
%TO.N,/USART1_TX*%
X147550000Y-97077000D03*
%TO.P,CN4,2,2*%
%TO.N,/USART1_RX*%
X146550000Y-97077000D03*
%TO.P,CN4,3,3*%
%TO.N,GND*%
X145550000Y-97077000D03*
%TO.P,CN4,4,4*%
%TO.N,+3.3V*%
X144550000Y-97077000D03*
D19*
%TO.P,CN4,5,5*%
%TO.N,unconnected-(CN4-Pad5)*%
X148650000Y-93677000D03*
%TO.P,CN4,6,6*%
%TO.N,unconnected-(CN4-Pad6)*%
X143450000Y-93677000D03*
%TD*%
D48*
%TO.P,Q10,1,G*%
%TO.N,GND*%
X139349000Y-115382000D03*
%TO.P,Q10,2,S*%
%TO.N,/BQ76920/CHG*%
X139349000Y-117282000D03*
%TO.P,Q10,3,D*%
%TO.N,Net-(D11-A)*%
X141224000Y-116332000D03*
%TD*%
D16*
%TO.P,R8,1*%
%TO.N,+3.3V*%
X135965000Y-104013000D03*
%TO.P,R8,2*%
%TO.N,/RESET*%
X137160000Y-104013000D03*
%TD*%
D28*
%TO.P,C8,1*%
%TO.N,/RESET*%
X140021500Y-105164000D03*
%TO.P,C8,2*%
%TO.N,GND*%
X138886500Y-105164000D03*
%TD*%
D20*
%TO.P,C14,1*%
%TO.N,/BQ76920/VC0*%
X126873000Y-111167500D03*
%TO.P,C14,2*%
%TO.N,GND*%
X126873000Y-112302500D03*
%TD*%
D21*
%TO.P,SW3,1,1*%
%TO.N,/BQ76920/VC1*%
X115648000Y-93726000D03*
%TO.P,SW3,2,2*%
%TO.N,Net-(R29-Pad1)*%
X119048000Y-93726000D03*
%TD*%
D20*
%TO.P,C13,1*%
%TO.N,/BQ76920/VC1*%
X126873000Y-108486500D03*
%TO.P,C13,2*%
%TO.N,/BQ76920/VC0*%
X126873000Y-109621500D03*
%TD*%
D28*
%TO.P,C17,1*%
%TO.N,/BQ76920/BAT*%
X134044500Y-109220000D03*
%TO.P,C17,2*%
%TO.N,GND*%
X132909500Y-109220000D03*
%TD*%
%TO.P,C24,1*%
%TO.N,/ALERT*%
X137130000Y-102870000D03*
%TO.P,C24,2*%
%TO.N,GND*%
X135995000Y-102870000D03*
%TD*%
D14*
%TO.P,D6,1,K*%
%TO.N,Net-(D6-K)*%
X122398500Y-102528500D03*
%TO.P,D6,2,A*%
%TO.N,Net-(D6-A)*%
X122398500Y-103928500D03*
%TD*%
D32*
%TO.P,R4,1*%
%TO.N,+3.3V*%
X143980500Y-110744000D03*
%TO.P,R4,2*%
%TO.N,/I2C1_SCL*%
X142785500Y-110744000D03*
%TD*%
D40*
%TO.P,L6,1*%
%TO.N,Net-(D11-K)*%
X147836904Y-119166000D03*
%TO.P,L6,2*%
%TO.N,Net-(Q9-G)*%
X147836904Y-120916000D03*
%TD*%
D16*
%TO.P,R14,1*%
%TO.N,Net-(D5-A)*%
X117766500Y-103251000D03*
%TO.P,R14,2*%
%TO.N,Net-(Q3-D)*%
X118961500Y-103251000D03*
%TD*%
%TO.P,R10,1*%
%TO.N,Net-(D3-K)*%
X131736500Y-106805400D03*
%TO.P,R10,2*%
%TO.N,GND*%
X132931500Y-106805400D03*
%TD*%
%TO.P,R7,1*%
%TO.N,Net-(D1-K)*%
X131736500Y-101719000D03*
%TO.P,R7,2*%
%TO.N,/LED_A*%
X132931500Y-101719000D03*
%TD*%
D20*
%TO.P,C20,1*%
%TO.N,+5V*%
X152908000Y-113177500D03*
%TO.P,C20,2*%
%TO.N,GND*%
X152908000Y-114312500D03*
%TD*%
D16*
%TO.P,R23,1*%
%TO.N,Net-(D6-A)*%
X124087000Y-105388666D03*
%TO.P,R23,2*%
%TO.N,/BQ76920/VC2*%
X125282000Y-105388666D03*
%TD*%
D49*
%TO.P,C19,1*%
%TO.N,Net-(U4-BAT)*%
X136879500Y-107823000D03*
%TO.P,C19,2*%
%TO.N,GND*%
X135154500Y-107823000D03*
%TD*%
D16*
%TO.P,R13,1*%
%TO.N,Net-(D4-A)*%
X117766500Y-100457000D03*
%TO.P,R13,2*%
%TO.N,Net-(Q2-D)*%
X118961500Y-100457000D03*
%TD*%
D36*
%TO.P,CN6,1,1*%
%TO.N,/BQ76920/BAT*%
X114984000Y-100751000D03*
%TO.P,CN6,2,2*%
%TO.N,Net-(D4-A)*%
X114984000Y-101751000D03*
%TO.P,CN6,3,3*%
%TO.N,Net-(D5-A)*%
X114984000Y-102751000D03*
%TO.P,CN6,4,4*%
%TO.N,Net-(D6-A)*%
X114984000Y-103751000D03*
%TO.P,CN6,5,5*%
%TO.N,Net-(D7-A)*%
X114984000Y-104751000D03*
%TO.P,CN6,6,6*%
%TO.N,Net-(D8-A)*%
X114984000Y-105751000D03*
D37*
%TO.P,CN6,7,7*%
%TO.N,unconnected-(CN6-Pad7)*%
X111584000Y-106851000D03*
%TO.P,CN6,8,8*%
%TO.N,unconnected-(CN6-Pad8)*%
X111584000Y-99651000D03*
%TD*%
D16*
%TO.P,R18,1*%
%TO.N,Net-(D4-K)*%
X124087000Y-98263111D03*
%TO.P,R18,2*%
%TO.N,/BQ76920/VC4*%
X125282000Y-98263111D03*
%TD*%
D15*
%TO.P,C16,1*%
%TO.N,+3.3V*%
X149927500Y-115443000D03*
%TO.P,C16,2*%
%TO.N,GND*%
X151062500Y-115443000D03*
%TD*%
D50*
%TO.N,+3.3V*%
X143250000Y-101490000D03*
X138049000Y-108966000D03*
X154559000Y-115450000D03*
X153289000Y-115443000D03*
X159880000Y-100520000D03*
X133820000Y-103000000D03*
X150210000Y-100830000D03*
X143300000Y-100010000D03*
X138460000Y-111320000D03*
X148732000Y-113106700D03*
X131840000Y-95740000D03*
X151460000Y-95620000D03*
X153924000Y-115443000D03*
X152527000Y-107569000D03*
X133800000Y-108410000D03*
X133760000Y-105530000D03*
X150241000Y-110744000D03*
X144570000Y-95760000D03*
X135128000Y-104013000D03*
X144018000Y-111379000D03*
X137700000Y-95750000D03*
X138890000Y-110860000D03*
%TO.N,GND*%
X140716000Y-115316000D03*
X126111000Y-112302500D03*
X152778012Y-104689298D03*
X155702000Y-105537000D03*
X133860000Y-95720000D03*
X138049000Y-105791000D03*
X152200000Y-100350000D03*
X132830000Y-95720000D03*
X150495000Y-113411000D03*
X140804604Y-112229604D03*
X156210000Y-101996500D03*
X144310000Y-101850000D03*
X138049000Y-107061000D03*
D51*
X118210000Y-115440000D03*
D50*
X151892000Y-114808000D03*
D51*
X121920000Y-115570000D03*
D50*
X145540000Y-95750000D03*
X151892000Y-115443000D03*
X141859000Y-97409000D03*
X127400000Y-93720000D03*
X159880000Y-101500000D03*
X135128000Y-102870000D03*
X150495000Y-114173000D03*
D51*
X127508000Y-115570000D03*
D50*
X145034000Y-110744000D03*
X148336000Y-111506000D03*
X154051000Y-105537000D03*
X141505857Y-101164143D03*
X154940000Y-105537000D03*
X135255000Y-114808000D03*
X133731000Y-106807000D03*
X154051000Y-104648000D03*
X154940000Y-104648000D03*
X155702000Y-104648000D03*
X138049000Y-107696000D03*
X140510000Y-102970000D03*
X138700000Y-95760000D03*
X152470000Y-95620000D03*
X140843000Y-110236000D03*
X132080000Y-109220000D03*
X141478000Y-115316000D03*
X122790000Y-93730000D03*
X134046000Y-107630000D03*
X138049000Y-106426000D03*
X138049000Y-105156000D03*
%TO.N,+5V*%
X130860000Y-95791400D03*
X152908000Y-112395000D03*
X153416000Y-102362000D03*
%TO.N,/BQ76920/VC1*%
X115650000Y-95270000D03*
X126170000Y-106290000D03*
%TO.N,/BQ76920/BAT*%
X113752000Y-100751000D03*
X135001000Y-109220000D03*
%TO.N,/ALERT*%
X138049000Y-102870000D03*
X132320000Y-116050000D03*
%TO.N,Net-(C25-Pad1)*%
X139954000Y-122809000D03*
X137414000Y-122174000D03*
X131445000Y-122809000D03*
X135255000Y-122809000D03*
X132715000Y-122174000D03*
X133985000Y-122174000D03*
X131445000Y-122174000D03*
X137414000Y-122809000D03*
D51*
X127762000Y-120904000D03*
D50*
X132715000Y-122809000D03*
X135255000Y-122174000D03*
X138684000Y-122174000D03*
X139954000Y-122174000D03*
D51*
X127762000Y-117094000D03*
D50*
X133985000Y-122809000D03*
D51*
X127762000Y-118872000D03*
D50*
X138684000Y-122809000D03*
%TO.N,PACK-*%
X150749000Y-122809000D03*
X146050000Y-122809000D03*
X149479000Y-122174000D03*
X147193000Y-122174000D03*
X152019000Y-122809000D03*
D51*
X155702000Y-119380000D03*
X155702000Y-121412000D03*
D50*
X143510000Y-122809000D03*
X149479000Y-122809000D03*
X144780000Y-122809000D03*
X147193000Y-122809000D03*
X146050000Y-122174000D03*
X143510000Y-122174000D03*
X150749000Y-122174000D03*
X144780000Y-122174000D03*
D51*
X141223500Y-120903500D03*
D50*
X152019000Y-122174000D03*
D51*
%TO.N,PACK+*%
X155702000Y-124206000D03*
X155702000Y-126238000D03*
%TO.N,-BATT*%
X121666000Y-119634000D03*
X121666000Y-120904000D03*
X118110000Y-119634000D03*
X118110000Y-121158000D03*
X121666000Y-118364000D03*
D50*
%TO.N,/SWDIO*%
X149410000Y-103180000D03*
X159950000Y-103500000D03*
%TO.N,/SWCLK*%
X149350000Y-102170000D03*
X159930000Y-102490000D03*
D51*
%TO.N,Net-(Q6-D-Pad5)*%
X142240000Y-125222000D03*
X144272000Y-125222000D03*
X136144000Y-125222000D03*
X148336000Y-125222000D03*
X133350000Y-125222000D03*
X152400000Y-125222000D03*
X139192000Y-125222000D03*
X145288000Y-125222000D03*
X149352000Y-125222000D03*
X146304000Y-125222000D03*
X151384000Y-125222000D03*
X134366000Y-125222000D03*
X140208000Y-125222000D03*
X137160000Y-125222000D03*
X130302000Y-125222000D03*
X132334000Y-125222000D03*
X138176000Y-125222000D03*
X150368000Y-125222000D03*
X131318000Y-125222000D03*
X143256000Y-125222000D03*
D50*
%TO.N,/I2C1_SCL*%
X142740143Y-109929857D03*
X145416100Y-102608036D03*
%TO.N,/I2C1_SDA*%
X142772223Y-109194454D03*
X144680000Y-102610000D03*
%TO.N,/LED_A*%
X133950000Y-101740000D03*
X143799667Y-102930110D03*
%TO.N,/LED_B*%
X133760000Y-104340784D03*
X143750000Y-103670000D03*
%TO.N,Net-(U4-TS1)*%
X135128000Y-112776000D03*
X135150000Y-106426000D03*
%TO.N,/KEY_A*%
X124930000Y-95233100D03*
X148290000Y-105240000D03*
%TO.N,/CAN_STB*%
X152042699Y-104655211D03*
X156464000Y-106934000D03*
%TO.N,/CAN_TX*%
X156386960Y-103122302D03*
X152041393Y-103526893D03*
%TO.N,/I2C2_SCL*%
X139690000Y-98490000D03*
X146550404Y-107128358D03*
%TO.N,/I2C2_SDA*%
X146561391Y-106392338D03*
X140700000Y-98480000D03*
%TD*%
D52*
%TO.N,+3.3V*%
X153909000Y-107076000D02*
X153909000Y-106622000D01*
X152527000Y-107569000D02*
X152527000Y-106739500D01*
D53*
X137692000Y-97077000D02*
X137692000Y-95758000D01*
D52*
X153797000Y-107188000D02*
X153909000Y-107076000D01*
D53*
X153289000Y-115443000D02*
X154552000Y-115443000D01*
D52*
X150472000Y-101092000D02*
X150210000Y-100830000D01*
X132969500Y-108140000D02*
X132906500Y-108077000D01*
D53*
X144550000Y-97077000D02*
X144550000Y-95780000D01*
D52*
X133530000Y-108140000D02*
X132969500Y-108140000D01*
X143816000Y-99846000D02*
X143816000Y-100747500D01*
X133756200Y-105533800D02*
X133760000Y-105530000D01*
X148767300Y-113142000D02*
X149467000Y-113142000D01*
X150728500Y-102160000D02*
X151211000Y-102160000D01*
D53*
X144018000Y-111379000D02*
X143980500Y-111416500D01*
D52*
X151070500Y-101092000D02*
X150472000Y-101092000D01*
D53*
X158605000Y-100520000D02*
X158574000Y-100489000D01*
X143980500Y-111416500D02*
X143980500Y-112014000D01*
D52*
X142688500Y-100928500D02*
X142688500Y-100465000D01*
D53*
X148067000Y-114442000D02*
X149467000Y-114442000D01*
X154552000Y-115443000D02*
X154559000Y-115450000D01*
D52*
X142688500Y-99322000D02*
X143292000Y-99322000D01*
D53*
X146939000Y-115660500D02*
X146939000Y-115570000D01*
X138886500Y-110922500D02*
X138269000Y-111540000D01*
X151456000Y-95624000D02*
X151460000Y-95620000D01*
D52*
X152975500Y-107188000D02*
X153797000Y-107188000D01*
X142688500Y-101875000D02*
X142403500Y-102160000D01*
D53*
X138269000Y-111540000D02*
X136737000Y-111540000D01*
D52*
X148732000Y-113106700D02*
X148767300Y-113142000D01*
D53*
X147156500Y-115443000D02*
X146939000Y-115660500D01*
D52*
X143300000Y-100010000D02*
X143300000Y-99933500D01*
D53*
X135965000Y-104013000D02*
X135128000Y-104013000D01*
X143980500Y-111341500D02*
X143980500Y-110744000D01*
D52*
X143300000Y-99933500D02*
X142688500Y-99322000D01*
D53*
X150689500Y-116205000D02*
X149927500Y-115443000D01*
X151456000Y-96950000D02*
X151456000Y-95624000D01*
D52*
X151511000Y-101532500D02*
X151070500Y-101092000D01*
X132906500Y-105533800D02*
X133756200Y-105533800D01*
D53*
X152527000Y-116205000D02*
X150689500Y-116205000D01*
X144018000Y-111379000D02*
X143980500Y-111341500D01*
X138881500Y-108966000D02*
X138049000Y-108966000D01*
D52*
X149316000Y-109072500D02*
X149316000Y-110648500D01*
X151511000Y-101860000D02*
X151511000Y-101532500D01*
X133800000Y-108410000D02*
X133530000Y-108140000D01*
D53*
X137692000Y-95758000D02*
X137700000Y-95750000D01*
X159880000Y-100520000D02*
X158605000Y-100520000D01*
D52*
X150241000Y-110744000D02*
X149411500Y-110744000D01*
X149316000Y-110648500D02*
X149411500Y-110744000D01*
D53*
X153289000Y-115443000D02*
X152527000Y-116205000D01*
D52*
X143292000Y-99322000D02*
X143816000Y-99846000D01*
D53*
X138886500Y-110236000D02*
X138886500Y-110922500D01*
D52*
X142688500Y-100465000D02*
X142688500Y-101875000D01*
D53*
X131834000Y-97077000D02*
X131834000Y-95746000D01*
D52*
X133810600Y-102990600D02*
X133820000Y-103000000D01*
D53*
X131834000Y-95746000D02*
X131840000Y-95740000D01*
X149927500Y-115443000D02*
X147156500Y-115443000D01*
D52*
X151211000Y-102160000D02*
X151511000Y-101860000D01*
X143250000Y-101490000D02*
X142688500Y-100928500D01*
X132906500Y-102990600D02*
X133810600Y-102990600D01*
X152527000Y-106739500D02*
X152975500Y-107188000D01*
D53*
X146939000Y-115570000D02*
X148067000Y-114442000D01*
X144550000Y-95780000D02*
X144570000Y-95760000D01*
%TO.N,GND*%
X141505857Y-101164143D02*
X141505857Y-100512643D01*
X138886500Y-107696000D02*
X138049000Y-107696000D01*
D52*
X156210000Y-101996500D02*
X155717500Y-102489000D01*
X152412500Y-114808000D02*
X152908000Y-114312500D01*
D53*
X145841500Y-110744000D02*
X145034000Y-110744000D01*
X138057000Y-105164000D02*
X138049000Y-105156000D01*
D52*
X152778012Y-105353488D02*
X152527000Y-105604500D01*
D53*
X138848500Y-106426000D02*
X138049000Y-106426000D01*
X141505857Y-100512643D02*
X141553500Y-100465000D01*
X123683500Y-93726000D02*
X122794000Y-93726000D01*
X128319000Y-93726000D02*
X127406000Y-93726000D01*
X140021500Y-110236000D02*
X140843000Y-110236000D01*
X139415000Y-115316000D02*
X139349000Y-115382000D01*
X140164000Y-102624000D02*
X139454000Y-102624000D01*
X141859000Y-98141500D02*
X141896500Y-98179000D01*
X140013500Y-112268000D02*
X140766208Y-112268000D01*
X152200000Y-101086500D02*
X152205500Y-101092000D01*
X138049000Y-105156000D02*
X138049000Y-107696000D01*
X151062500Y-115443000D02*
X151892000Y-115443000D01*
X135128000Y-102870000D02*
X135995000Y-102870000D01*
X151892000Y-114808000D02*
X151892000Y-115443000D01*
X121920000Y-115570000D02*
X121979500Y-115629500D01*
D52*
X152778012Y-104689298D02*
X152778012Y-105353488D01*
X155717500Y-102489000D02*
X155507500Y-102489000D01*
D53*
X135965000Y-101727000D02*
X135965000Y-102840000D01*
X152200000Y-100350000D02*
X152200000Y-101086500D01*
D52*
X151892000Y-114808000D02*
X152412500Y-114808000D01*
D53*
X159880000Y-101500000D02*
X158585000Y-101500000D01*
X121979500Y-115629500D02*
X122936000Y-115629500D01*
X148336000Y-110803500D02*
X148276500Y-110744000D01*
X118207000Y-115443000D02*
X118210000Y-115440000D01*
D52*
X150728500Y-102660000D02*
X151848000Y-102660000D01*
D53*
X158585000Y-101500000D02*
X158574000Y-101489000D01*
X152456000Y-96950000D02*
X152456000Y-95634000D01*
X127406000Y-93726000D02*
X127400000Y-93720000D01*
X140510000Y-102970000D02*
X140164000Y-102624000D01*
X140766208Y-112268000D02*
X140804604Y-112229604D01*
X122794000Y-93726000D02*
X122790000Y-93730000D01*
X133729400Y-106805400D02*
X133731000Y-106807000D01*
X134046000Y-107630000D02*
X134961500Y-107630000D01*
D52*
X144310000Y-101850000D02*
X144316000Y-101844000D01*
D53*
X132830000Y-95720000D02*
X132830000Y-97073000D01*
D52*
X148816000Y-110204500D02*
X148276500Y-110744000D01*
X155209000Y-103632000D02*
X155209000Y-102787500D01*
D53*
X137160000Y-106426000D02*
X138049000Y-106426000D01*
D52*
X151892000Y-114808000D02*
X151892000Y-114554000D01*
D53*
X145550000Y-95760000D02*
X145540000Y-95750000D01*
X138692000Y-97077000D02*
X138692000Y-95768000D01*
X135965000Y-102840000D02*
X135995000Y-102870000D01*
X132909500Y-109220000D02*
X132080000Y-109220000D01*
D52*
X152205500Y-102302500D02*
X152205500Y-101092000D01*
D53*
X133860000Y-95720000D02*
X133860000Y-97051000D01*
X132931500Y-106805400D02*
X133729400Y-106805400D01*
D52*
X144316000Y-101844000D02*
X144316000Y-100747500D01*
D53*
X127448500Y-115629500D02*
X127508000Y-115570000D01*
X138886500Y-105164000D02*
X138057000Y-105164000D01*
X148336000Y-111506000D02*
X148336000Y-110803500D01*
X152456000Y-95634000D02*
X152470000Y-95620000D01*
X141859000Y-97409000D02*
X141859000Y-98141500D01*
X141478000Y-115316000D02*
X139415000Y-115316000D01*
X134961500Y-107630000D02*
X135154500Y-107823000D01*
D52*
X151780000Y-114442000D02*
X151523000Y-114442000D01*
D53*
X135273000Y-114790000D02*
X136737000Y-114790000D01*
X133860000Y-97051000D02*
X133834000Y-97077000D01*
D52*
X148816000Y-109072500D02*
X148816000Y-110204500D01*
D53*
X126111000Y-112302500D02*
X126873000Y-112302500D01*
X145550000Y-97077000D02*
X145550000Y-95760000D01*
X117097500Y-115443000D02*
X118207000Y-115443000D01*
D52*
X151892000Y-114554000D02*
X151780000Y-114442000D01*
D53*
X141553500Y-99322000D02*
X141553500Y-100465000D01*
X132830000Y-97073000D02*
X132834000Y-97077000D01*
X138692000Y-95768000D02*
X138700000Y-95760000D01*
D52*
X155209000Y-102787500D02*
X155507500Y-102489000D01*
X151848000Y-102660000D02*
X152205500Y-102302500D01*
D53*
X126492000Y-115629500D02*
X127448500Y-115629500D01*
X135255000Y-114808000D02*
X135273000Y-114790000D01*
%TO.N,+5V*%
X151523000Y-113142000D02*
X152872500Y-113142000D01*
X130860000Y-95791400D02*
X130834000Y-95817400D01*
D52*
X154559000Y-103632000D02*
X154559000Y-102675500D01*
D53*
X152872500Y-113142000D02*
X152908000Y-113177500D01*
D52*
X154559000Y-102675500D02*
X154372500Y-102489000D01*
D53*
X151523000Y-113792000D02*
X151523000Y-113142000D01*
X153416000Y-102362000D02*
X153543000Y-102489000D01*
X153543000Y-102489000D02*
X154372500Y-102489000D01*
X130834000Y-95817400D02*
X130834000Y-97077000D01*
X152908000Y-113177500D02*
X152908000Y-112395000D01*
D52*
%TO.N,+3.3VA*%
X140026500Y-108966000D02*
X140026500Y-107701000D01*
X142403500Y-106160000D02*
X141557500Y-106160000D01*
X140026500Y-107701000D02*
X140021500Y-107696000D01*
X141557500Y-106160000D02*
X140021500Y-107696000D01*
D54*
%TO.N,/RESET*%
X139337500Y-104480000D02*
X137627000Y-104480000D01*
X134620000Y-101691579D02*
X134620000Y-103080421D01*
X132515800Y-101195800D02*
X134124221Y-101195800D01*
X140025500Y-105160000D02*
X140021500Y-105164000D01*
X127060600Y-95740600D02*
X132515800Y-101195800D01*
X135029379Y-103489800D02*
X136636800Y-103489800D01*
X134620000Y-103080421D02*
X135029379Y-103489800D01*
X136636800Y-103489800D02*
X137160000Y-104013000D01*
X142403500Y-105160000D02*
X140025500Y-105160000D01*
X120540600Y-95740600D02*
X127060600Y-95740600D01*
X134124221Y-101195800D02*
X134620000Y-101691579D01*
X137627000Y-104480000D02*
X137160000Y-104013000D01*
X120283500Y-93726000D02*
X120283500Y-95483500D01*
X120283500Y-95483500D02*
X120540600Y-95740600D01*
X140021500Y-105164000D02*
X139337500Y-104480000D01*
D52*
%TO.N,/BQ76920/VC5*%
X129710000Y-99717500D02*
X129710000Y-110787000D01*
X129813000Y-110890000D02*
X130995000Y-110890000D01*
X126873000Y-96880500D02*
X129710000Y-99717500D01*
X125282000Y-96838000D02*
X126830500Y-96838000D01*
X126830500Y-96838000D02*
X126873000Y-96880500D01*
X129710000Y-110787000D02*
X129813000Y-110890000D01*
%TO.N,/BQ76920/VC4*%
X126625389Y-98263111D02*
X126873000Y-98015500D01*
X129329000Y-102238000D02*
X129329000Y-110944816D01*
X125282000Y-98263111D02*
X126625389Y-98263111D01*
X125282000Y-99688222D02*
X126779222Y-99688222D01*
X126873000Y-98015500D02*
X126873000Y-99782000D01*
X126873000Y-99782000D02*
X129329000Y-102238000D01*
X126779222Y-99688222D02*
X126873000Y-99782000D01*
X129329000Y-110944816D02*
X129924184Y-111540000D01*
X129924184Y-111540000D02*
X130995000Y-111540000D01*
%TO.N,/BQ76920/VC3*%
X126676667Y-101113333D02*
X126873000Y-100917000D01*
X125282000Y-102538444D02*
X126727944Y-102538444D01*
X128948000Y-111102632D02*
X130035368Y-112190000D01*
X130035368Y-112190000D02*
X130995000Y-112190000D01*
X128948000Y-104758500D02*
X128948000Y-111102632D01*
X126873000Y-100917000D02*
X126873000Y-102683500D01*
X126873000Y-102683500D02*
X128948000Y-104758500D01*
X125282000Y-101113333D02*
X126676667Y-101113333D01*
X126727944Y-102538444D02*
X126873000Y-102683500D01*
%TO.N,/BQ76920/VC2*%
X126727945Y-103963555D02*
X126873000Y-103818500D01*
X128567000Y-107279000D02*
X128567000Y-111260448D01*
X128567000Y-111260448D02*
X130146552Y-112840000D01*
X130146552Y-112840000D02*
X130995000Y-112840000D01*
X125282000Y-103963555D02*
X126727945Y-103963555D01*
X126873000Y-105585000D02*
X128567000Y-107279000D01*
X125478334Y-105585000D02*
X125282000Y-105388666D01*
X126873000Y-105585000D02*
X125478334Y-105585000D01*
X126873000Y-103818500D02*
X126873000Y-105585000D01*
%TO.N,/BQ76920/VC1*%
X130257736Y-113490000D02*
X130995000Y-113490000D01*
X126873000Y-108486500D02*
X128186000Y-109799500D01*
X126625388Y-108238888D02*
X126873000Y-108486500D01*
X128186000Y-111418264D02*
X130257736Y-113490000D01*
X125282000Y-108238888D02*
X126625388Y-108238888D01*
X115650000Y-95270000D02*
X115650000Y-93728000D01*
X115650000Y-93728000D02*
X115648000Y-93726000D01*
X128186000Y-109799500D02*
X128186000Y-111418264D01*
X126873000Y-106720000D02*
X126873000Y-108486500D01*
X125646223Y-106813777D02*
X125282000Y-106813777D01*
X125282000Y-106813777D02*
X126779223Y-106813777D01*
X126779223Y-106813777D02*
X126873000Y-106720000D01*
X126170000Y-106290000D02*
X125646223Y-106813777D01*
%TO.N,/BQ76920/VC0*%
X130339403Y-114140000D02*
X130995000Y-114140000D01*
X126873000Y-109621500D02*
X126873000Y-111167500D01*
X125282000Y-109664000D02*
X126830500Y-109664000D01*
X126830500Y-109664000D02*
X126873000Y-109621500D01*
X125282000Y-111125000D02*
X126830500Y-111125000D01*
X127396420Y-111167500D02*
X129870000Y-113641080D01*
X126873000Y-111167500D02*
X127396420Y-111167500D01*
X129870000Y-113641080D02*
X129870000Y-113670597D01*
X126830500Y-111125000D02*
X126873000Y-111167500D01*
X129870000Y-113670597D02*
X130339403Y-114140000D01*
%TO.N,/BQ76920/BAT*%
X117766500Y-97663000D02*
X117766500Y-99003500D01*
D53*
X113752000Y-100751000D02*
X114984000Y-100751000D01*
D52*
X134044500Y-109914500D02*
X134044500Y-109220000D01*
X135020000Y-110890000D02*
X134044500Y-109914500D01*
X119059500Y-96370000D02*
X117766500Y-97663000D01*
D53*
X135001000Y-109220000D02*
X135927500Y-109220000D01*
D52*
X136737000Y-110890000D02*
X135020000Y-110890000D01*
X123619000Y-96370000D02*
X119059500Y-96370000D01*
D53*
X135001000Y-109220000D02*
X134044500Y-109220000D01*
D52*
X117766500Y-99003500D02*
X116019000Y-100751000D01*
X124087000Y-96838000D02*
X123619000Y-96370000D01*
X116019000Y-100751000D02*
X114984000Y-100751000D01*
%TO.N,Net-(U4-CAP1)*%
X136737000Y-112190000D02*
X138800500Y-112190000D01*
X138800500Y-112190000D02*
X138878500Y-112268000D01*
D53*
%TO.N,Net-(U4-BAT)*%
X137033000Y-107976500D02*
X137033000Y-109130500D01*
D52*
X137463236Y-109220000D02*
X137122500Y-109220000D01*
X137672000Y-110240000D02*
X137795000Y-110117000D01*
X137795000Y-110117000D02*
X137795000Y-109551764D01*
X136737000Y-110240000D02*
X137672000Y-110240000D01*
D53*
X136879500Y-107823000D02*
X137033000Y-107976500D01*
D52*
X137795000Y-109551764D02*
X137463236Y-109220000D01*
D53*
X137033000Y-109130500D02*
X137122500Y-109220000D01*
D54*
%TO.N,/BQ76920/SRP*%
X124154500Y-114435000D02*
X124154500Y-114377500D01*
X124154500Y-115532000D02*
X124079000Y-115607500D01*
X124520800Y-113528633D02*
X125040633Y-113008800D01*
X122995500Y-114435000D02*
X122936000Y-114494500D01*
X124154500Y-114435000D02*
X122995500Y-114435000D01*
X125040633Y-113008800D02*
X127563340Y-113008800D01*
X124520800Y-114011200D02*
X124520800Y-113528633D01*
X124154500Y-114435000D02*
X124154500Y-115532000D01*
X129468340Y-114913800D02*
X130000200Y-114913800D01*
X130124000Y-114790000D02*
X130995000Y-114790000D01*
X127563340Y-113008800D02*
X129468340Y-114913800D01*
X130000200Y-114913800D02*
X130124000Y-114790000D01*
X124154500Y-114377500D02*
X124520800Y-114011200D01*
%TO.N,/BQ76920/SRN*%
X129301660Y-115316200D02*
X130000200Y-115316200D01*
X128076638Y-114523432D02*
X128076637Y-114523433D01*
X125289500Y-115548000D02*
X125349000Y-115607500D01*
X127877730Y-114168960D02*
X127799947Y-114246742D01*
X125289500Y-114435000D02*
X125289500Y-115548000D01*
X127799947Y-114523432D02*
X127799947Y-114523433D01*
X128431109Y-114445650D02*
X128431110Y-114445650D01*
X128431110Y-114445650D02*
X129301660Y-115316200D01*
X125289500Y-114435000D02*
X125289500Y-114377500D01*
X127877729Y-114168961D02*
X127877730Y-114168960D01*
X125207313Y-113411200D02*
X127396660Y-113411200D01*
X128076637Y-114523433D02*
X128154419Y-114445650D01*
X130124000Y-115440000D02*
X130995000Y-115440000D01*
X124923200Y-113695313D02*
X125207313Y-113411200D01*
X125289500Y-114435000D02*
X126432500Y-114435000D01*
X125289500Y-114377500D02*
X124923200Y-114011200D01*
X130000200Y-115316200D02*
X130124000Y-115440000D01*
X126432500Y-114435000D02*
X126492000Y-114494500D01*
X124923200Y-114011200D02*
X124923200Y-113695313D01*
X127396660Y-113411200D02*
X127877730Y-113892270D01*
X127799947Y-114523433D02*
G75*
G03*
X128076646Y-114523440I138353J138333D01*
G01*
X127877730Y-113892270D02*
G75*
G02*
X127877714Y-114168946I-138330J-138330D01*
G01*
X127799947Y-114246742D02*
G75*
G03*
X127799934Y-114523445I138353J-138358D01*
G01*
X128154419Y-114445650D02*
G75*
G02*
X128431109Y-114445650I138345J-138346D01*
G01*
%TO.N,/ALERT*%
X142403500Y-102660000D02*
X141649000Y-102660000D01*
X141649000Y-102660000D02*
X141376400Y-102387400D01*
X137160000Y-101727000D02*
X137160000Y-102840000D01*
X141376400Y-102387400D02*
X141376400Y-101752400D01*
X141376400Y-101752400D02*
X140462000Y-100838000D01*
X138049000Y-100838000D02*
X137160000Y-101727000D01*
X140462000Y-100838000D02*
X138049000Y-100838000D01*
X137160000Y-102840000D02*
X137130000Y-102870000D01*
X132320000Y-116050000D02*
X132280000Y-116090000D01*
X138049000Y-102870000D02*
X137130000Y-102870000D01*
X132280000Y-116090000D02*
X130995000Y-116090000D01*
D53*
%TO.N,Net-(C25-Pad1)*%
X132723000Y-120088500D02*
X128216500Y-120088500D01*
D54*
X125349000Y-121285000D02*
X127762000Y-123698000D01*
X125349000Y-116802500D02*
X125349000Y-121285000D01*
D53*
X138031816Y-121556184D02*
X137414000Y-122174000D01*
X138031816Y-120903500D02*
X138031816Y-121556184D01*
X127762000Y-120142000D02*
X127762000Y-118872000D01*
X128216500Y-120088500D02*
X127762000Y-120142000D01*
X127762000Y-118872000D02*
X127762000Y-119634000D01*
%TO.N,Net-(C25-Pad2)*%
X139888088Y-119178500D02*
X138031816Y-119178500D01*
%TO.N,PACK-*%
X149663176Y-121989824D02*
X149479000Y-122174000D01*
X149663176Y-120386000D02*
X149663176Y-121989824D01*
X151229448Y-120088500D02*
X151229448Y-121693552D01*
X151229448Y-121693552D02*
X150749000Y-122174000D01*
X141223500Y-120903500D02*
X139888088Y-120903500D01*
%TO.N,PACK+*%
X155702000Y-125391000D02*
X153416000Y-123105000D01*
X153416000Y-121493780D02*
X152825720Y-120903500D01*
X153416000Y-123105000D02*
X153416000Y-121493780D01*
%TO.N,Net-(C27-Pad2)*%
X152825720Y-118174280D02*
X152825720Y-119178500D01*
X153652000Y-117348000D02*
X152825720Y-118174280D01*
X154712500Y-117348000D02*
X153652000Y-117348000D01*
D52*
%TO.N,-BATT*%
X115902500Y-116300500D02*
X113030000Y-119173000D01*
D54*
X124079000Y-121281000D02*
X124079000Y-116802500D01*
X121662000Y-123698000D02*
X124079000Y-121281000D01*
D52*
X115902500Y-115443000D02*
X115902500Y-116300500D01*
D54*
%TO.N,/SPI1_MOSI*%
X153216800Y-98003200D02*
X153456000Y-97764000D01*
X153456000Y-97764000D02*
X153456000Y-96950000D01*
X147316000Y-99918606D02*
X149231406Y-98003200D01*
X147316000Y-100747500D02*
X147316000Y-99918606D01*
X149231406Y-98003200D02*
X153216800Y-98003200D01*
%TO.N,/SPI1_MISO*%
X149347137Y-98282600D02*
X153927400Y-98282600D01*
X154456000Y-97754000D02*
X154456000Y-96950000D01*
X147816000Y-99813737D02*
X149347137Y-98282600D01*
X153927400Y-98282600D02*
X154456000Y-97754000D01*
X147816000Y-100747500D02*
X147816000Y-99813737D01*
%TO.N,/SPI1_SCK*%
X149462868Y-98562000D02*
X154628000Y-98562000D01*
X154628000Y-98562000D02*
X155456000Y-97734000D01*
X155456000Y-97734000D02*
X155456000Y-96950000D01*
X148316000Y-100747500D02*
X148316000Y-99708868D01*
X148316000Y-99708868D02*
X149462868Y-98562000D01*
%TO.N,/SPI1_NSS*%
X148816000Y-99604000D02*
X149578600Y-98841400D01*
X149578600Y-98841400D02*
X155338600Y-98841400D01*
X155338600Y-98841400D02*
X156456000Y-97724000D01*
X148816000Y-100747500D02*
X148816000Y-99604000D01*
X156456000Y-97724000D02*
X156456000Y-96950000D01*
%TO.N,/USART1_TX*%
X146816000Y-98624000D02*
X146816000Y-100747500D01*
X147550000Y-97077000D02*
X147550000Y-97890000D01*
X147550000Y-97890000D02*
X146816000Y-98624000D01*
%TO.N,/USART1_RX*%
X146380000Y-100683500D02*
X146316000Y-100747500D01*
X146550000Y-97077000D02*
X146380000Y-97247000D01*
X146380000Y-97247000D02*
X146380000Y-100683500D01*
%TO.N,/SWDIO*%
X150728500Y-103160000D02*
X149430000Y-103160000D01*
X158585000Y-103500000D02*
X158574000Y-103489000D01*
X149430000Y-103160000D02*
X149410000Y-103180000D01*
X159950000Y-103500000D02*
X158585000Y-103500000D01*
%TO.N,/SWCLK*%
X149316000Y-100747500D02*
X149316000Y-102136000D01*
X159930000Y-102490000D02*
X158575000Y-102490000D01*
X149316000Y-102136000D02*
X149350000Y-102170000D01*
X158575000Y-102490000D02*
X158574000Y-102489000D01*
D52*
%TO.N,Net-(D4-A)*%
X116472500Y-101751000D02*
X117766500Y-100457000D01*
X119417500Y-98806000D02*
X121955500Y-98806000D01*
D54*
X122023500Y-97988000D02*
X122398500Y-98363000D01*
D52*
X123712778Y-99314000D02*
X122910592Y-99314000D01*
X117766500Y-100457000D02*
X119417500Y-98806000D01*
X122910592Y-99314000D02*
X122398500Y-98801908D01*
X124087000Y-99688222D02*
X123712778Y-99314000D01*
D54*
X120795500Y-97988000D02*
X122023500Y-97988000D01*
D52*
X114984000Y-101751000D02*
X116472500Y-101751000D01*
X122398500Y-98801908D02*
X122398500Y-98363000D01*
X121955500Y-98806000D02*
X122398500Y-98363000D01*
%TO.N,Net-(D5-A)*%
X122899342Y-102108000D02*
X122398500Y-101607158D01*
X117266500Y-102751000D02*
X117766500Y-103251000D01*
D54*
X120795500Y-100782000D02*
X122057250Y-100782000D01*
D52*
X114984000Y-102751000D02*
X117266500Y-102751000D01*
X122398500Y-101607158D02*
X122398500Y-101123250D01*
X124087000Y-102538444D02*
X123656556Y-102108000D01*
X123656556Y-102108000D02*
X122899342Y-102108000D01*
X119417500Y-101600000D02*
X121921750Y-101600000D01*
X121921750Y-101600000D02*
X122398500Y-101123250D01*
X117766500Y-103251000D02*
X119417500Y-101600000D01*
D54*
X122057250Y-100782000D02*
X122398500Y-101123250D01*
D52*
%TO.N,Net-(D6-A)*%
X122888092Y-104902000D02*
X122398500Y-104412408D01*
X121933000Y-104394000D02*
X122398500Y-103928500D01*
X123600334Y-104902000D02*
X122888092Y-104902000D01*
X117766500Y-105320500D02*
X117766500Y-106045000D01*
X114984000Y-103751000D02*
X116197000Y-103751000D01*
D54*
X120795500Y-103576000D02*
X122046000Y-103576000D01*
D52*
X117766500Y-106045000D02*
X119417500Y-104394000D01*
X119417500Y-104394000D02*
X121933000Y-104394000D01*
D54*
X122046000Y-103576000D02*
X122398500Y-103928500D01*
D52*
X122398500Y-104412408D02*
X122398500Y-103928500D01*
X124087000Y-105388666D02*
X123600334Y-104902000D01*
X116197000Y-103751000D02*
X117766500Y-105320500D01*
D54*
%TO.N,Net-(D7-A)*%
X122034750Y-106370000D02*
X122398500Y-106733750D01*
D52*
X122398500Y-107217658D02*
X122398500Y-106733750D01*
X119417500Y-107188000D02*
X121944250Y-107188000D01*
X117094000Y-108166500D02*
X117766500Y-108839000D01*
X117094000Y-105918000D02*
X117094000Y-108166500D01*
X114984000Y-104751000D02*
X115927000Y-104751000D01*
X124087000Y-108238888D02*
X123544112Y-107696000D01*
D54*
X120795500Y-106370000D02*
X122034750Y-106370000D01*
D52*
X117766500Y-108839000D02*
X119417500Y-107188000D01*
X115927000Y-104751000D02*
X117094000Y-105918000D01*
X123544112Y-107696000D02*
X122876842Y-107696000D01*
X122876842Y-107696000D02*
X122398500Y-107217658D01*
X121944250Y-107188000D02*
X122398500Y-106733750D01*
D54*
%TO.N,Net-(D8-A)*%
X122023500Y-109164000D02*
X122398500Y-109539000D01*
X120795500Y-109164000D02*
X122023500Y-109164000D01*
D52*
X124087000Y-111125000D02*
X123325000Y-110363000D01*
X117856000Y-111125000D02*
X124087000Y-111125000D01*
X116586000Y-106299000D02*
X116586000Y-109855000D01*
X116038000Y-105751000D02*
X116586000Y-106299000D01*
X122809000Y-110363000D02*
X122398500Y-109952500D01*
X116586000Y-109855000D02*
X117856000Y-111125000D01*
X122398500Y-109952500D02*
X122398500Y-109539000D01*
X123325000Y-110363000D02*
X122809000Y-110363000D01*
X114984000Y-105751000D02*
X116038000Y-105751000D01*
D53*
%TO.N,Net-(D1-K)*%
X131761500Y-102990600D02*
X131761500Y-101744000D01*
X131761500Y-101744000D02*
X131736500Y-101719000D01*
%TO.N,Net-(D2-K)*%
X131761500Y-105533800D02*
X131761500Y-104287200D01*
X131761500Y-104287200D02*
X131736500Y-104262200D01*
%TO.N,Net-(D3-K)*%
X131761500Y-108077000D02*
X131761500Y-106830400D01*
X131761500Y-106830400D02*
X131736500Y-106805400D01*
D55*
%TO.N,Net-(D4-K)*%
X120526000Y-97655500D02*
X121706000Y-97655500D01*
X120445500Y-97736000D02*
X120526000Y-97655500D01*
D52*
X122873842Y-97917000D02*
X122398500Y-97441658D01*
X124087000Y-98263111D02*
X123740889Y-97917000D01*
D55*
X120445500Y-97988000D02*
X120445500Y-97736000D01*
X121706000Y-97655500D02*
X122398500Y-96963000D01*
D52*
X123740889Y-97917000D02*
X122873842Y-97917000D01*
X122398500Y-97441658D02*
X122398500Y-96963000D01*
%TO.N,Net-(D5-K)*%
X122398500Y-100201908D02*
X122398500Y-99723250D01*
X124087000Y-101113333D02*
X123557667Y-100584000D01*
X123557667Y-100584000D02*
X122780592Y-100584000D01*
D55*
X120526000Y-100449500D02*
X121672250Y-100449500D01*
X120445500Y-100782000D02*
X120445500Y-100530000D01*
D52*
X122780592Y-100584000D02*
X122398500Y-100201908D01*
D55*
X121672250Y-100449500D02*
X122398500Y-99723250D01*
X120445500Y-100530000D02*
X120526000Y-100449500D01*
D52*
%TO.N,Net-(D6-K)*%
X122896342Y-103505000D02*
X122398500Y-103007158D01*
D55*
X120547000Y-103243500D02*
X121683500Y-103243500D01*
D52*
X123628445Y-103505000D02*
X122896342Y-103505000D01*
D55*
X121683500Y-103243500D02*
X122398500Y-102528500D01*
X120445500Y-103345000D02*
X120547000Y-103243500D01*
X120445500Y-103576000D02*
X120445500Y-103345000D01*
D52*
X122398500Y-103007158D02*
X122398500Y-102528500D01*
X124087000Y-103963555D02*
X123628445Y-103505000D01*
%TO.N,Net-(D7-K)*%
X122398500Y-105812408D02*
X122398500Y-105333750D01*
X122885092Y-106299000D02*
X122398500Y-105812408D01*
D55*
X120526000Y-106037500D02*
X121694750Y-106037500D01*
X121694750Y-106037500D02*
X122398500Y-105333750D01*
X120445500Y-106370000D02*
X120445500Y-106118000D01*
X120445500Y-106118000D02*
X120526000Y-106037500D01*
D52*
X123572223Y-106299000D02*
X122885092Y-106299000D01*
X124087000Y-106813777D02*
X123572223Y-106299000D01*
%TO.N,Net-(D8-K)*%
X122398500Y-108617658D02*
X122398500Y-108139000D01*
X123516000Y-109093000D02*
X122873842Y-109093000D01*
D55*
X120445500Y-109164000D02*
X120445500Y-108912000D01*
D52*
X122873842Y-109093000D02*
X122398500Y-108617658D01*
X124087000Y-109664000D02*
X123516000Y-109093000D01*
D55*
X121706000Y-108831500D02*
X122398500Y-108139000D01*
X120445500Y-108912000D02*
X120526000Y-108831500D01*
X120526000Y-108831500D02*
X121706000Y-108831500D01*
D53*
%TO.N,Net-(D11-K)*%
X145940632Y-119126000D02*
X145980632Y-119166000D01*
X148003904Y-118999000D02*
X149650176Y-118999000D01*
X144107500Y-119362500D02*
X144125000Y-119380000D01*
X147836904Y-119166000D02*
X148003904Y-118999000D01*
X149663176Y-118986000D02*
X151136948Y-118986000D01*
X144379000Y-119126000D02*
X145940632Y-119126000D01*
X147836904Y-119166000D02*
X145980632Y-119166000D01*
X144125000Y-119380000D02*
X144379000Y-119126000D01*
X151136948Y-118986000D02*
X151229448Y-118893500D01*
X149650176Y-118999000D02*
X149663176Y-118986000D01*
X144107500Y-117094000D02*
X144107500Y-119362500D01*
%TO.N,Net-(D11-A)*%
X142912500Y-118092500D02*
X141625000Y-119380000D01*
X142912500Y-117094000D02*
X142912500Y-118092500D01*
X141224000Y-116332000D02*
X142582000Y-116332000D01*
X142912500Y-116662500D02*
X142912500Y-117094000D01*
X142582000Y-116332000D02*
X142912500Y-116662500D01*
%TO.N,Net-(U3-L)*%
X149467000Y-113792000D02*
X148045500Y-113792000D01*
X148045500Y-113792000D02*
X146939000Y-112685500D01*
%TO.N,/BQ76920/DSG*%
X135480000Y-116090000D02*
X136737000Y-116090000D01*
X134319272Y-119166000D02*
X134319272Y-117250728D01*
X134319272Y-117250728D02*
X135480000Y-116090000D01*
X132723000Y-118893500D02*
X134046772Y-118893500D01*
X134046772Y-118893500D02*
X134319272Y-119166000D01*
X134319272Y-119166000D02*
X136175544Y-119166000D01*
%TO.N,Net-(Q7-G)*%
X136186333Y-120926789D02*
X136175544Y-120916000D01*
X136186333Y-123165000D02*
X136186333Y-120926789D01*
%TO.N,Net-(Q6-G)*%
X130175000Y-121666000D02*
X130925000Y-120916000D01*
X130175000Y-123165000D02*
X130175000Y-121666000D01*
X130925000Y-120916000D02*
X134319272Y-120916000D01*
%TO.N,Net-(Q8-G)*%
X142197666Y-121962334D02*
X143256000Y-120904000D01*
X143256000Y-120904000D02*
X145968632Y-120904000D01*
X145968632Y-120904000D02*
X145980632Y-120916000D01*
X142197666Y-123165000D02*
X142197666Y-121962334D01*
%TO.N,Net-(Q9-G)*%
X148082000Y-123038000D02*
X148082000Y-121161096D01*
X148209000Y-123165000D02*
X148082000Y-123038000D01*
X148082000Y-121161096D02*
X147836904Y-120916000D01*
D52*
%TO.N,Net-(Q1-D)*%
X119601500Y-97338000D02*
X120620500Y-97338000D01*
X119276500Y-97663000D02*
X119601500Y-97338000D01*
%TO.N,Net-(Q2-D)*%
X119601500Y-100132000D02*
X120620500Y-100132000D01*
X119276500Y-100457000D02*
X119601500Y-100132000D01*
%TO.N,Net-(Q3-D)*%
X119276500Y-103251000D02*
X119601500Y-102926000D01*
X119601500Y-102926000D02*
X120620500Y-102926000D01*
%TO.N,Net-(Q4-D)*%
X119601500Y-105720000D02*
X120620500Y-105720000D01*
X119276500Y-106045000D02*
X119601500Y-105720000D01*
%TO.N,Net-(Q5-D)*%
X119276500Y-108839000D02*
X119601500Y-108514000D01*
X119601500Y-108514000D02*
X120620500Y-108514000D01*
D53*
%TO.N,/BQ76920/CHG*%
X138170000Y-116037798D02*
X138170000Y-116970000D01*
X137572202Y-115440000D02*
X138170000Y-116037798D01*
X138170000Y-116970000D02*
X138482000Y-117282000D01*
X136737000Y-115440000D02*
X137572202Y-115440000D01*
X138482000Y-117282000D02*
X139349000Y-117282000D01*
D52*
%TO.N,Net-(U1-PB2)*%
X147316000Y-110464500D02*
X147036500Y-110744000D01*
X147316000Y-109072500D02*
X147316000Y-110464500D01*
%TO.N,Net-(U1-BOOT0)*%
X145816000Y-100747500D02*
X145816000Y-99982974D01*
X143210500Y-98298000D02*
X143091500Y-98179000D01*
X144131026Y-98298000D02*
X143210500Y-98298000D01*
X145816000Y-99982974D02*
X144131026Y-98298000D01*
%TO.N,Net-(U1-VSSA)*%
X140809500Y-105660000D02*
X140043500Y-106426000D01*
X142403500Y-105660000D02*
X140809500Y-105660000D01*
D54*
%TO.N,/I2C1_SCL*%
X142740143Y-109929857D02*
X142785500Y-109975214D01*
X145416100Y-102608036D02*
X145316000Y-102507936D01*
X136737000Y-113490000D02*
X140261922Y-113490000D01*
X140261922Y-113490000D02*
X142785500Y-110966422D01*
X142785500Y-110966422D02*
X142785500Y-110744000D01*
X145316000Y-102507936D02*
X145316000Y-100747500D01*
X142785500Y-109975214D02*
X142785500Y-110744000D01*
%TO.N,/I2C1_SDA*%
X143383000Y-109805231D02*
X143383000Y-111416500D01*
X144680000Y-102610000D02*
X144830000Y-102460000D01*
X144830000Y-100761500D02*
X144816000Y-100747500D01*
X144830000Y-102460000D02*
X144830000Y-100761500D01*
X140659500Y-114140000D02*
X142785500Y-112014000D01*
X142772223Y-109194454D02*
X143383000Y-109805231D01*
X143383000Y-111416500D02*
X142785500Y-112014000D01*
X136737000Y-114140000D02*
X140659500Y-114140000D01*
D56*
%TO.N,/CAN_N*%
X156957500Y-109097500D02*
X156920000Y-109097500D01*
X154559000Y-106622000D02*
X154559000Y-107042000D01*
X158701000Y-109000000D02*
X158101000Y-109000000D01*
X157388757Y-108666243D02*
X156957500Y-109097500D01*
X157767243Y-108666243D02*
X157388757Y-108666243D01*
X155952492Y-108666243D02*
X156383749Y-109097500D01*
X155581139Y-108666243D02*
X155952492Y-108666243D01*
X154717757Y-107802861D02*
X155581139Y-108666243D01*
X154559000Y-107042000D02*
X154717757Y-107200757D01*
X156383749Y-109097500D02*
X156920000Y-109097500D01*
X158101000Y-109000000D02*
X157767243Y-108666243D01*
X154717757Y-107200757D02*
X154717757Y-107802861D01*
%TO.N,/CAN_P*%
X157388757Y-108333757D02*
X156957500Y-107902500D01*
X156383749Y-107902500D02*
X156920000Y-107902500D01*
X155050243Y-107200757D02*
X155050243Y-107665139D01*
X155641282Y-107892381D02*
X155641282Y-107892380D01*
X155549993Y-108164889D02*
X155718861Y-108333757D01*
X155368773Y-107802447D02*
X155368774Y-107802449D01*
X155952492Y-108333757D02*
X156383749Y-107902500D01*
X155209000Y-107042000D02*
X155050243Y-107200757D01*
X155050243Y-107665139D02*
X155187552Y-107802448D01*
X155209000Y-106622000D02*
X155209000Y-107042000D01*
X156957500Y-107902500D02*
X156920000Y-107902500D01*
X155549995Y-108164890D02*
X155549993Y-108164889D01*
X158101000Y-108000000D02*
X157767243Y-108333757D01*
X155641282Y-107711160D02*
X155641283Y-107711160D01*
X158701000Y-108000000D02*
X158101000Y-108000000D01*
X155718861Y-108333757D02*
X155952492Y-108333757D01*
X157767243Y-108333757D02*
X157388757Y-108333757D01*
X155641282Y-107892380D02*
X155549994Y-107983669D01*
X155368774Y-107802449D02*
X155460061Y-107711159D01*
X155641283Y-107711160D02*
G75*
G02*
X155641312Y-107892411I-90583J-90640D01*
G01*
X155549994Y-107983669D02*
G75*
G03*
X155549974Y-108164911I90606J-90631D01*
G01*
X155187552Y-107802448D02*
G75*
G03*
X155368811Y-107802485I90648J90648D01*
G01*
X155460061Y-107711159D02*
G75*
G02*
X155641311Y-107711131I90639J-90641D01*
G01*
D52*
%TO.N,/LED_A*%
X133950000Y-101740000D02*
X132952500Y-101740000D01*
X142403500Y-103160000D02*
X142452300Y-103111200D01*
X142452300Y-103111200D02*
X143618577Y-103111200D01*
X143618577Y-103111200D02*
X143799667Y-102930110D01*
X132952500Y-101740000D02*
X132931500Y-101719000D01*
%TO.N,/LED_B*%
X133760000Y-104340784D02*
X133010084Y-104340784D01*
X143740000Y-103660000D02*
X143750000Y-103670000D01*
X142403500Y-103660000D02*
X143740000Y-103660000D01*
X133010084Y-104340784D02*
X132931500Y-104262200D01*
D54*
%TO.N,Net-(U4-TS1)*%
X135128000Y-112776000D02*
X135192000Y-112840000D01*
X135150000Y-106426000D02*
X135965000Y-106426000D01*
X135192000Y-112840000D02*
X136737000Y-112840000D01*
X135965000Y-105156000D02*
X135965000Y-106426000D01*
%TO.N,Net-(R29-Pad1)*%
X137160000Y-105156000D02*
X136636800Y-104632800D01*
X130040200Y-102970200D02*
X130040200Y-99140200D01*
X126920000Y-96020000D02*
X119590000Y-96020000D01*
X119048000Y-95478000D02*
X119048000Y-93726000D01*
X134016579Y-103620000D02*
X130690000Y-103620000D01*
X136636800Y-104632800D02*
X135029379Y-104632800D01*
X119590000Y-96020000D02*
X119048000Y-95478000D01*
X135029379Y-104632800D02*
X134016579Y-103620000D01*
X130040200Y-99140200D02*
X126920000Y-96020000D01*
X130690000Y-103620000D02*
X130040200Y-102970200D01*
D52*
%TO.N,/KEY_A*%
X148370000Y-105160000D02*
X150728500Y-105160000D01*
X148290000Y-105240000D02*
X148370000Y-105160000D01*
D54*
X124919000Y-93726000D02*
X124919000Y-95222100D01*
X124919000Y-95222100D02*
X124930000Y-95233100D01*
%TO.N,/HSE_IN*%
X141097000Y-102007000D02*
X141097000Y-103708948D01*
X141548052Y-104160000D02*
X142403500Y-104160000D01*
X139454000Y-101424000D02*
X140514000Y-101424000D01*
X140514000Y-101424000D02*
X141097000Y-102007000D01*
X141097000Y-103708948D02*
X141548052Y-104160000D01*
%TO.N,/HSE_OUT*%
X141617000Y-104660000D02*
X140781000Y-103824000D01*
X140781000Y-103824000D02*
X139454000Y-103824000D01*
X142403500Y-104660000D02*
X141617000Y-104660000D01*
%TO.N,/CAN_STB*%
X155859000Y-106919000D02*
X155859000Y-106622000D01*
X156001000Y-107061000D02*
X155859000Y-106919000D01*
X156464000Y-106934000D02*
X156337000Y-107061000D01*
X152037910Y-104660000D02*
X150728500Y-104660000D01*
X156337000Y-107061000D02*
X156001000Y-107061000D01*
X152042699Y-104655211D02*
X152037910Y-104660000D01*
%TO.N,/CAN_RX*%
X150728500Y-104160000D02*
X150741289Y-104147211D01*
X152138789Y-104147211D02*
X153162000Y-103124000D01*
X150741289Y-104147211D02*
X152138789Y-104147211D01*
X153909000Y-103363000D02*
X153909000Y-103632000D01*
X153162000Y-103124000D02*
X153670000Y-103124000D01*
X153670000Y-103124000D02*
X153909000Y-103363000D01*
%TO.N,/CAN_TX*%
X152041393Y-103526893D02*
X151908286Y-103660000D01*
X156386960Y-103122302D02*
X156368698Y-103122302D01*
X151908286Y-103660000D02*
X150728500Y-103660000D01*
X156368698Y-103122302D02*
X155859000Y-103632000D01*
%TO.N,/I2C2_SCL*%
X139692000Y-98488000D02*
X139690000Y-98490000D01*
X146550404Y-107128358D02*
X146923226Y-107128358D01*
X139692000Y-97077000D02*
X139692000Y-98488000D01*
X147816000Y-108021132D02*
X147816000Y-109072500D01*
X146923226Y-107128358D02*
X147816000Y-108021132D01*
%TO.N,/I2C2_SDA*%
X146561391Y-106392338D02*
X146582338Y-106392338D01*
X140692000Y-98472000D02*
X140692000Y-97077000D01*
X148316000Y-108126000D02*
X148316000Y-109072500D01*
X146582338Y-106392338D02*
X148316000Y-108126000D01*
X140700000Y-98480000D02*
X140692000Y-98472000D01*
%TD*%
%TA.AperFunction,Conductor*%
%TO.N,PACK-*%
G36*
X145261619Y-121769685D02*
G01*
X145282261Y-121786319D01*
X145282282Y-121786340D01*
X145429116Y-121876908D01*
X145592879Y-121931174D01*
X145693955Y-121941500D01*
X146267308Y-121941499D01*
X146363399Y-121931683D01*
X146432091Y-121944453D01*
X146482975Y-121992333D01*
X146500000Y-122055041D01*
X146500000Y-123876000D01*
X146480315Y-123943039D01*
X146427511Y-123988794D01*
X146376000Y-124000000D01*
X143195969Y-124000000D01*
X143128930Y-123980315D01*
X143083175Y-123927511D01*
X143073241Y-123866221D01*
X143072730Y-123866194D01*
X143072666Y-123866194D01*
X143072665Y-123866190D01*
X143072488Y-123866181D01*
X143072663Y-123862900D01*
X143072666Y-123862873D01*
X143072665Y-122467128D01*
X143066257Y-122407517D01*
X143027073Y-122302461D01*
X143022090Y-122232771D01*
X143055573Y-122171450D01*
X143440705Y-121786319D01*
X143502028Y-121752834D01*
X143528386Y-121750000D01*
X145194580Y-121750000D01*
X145261619Y-121769685D01*
G37*
%TD.AperFunction*%
%TD*%
%TA.AperFunction,Conductor*%
%TO.N,Net-(C25-Pad1)*%
G36*
X133600259Y-121769685D02*
G01*
X133620901Y-121786319D01*
X133620922Y-121786340D01*
X133767756Y-121876908D01*
X133931519Y-121931174D01*
X134032595Y-121941500D01*
X134376001Y-121941499D01*
X134443039Y-121961183D01*
X134488794Y-122013987D01*
X134500000Y-122065499D01*
X134500000Y-123876000D01*
X134480315Y-123943039D01*
X134427511Y-123988794D01*
X134376000Y-124000000D01*
X131173303Y-124000000D01*
X131106264Y-123980315D01*
X131060509Y-123927511D01*
X131050575Y-123866221D01*
X131050064Y-123866194D01*
X131050000Y-123866194D01*
X131049999Y-123866190D01*
X131049822Y-123866181D01*
X131049997Y-123862900D01*
X131050000Y-123862873D01*
X131049999Y-122467128D01*
X131043591Y-122407517D01*
X131007818Y-122311604D01*
X131000000Y-122268271D01*
X131000000Y-121959386D01*
X131019685Y-121892347D01*
X131036319Y-121871705D01*
X131121705Y-121786319D01*
X131183028Y-121752834D01*
X131209386Y-121750000D01*
X133533220Y-121750000D01*
X133600259Y-121769685D01*
G37*
%TD.AperFunction*%
%TD*%
%TA.AperFunction,Conductor*%
%TO.N,PACK-*%
G36*
X163443039Y-116519685D02*
G01*
X163488794Y-116572489D01*
X163500000Y-116624000D01*
X163500000Y-122376000D01*
X163480315Y-122443039D01*
X163427511Y-122488794D01*
X163376000Y-122500000D01*
X154294500Y-122500000D01*
X154227461Y-122480315D01*
X154181706Y-122427511D01*
X154170500Y-122376000D01*
X154170500Y-121574226D01*
X154170501Y-121574205D01*
X154170501Y-121419465D01*
X154141506Y-121273706D01*
X154141505Y-121273705D01*
X154141505Y-121273701D01*
X154084630Y-121136391D01*
X154020897Y-121041007D01*
X154000020Y-120974330D01*
X154000000Y-120972117D01*
X154000000Y-118624000D01*
X154019685Y-118556961D01*
X154072489Y-118511206D01*
X154124000Y-118500000D01*
X155500000Y-118500000D01*
X155500000Y-118193052D01*
X155519685Y-118126013D01*
X155536319Y-118105371D01*
X155541722Y-118099968D01*
X155595340Y-118046350D01*
X155685908Y-117899516D01*
X155740174Y-117735753D01*
X155750500Y-117634677D01*
X155750499Y-117061324D01*
X155740174Y-116960247D01*
X155685908Y-116796484D01*
X155619670Y-116689096D01*
X155601231Y-116621704D01*
X155622154Y-116555041D01*
X155675796Y-116510271D01*
X155725210Y-116500000D01*
X163376000Y-116500000D01*
X163443039Y-116519685D01*
G37*
%TD.AperFunction*%
%TD*%
%TA.AperFunction,Conductor*%
%TO.N,Net-(C25-Pad1)*%
G36*
X139169075Y-121769685D02*
G01*
X139189717Y-121786319D01*
X139189738Y-121786340D01*
X139336572Y-121876908D01*
X139500335Y-121931174D01*
X139601411Y-121941500D01*
X140174764Y-121941499D01*
X140174772Y-121941498D01*
X140174775Y-121941498D01*
X140230118Y-121935844D01*
X140275841Y-121931174D01*
X140336996Y-121910908D01*
X140406824Y-121908507D01*
X140466866Y-121944238D01*
X140498059Y-122006759D01*
X140500000Y-122028615D01*
X140500000Y-123876000D01*
X140480315Y-123943039D01*
X140427511Y-123988794D01*
X140376000Y-124000000D01*
X137184636Y-124000000D01*
X137117597Y-123980315D01*
X137071842Y-123927511D01*
X137061908Y-123866221D01*
X137061397Y-123866194D01*
X137061333Y-123866194D01*
X137061332Y-123866190D01*
X137061155Y-123866181D01*
X137061330Y-123862900D01*
X137061333Y-123862873D01*
X137061332Y-122467128D01*
X137054924Y-122407517D01*
X137007818Y-122281218D01*
X137000000Y-122237885D01*
X137000000Y-121874000D01*
X137019685Y-121806961D01*
X137072489Y-121761206D01*
X137124000Y-121750000D01*
X139102036Y-121750000D01*
X139169075Y-121769685D01*
G37*
%TD.AperFunction*%
%TD*%
%TA.AperFunction,Conductor*%
%TO.N,PACK-*%
G36*
X152106707Y-121769685D02*
G01*
X152127349Y-121786319D01*
X152127370Y-121786340D01*
X152274204Y-121876908D01*
X152415006Y-121923565D01*
X152472449Y-121963337D01*
X152499272Y-122027852D01*
X152500000Y-122041270D01*
X152500000Y-123876000D01*
X152480315Y-123943039D01*
X152427511Y-123988794D01*
X152376000Y-124000000D01*
X149207303Y-124000000D01*
X149140264Y-123980315D01*
X149094509Y-123927511D01*
X149084575Y-123866221D01*
X149084064Y-123866194D01*
X149084000Y-123866194D01*
X149083999Y-123866190D01*
X149083822Y-123866181D01*
X149083997Y-123862900D01*
X149084000Y-123862873D01*
X149083999Y-122467128D01*
X149077591Y-122407517D01*
X149027296Y-122272669D01*
X149027294Y-122272665D01*
X149024732Y-122269243D01*
X149023238Y-122265238D01*
X149023046Y-122264886D01*
X149023096Y-122264858D01*
X149000316Y-122203779D01*
X149000000Y-122194934D01*
X149000000Y-121874000D01*
X149019685Y-121806961D01*
X149072489Y-121761206D01*
X149124000Y-121750000D01*
X152039668Y-121750000D01*
X152106707Y-121769685D01*
G37*
%TD.AperFunction*%
%TD*%
%TA.AperFunction,Conductor*%
%TO.N,Net-(C25-Pad1)*%
G36*
X127040088Y-116502263D02*
G01*
X127219136Y-116536943D01*
X127231549Y-116540018D01*
X127268360Y-116551185D01*
X127310298Y-116563908D01*
X127324106Y-116565267D01*
X127415868Y-116574305D01*
X127421421Y-116574980D01*
X127445432Y-116578460D01*
X127447634Y-116578673D01*
X127453306Y-116578648D01*
X127466008Y-116579243D01*
X127508000Y-116583380D01*
X127705701Y-116563908D01*
X127895804Y-116506241D01*
X127895805Y-116506239D01*
X127898776Y-116505339D01*
X127934771Y-116500000D01*
X128876000Y-116500000D01*
X128943039Y-116519685D01*
X128988794Y-116572489D01*
X129000000Y-116624000D01*
X129000000Y-124576877D01*
X128998738Y-124594523D01*
X128994500Y-124623998D01*
X128994500Y-129876000D01*
X128974815Y-129943039D01*
X128922011Y-129988794D01*
X128870500Y-130000000D01*
X126124000Y-130000000D01*
X126056961Y-129980315D01*
X126011206Y-129927511D01*
X126000000Y-129876000D01*
X126000000Y-116624000D01*
X126019685Y-116556961D01*
X126072489Y-116511206D01*
X126124000Y-116500000D01*
X127016509Y-116500000D01*
X127040088Y-116502263D01*
G37*
%TD.AperFunction*%
%TD*%
%TA.AperFunction,Conductor*%
%TO.N,PACK+*%
G36*
X119443039Y-123519685D02*
G01*
X119488794Y-123572489D01*
X119500000Y-123624000D01*
X119500000Y-129876000D01*
X119480315Y-129943039D01*
X119427511Y-129988794D01*
X119376000Y-130000000D01*
X112500987Y-130000000D01*
X112498960Y-129999983D01*
X112343428Y-129997440D01*
X112329270Y-129996396D01*
X112019812Y-129955655D01*
X112003903Y-129952491D01*
X111703387Y-129871967D01*
X111688028Y-129866753D01*
X111400599Y-129747696D01*
X111386052Y-129740522D01*
X111116622Y-129584967D01*
X111103136Y-129575956D01*
X110856313Y-129386562D01*
X110844118Y-129375867D01*
X110624132Y-129155881D01*
X110613437Y-129143686D01*
X110424043Y-128896863D01*
X110415032Y-128883377D01*
X110259477Y-128613947D01*
X110252303Y-128599400D01*
X110133246Y-128311971D01*
X110128032Y-128296612D01*
X110112921Y-128240218D01*
X110047506Y-127996087D01*
X110044345Y-127980196D01*
X110003602Y-127670718D01*
X110002559Y-127656582D01*
X110000017Y-127501038D01*
X110000000Y-127499012D01*
X110000000Y-123624000D01*
X110019685Y-123556961D01*
X110072489Y-123511206D01*
X110124000Y-123500000D01*
X119376000Y-123500000D01*
X119443039Y-123519685D01*
G37*
%TD.AperFunction*%
%TD*%
%TA.AperFunction,Conductor*%
%TO.N,PACK+*%
G36*
X163443039Y-123019685D02*
G01*
X163488794Y-123072489D01*
X163500000Y-123124000D01*
X163500000Y-127499012D01*
X163499983Y-127501039D01*
X163497440Y-127656571D01*
X163496396Y-127670729D01*
X163455655Y-127980187D01*
X163452491Y-127996096D01*
X163371967Y-128296612D01*
X163366753Y-128311971D01*
X163247696Y-128599400D01*
X163240522Y-128613947D01*
X163084967Y-128883377D01*
X163075956Y-128896863D01*
X162886562Y-129143686D01*
X162875867Y-129155881D01*
X162655881Y-129375867D01*
X162643686Y-129386562D01*
X162396863Y-129575956D01*
X162383377Y-129584967D01*
X162113947Y-129740522D01*
X162099400Y-129747696D01*
X161811971Y-129866753D01*
X161796612Y-129871967D01*
X161496096Y-129952491D01*
X161480187Y-129955655D01*
X161170729Y-129996396D01*
X161156571Y-129997440D01*
X161001040Y-129999983D01*
X160999013Y-130000000D01*
X154124000Y-130000000D01*
X154056961Y-129980315D01*
X154011206Y-129927511D01*
X154000000Y-129876000D01*
X154000000Y-123124000D01*
X154019685Y-123056961D01*
X154072489Y-123011206D01*
X154124000Y-123000000D01*
X163376000Y-123000000D01*
X163443039Y-123019685D01*
G37*
%TD.AperFunction*%
%TD*%
%TA.AperFunction,Conductor*%
%TO.N,Net-(Q6-D-Pad5)*%
G36*
X131143826Y-124501262D02*
G01*
X131146953Y-124501711D01*
X131173303Y-124505500D01*
X131173306Y-124505500D01*
X134375990Y-124505500D01*
X134376000Y-124505500D01*
X134420543Y-124500710D01*
X134433798Y-124500000D01*
X143148846Y-124500000D01*
X143166492Y-124501262D01*
X143169619Y-124501711D01*
X143195969Y-124505500D01*
X143195972Y-124505500D01*
X146375990Y-124505500D01*
X146376000Y-124505500D01*
X146420543Y-124500710D01*
X146433798Y-124500000D01*
X149160180Y-124500000D01*
X149177826Y-124501262D01*
X149180953Y-124501711D01*
X149207303Y-124505500D01*
X149207306Y-124505500D01*
X152375990Y-124505500D01*
X152376000Y-124505500D01*
X152420543Y-124500710D01*
X152433798Y-124500000D01*
X152876000Y-124500000D01*
X152943039Y-124519685D01*
X152988794Y-124572489D01*
X153000000Y-124624000D01*
X153000000Y-129876000D01*
X152980315Y-129943039D01*
X152927511Y-129988794D01*
X152876000Y-130000000D01*
X129624000Y-130000000D01*
X129556961Y-129980315D01*
X129511206Y-129927511D01*
X129500000Y-129876000D01*
X129500000Y-124624000D01*
X129519685Y-124556961D01*
X129572489Y-124511206D01*
X129624000Y-124500000D01*
X131126180Y-124500000D01*
X131143826Y-124501262D01*
G37*
%TD.AperFunction*%
%TD*%
%TA.AperFunction,Conductor*%
%TO.N,-BATT*%
G36*
X121529224Y-116505339D02*
G01*
X121532193Y-116506239D01*
X121532196Y-116506241D01*
X121722299Y-116563908D01*
X121722298Y-116563908D01*
X121740024Y-116565653D01*
X121920000Y-116583380D01*
X122117701Y-116563908D01*
X122196455Y-116540017D01*
X122208864Y-116536943D01*
X122387912Y-116502263D01*
X122411491Y-116500000D01*
X123376000Y-116500000D01*
X123443039Y-116519685D01*
X123488794Y-116572489D01*
X123500000Y-116624000D01*
X123500000Y-129876000D01*
X123480315Y-129943039D01*
X123427511Y-129988794D01*
X123376000Y-130000000D01*
X120129500Y-130000000D01*
X120062461Y-129980315D01*
X120016706Y-129927511D01*
X120005500Y-129876000D01*
X120005500Y-123624010D01*
X120005500Y-123624000D01*
X120000710Y-123579446D01*
X120000000Y-123566193D01*
X120000000Y-123000000D01*
X119423123Y-123000000D01*
X119405477Y-122998738D01*
X119376001Y-122994500D01*
X119376000Y-122994500D01*
X110124000Y-122994500D01*
X110056961Y-122974815D01*
X110011206Y-122922011D01*
X110000000Y-122870500D01*
X110000000Y-116624000D01*
X110019685Y-116556961D01*
X110072489Y-116511206D01*
X110124000Y-116500000D01*
X121493229Y-116500000D01*
X121529224Y-116505339D01*
G37*
%TD.AperFunction*%
%TD*%
%TA.AperFunction,Conductor*%
%TO.N,+3.3V*%
G36*
X152653680Y-106962827D02*
G01*
X152656571Y-106967599D01*
X152805404Y-107442174D01*
X152804610Y-107451093D01*
X152798750Y-107456471D01*
X152531510Y-107568115D01*
X152522555Y-107568142D01*
X152522490Y-107568115D01*
X152255249Y-107456471D01*
X152248936Y-107450120D01*
X152248595Y-107442176D01*
X152397429Y-106967599D01*
X152403175Y-106960730D01*
X152408593Y-106959400D01*
X152645407Y-106959400D01*
X152653680Y-106962827D01*
G37*
%TD.AperFunction*%
%TD*%
%TA.AperFunction,Conductor*%
%TO.N,+3.3V*%
G36*
X137991957Y-95749957D02*
G01*
X138000217Y-95753411D01*
X138003617Y-95761695D01*
X138003563Y-95762783D01*
X137947023Y-96347435D01*
X137942815Y-96355340D01*
X137935377Y-96358009D01*
X137448905Y-96358009D01*
X137440632Y-96354582D01*
X137437234Y-96347131D01*
X137396078Y-95762478D01*
X137398915Y-95753986D01*
X137406927Y-95749987D01*
X137407682Y-95749959D01*
X137700000Y-95749000D01*
X137991957Y-95749957D01*
G37*
%TD.AperFunction*%
%TD*%
%TA.AperFunction,Conductor*%
%TO.N,+3.3V*%
G36*
X154554999Y-115148924D02*
G01*
X154559011Y-115156930D01*
X154559041Y-115157732D01*
X154560000Y-115450000D01*
X154560000Y-115450076D01*
X154559042Y-115741976D01*
X154555588Y-115750238D01*
X154547304Y-115753638D01*
X154546235Y-115753586D01*
X153961385Y-115698006D01*
X153953473Y-115693811D01*
X153950792Y-115686358D01*
X153950792Y-115199887D01*
X153954219Y-115191614D01*
X153961649Y-115188218D01*
X154546501Y-115146100D01*
X154554999Y-115148924D01*
G37*
%TD.AperFunction*%
%TD*%
%TA.AperFunction,Conductor*%
%TO.N,+3.3V*%
G36*
X153919378Y-115214423D02*
G01*
X153923892Y-115222156D01*
X153924000Y-115223739D01*
X153924000Y-115678275D01*
X153920573Y-115686548D01*
X153912300Y-115689975D01*
X153907171Y-115688791D01*
X153655209Y-115565889D01*
X153649275Y-115559182D01*
X153649822Y-115550244D01*
X153651017Y-115548301D01*
X153902984Y-115216660D01*
X153910717Y-115212147D01*
X153919378Y-115214423D01*
G37*
%TD.AperFunction*%
%TD*%
%TA.AperFunction,Conductor*%
%TO.N,+3.3V*%
G36*
X153301617Y-115139251D02*
G01*
X153887872Y-115188106D01*
X153895832Y-115192208D01*
X153898600Y-115199766D01*
X153898600Y-115686234D01*
X153895173Y-115694507D01*
X153887872Y-115697894D01*
X153301630Y-115746747D01*
X153293100Y-115744019D01*
X153288998Y-115736059D01*
X153288958Y-115735125D01*
X153288000Y-115443076D01*
X153288000Y-115443000D01*
X153288798Y-115199766D01*
X153288958Y-115150872D01*
X153292412Y-115142612D01*
X153300696Y-115139212D01*
X153301617Y-115139251D01*
G37*
%TD.AperFunction*%
%TD*%
%TA.AperFunction,Conductor*%
%TO.N,+3.3V*%
G36*
X150432910Y-100623631D02*
G01*
X150433689Y-100624495D01*
X150708447Y-100961773D01*
X150711076Y-100969162D01*
X150711076Y-101205170D01*
X150707649Y-101213443D01*
X150699376Y-101216870D01*
X150697437Y-101216708D01*
X150219728Y-101136434D01*
X150212137Y-101131684D01*
X150209967Y-101124935D01*
X150209016Y-100834882D01*
X150212415Y-100826600D01*
X150416365Y-100623592D01*
X150424645Y-100620185D01*
X150432910Y-100623631D01*
G37*
%TD.AperFunction*%
%TD*%
%TA.AperFunction,Conductor*%
%TO.N,+3.3V*%
G36*
X144861695Y-95759957D02*
G01*
X144869957Y-95763411D01*
X144873357Y-95771695D01*
X144873278Y-95773016D01*
X144805209Y-96355281D01*
X144800845Y-96363100D01*
X144793588Y-96365622D01*
X144307120Y-96365622D01*
X144298847Y-96362195D01*
X144295435Y-96354516D01*
X144265823Y-95772253D01*
X144268825Y-95763817D01*
X144276914Y-95759974D01*
X144277438Y-95759959D01*
X144570000Y-95759000D01*
X144861695Y-95759957D01*
G37*
%TD.AperFunction*%
%TD*%
%TA.AperFunction,Conductor*%
%TO.N,+3.3V*%
G36*
X149327137Y-113012092D02*
G01*
X149333595Y-113018295D01*
X149334578Y-113022989D01*
X149334578Y-113259824D01*
X149331151Y-113268097D01*
X149325668Y-113271187D01*
X148858367Y-113385910D01*
X148849515Y-113384554D01*
X148844781Y-113379057D01*
X148732884Y-113111210D01*
X148732857Y-113102255D01*
X148732884Y-113102190D01*
X148844235Y-112835649D01*
X148850586Y-112829337D01*
X148859290Y-112829263D01*
X149327137Y-113012092D01*
G37*
%TD.AperFunction*%
%TD*%
%TA.AperFunction,Conductor*%
%TO.N,+3.3V*%
G36*
X144309304Y-111378955D02*
G01*
X144317565Y-111382409D01*
X144320965Y-111390693D01*
X144320841Y-111392353D01*
X144235967Y-111971139D01*
X144231376Y-111978827D01*
X144224391Y-111981141D01*
X143737944Y-111981141D01*
X143729671Y-111977714D01*
X143726247Y-111969699D01*
X143713463Y-111390918D01*
X143716706Y-111382572D01*
X143724902Y-111378963D01*
X143725036Y-111378961D01*
X144018000Y-111378000D01*
X144309304Y-111378955D01*
G37*
%TD.AperFunction*%
%TD*%
%TA.AperFunction,Conductor*%
%TO.N,+3.3V*%
G36*
X139125724Y-110903061D02*
G01*
X139129151Y-110911334D01*
X139126895Y-110918240D01*
X138683567Y-111524528D01*
X138675918Y-111529183D01*
X138667217Y-111527066D01*
X138665869Y-111525914D01*
X138461665Y-111322657D01*
X138459104Y-111318829D01*
X138347578Y-111048627D01*
X138347589Y-111039672D01*
X138353329Y-111033616D01*
X138593732Y-110918240D01*
X138630100Y-110900786D01*
X138635162Y-110899634D01*
X139117451Y-110899634D01*
X139125724Y-110903061D01*
G37*
%TD.AperFunction*%
%TD*%
%TA.AperFunction,Conductor*%
%TO.N,+3.3V*%
G36*
X138682790Y-110652919D02*
G01*
X138684117Y-110654054D01*
X138890707Y-110859293D01*
X138890761Y-110859347D01*
X139097182Y-111067127D01*
X139100582Y-111075411D01*
X139097128Y-111083673D01*
X139097029Y-111083770D01*
X138682192Y-111486264D01*
X138673868Y-111489566D01*
X138665772Y-111486140D01*
X138321808Y-111142176D01*
X138318381Y-111133903D01*
X138320645Y-111126986D01*
X138666436Y-110655434D01*
X138674092Y-110650790D01*
X138682790Y-110652919D01*
G37*
%TD.AperFunction*%
%TD*%
%TA.AperFunction,Conductor*%
%TO.N,+3.3V*%
G36*
X138347795Y-111049422D02*
G01*
X138348664Y-111051104D01*
X138461000Y-111320000D01*
X138461027Y-111320065D01*
X138571761Y-111589713D01*
X138571734Y-111598668D01*
X138565383Y-111604981D01*
X138564354Y-111605348D01*
X137961486Y-111789385D01*
X137952573Y-111788523D01*
X137946880Y-111781611D01*
X137946370Y-111778195D01*
X137946370Y-111292491D01*
X137949797Y-111284218D01*
X137951873Y-111282567D01*
X138331678Y-111045686D01*
X138340510Y-111044216D01*
X138347795Y-111049422D01*
G37*
%TD.AperFunction*%
%TD*%
%TA.AperFunction,Conductor*%
%TO.N,+3.3V*%
G36*
X135140617Y-103709251D02*
G01*
X135726872Y-103758106D01*
X135734832Y-103762208D01*
X135737600Y-103769766D01*
X135737600Y-104256234D01*
X135734173Y-104264507D01*
X135726872Y-104267894D01*
X135140630Y-104316747D01*
X135132100Y-104314019D01*
X135127998Y-104306059D01*
X135127958Y-104305125D01*
X135127000Y-104013076D01*
X135127000Y-104013000D01*
X135127798Y-103769766D01*
X135127958Y-103720872D01*
X135131412Y-103712612D01*
X135139696Y-103709212D01*
X135140617Y-103709251D01*
G37*
%TD.AperFunction*%
%TD*%
%TA.AperFunction,Conductor*%
%TO.N,+3.3V*%
G36*
X144232664Y-110780286D02*
G01*
X144235967Y-110786861D01*
X144320841Y-111365646D01*
X144318651Y-111374329D01*
X144310963Y-111378920D01*
X144309303Y-111379044D01*
X144018038Y-111379999D01*
X144017962Y-111379999D01*
X143725122Y-111379039D01*
X143716860Y-111375585D01*
X143713460Y-111367301D01*
X143713463Y-111367081D01*
X143726247Y-110788301D01*
X143729856Y-110780105D01*
X143737944Y-110776859D01*
X144224391Y-110776859D01*
X144232664Y-110780286D01*
G37*
%TD.AperFunction*%
%TD*%
%TA.AperFunction,Conductor*%
%TO.N,+3.3V*%
G36*
X143012565Y-99463715D02*
G01*
X143289706Y-99645254D01*
X143408559Y-99723107D01*
X143413602Y-99730507D01*
X143412971Y-99737339D01*
X143302563Y-100006185D01*
X143296250Y-100012536D01*
X143296185Y-100012563D01*
X143029364Y-100122140D01*
X143020409Y-100122113D01*
X143014096Y-100115762D01*
X143014040Y-100115624D01*
X142970716Y-100006185D01*
X142827832Y-99645252D01*
X142827973Y-99636300D01*
X142830435Y-99632677D01*
X142997883Y-99465229D01*
X143006155Y-99461803D01*
X143012565Y-99463715D01*
G37*
%TD.AperFunction*%
%TD*%
%TA.AperFunction,Conductor*%
%TO.N,+3.3V*%
G36*
X151752041Y-95619958D02*
G01*
X151760303Y-95623412D01*
X151763703Y-95631696D01*
X151763656Y-95632707D01*
X151710973Y-96218001D01*
X151710959Y-96218153D01*
X151706804Y-96226086D01*
X151699306Y-96228804D01*
X151212836Y-96228804D01*
X151204563Y-96225377D01*
X151201170Y-96218001D01*
X151156165Y-95632555D01*
X151158948Y-95624043D01*
X151166934Y-95619992D01*
X151167774Y-95619958D01*
X151460000Y-95619000D01*
X151752041Y-95619958D01*
G37*
%TD.AperFunction*%
%TD*%
%TA.AperFunction,Conductor*%
%TO.N,+3.3V*%
G36*
X133642047Y-105252422D02*
G01*
X133647502Y-105258322D01*
X133759115Y-105525490D01*
X133759142Y-105534445D01*
X133759115Y-105534510D01*
X133647444Y-105801815D01*
X133641093Y-105808128D01*
X133633221Y-105808492D01*
X133159429Y-105663334D01*
X133152522Y-105657634D01*
X133151156Y-105652147D01*
X133151156Y-105415325D01*
X133154583Y-105407052D01*
X133159272Y-105404188D01*
X133633124Y-105251695D01*
X133642047Y-105252422D01*
G37*
%TD.AperFunction*%
%TD*%
%TA.AperFunction,Conductor*%
%TO.N,+3.3V*%
G36*
X138061617Y-108662251D02*
G01*
X138647872Y-108711106D01*
X138655832Y-108715208D01*
X138658600Y-108722766D01*
X138658600Y-109209234D01*
X138655173Y-109217507D01*
X138647872Y-109220894D01*
X138061630Y-109269747D01*
X138053100Y-109267019D01*
X138048998Y-109259059D01*
X138048958Y-109258125D01*
X138048000Y-108966076D01*
X138048000Y-108966000D01*
X138048798Y-108722766D01*
X138048958Y-108673872D01*
X138052412Y-108665612D01*
X138060696Y-108662212D01*
X138061617Y-108662251D01*
G37*
%TD.AperFunction*%
%TD*%
%TA.AperFunction,Conductor*%
%TO.N,+3.3V*%
G36*
X133316058Y-108015560D02*
G01*
X133790462Y-108103433D01*
X133797973Y-108108309D01*
X133800031Y-108114899D01*
X133800983Y-108405116D01*
X133797583Y-108413400D01*
X133797537Y-108413446D01*
X133593790Y-108616252D01*
X133585509Y-108619660D01*
X133577244Y-108616214D01*
X133576343Y-108615197D01*
X133304744Y-108270184D01*
X133302237Y-108262947D01*
X133302237Y-108027065D01*
X133305664Y-108018792D01*
X133313937Y-108015365D01*
X133316058Y-108015560D01*
G37*
%TD.AperFunction*%
%TD*%
%TA.AperFunction,Conductor*%
%TO.N,+3.3V*%
G36*
X159875899Y-100218980D02*
G01*
X159880001Y-100226940D01*
X159880041Y-100227874D01*
X159881000Y-100520000D01*
X159881000Y-100520076D01*
X159880041Y-100812125D01*
X159876587Y-100820387D01*
X159868303Y-100823787D01*
X159867369Y-100823747D01*
X159281128Y-100774894D01*
X159273168Y-100770792D01*
X159270400Y-100763234D01*
X159270400Y-100276766D01*
X159273827Y-100268493D01*
X159281128Y-100265106D01*
X159867370Y-100216252D01*
X159875899Y-100218980D01*
G37*
%TD.AperFunction*%
%TD*%
%TA.AperFunction,Conductor*%
%TO.N,+3.3V*%
G36*
X150123093Y-110466389D02*
G01*
X150128471Y-110472249D01*
X150240115Y-110739490D01*
X150240142Y-110748445D01*
X150240115Y-110748510D01*
X150128471Y-111015750D01*
X150122120Y-111022063D01*
X150114174Y-111022404D01*
X149639599Y-110873571D01*
X149632730Y-110867825D01*
X149631400Y-110862407D01*
X149631400Y-110625592D01*
X149634827Y-110617319D01*
X149639596Y-110614429D01*
X150114176Y-110465595D01*
X150123093Y-110466389D01*
G37*
%TD.AperFunction*%
%TD*%
%TA.AperFunction,Conductor*%
%TO.N,+3.3V*%
G36*
X153081777Y-115235774D02*
G01*
X153082465Y-115236406D01*
X153289707Y-115442293D01*
X153289761Y-115442347D01*
X153495593Y-115649534D01*
X153498993Y-115657818D01*
X153495539Y-115666080D01*
X153494851Y-115666712D01*
X153045771Y-116046703D01*
X153037241Y-116049431D01*
X153029940Y-116046044D01*
X152685955Y-115702059D01*
X152682528Y-115693786D01*
X152685294Y-115686231D01*
X153065289Y-115237146D01*
X153073247Y-115233046D01*
X153081777Y-115235774D01*
G37*
%TD.AperFunction*%
%TD*%
%TA.AperFunction,Conductor*%
%TO.N,+3.3V*%
G36*
X139138070Y-110254523D02*
G01*
X139141451Y-110261757D01*
X139193667Y-110847302D01*
X139190988Y-110855847D01*
X139183052Y-110859995D01*
X139182051Y-110860041D01*
X138890038Y-110860999D01*
X138889962Y-110860999D01*
X138597803Y-110860041D01*
X138589541Y-110856587D01*
X138586141Y-110848303D01*
X138586176Y-110847435D01*
X138631662Y-110261890D01*
X138635719Y-110253907D01*
X138643327Y-110251096D01*
X139129797Y-110251096D01*
X139138070Y-110254523D01*
G37*
%TD.AperFunction*%
%TD*%
%TA.AperFunction,Conductor*%
%TO.N,+3.3V*%
G36*
X132131999Y-95739958D02*
G01*
X132140261Y-95743412D01*
X132143661Y-95751696D01*
X132143610Y-95752746D01*
X132088991Y-96337795D01*
X132084810Y-96345713D01*
X132077342Y-96348407D01*
X131590870Y-96348407D01*
X131582597Y-96344980D01*
X131579202Y-96337566D01*
X131566866Y-96170043D01*
X131536121Y-95752515D01*
X131538931Y-95744015D01*
X131546930Y-95739990D01*
X131547727Y-95739958D01*
X131840000Y-95739000D01*
X132131999Y-95739958D01*
G37*
%TD.AperFunction*%
%TD*%
%TA.AperFunction,Conductor*%
%TO.N,+3.3V*%
G36*
X142916362Y-100973123D02*
G01*
X143267055Y-101156366D01*
X143357182Y-101203459D01*
X143362928Y-101210328D01*
X143362587Y-101218274D01*
X143252563Y-101486185D01*
X143246250Y-101492536D01*
X143246185Y-101492563D01*
X142978274Y-101602587D01*
X142969319Y-101602560D01*
X142963459Y-101597182D01*
X142908794Y-101492563D01*
X142733123Y-101156363D01*
X142732330Y-101147447D01*
X142735219Y-101142677D01*
X142902676Y-100975220D01*
X142910948Y-100971794D01*
X142916362Y-100973123D01*
G37*
%TD.AperFunction*%
%TD*%
%TA.AperFunction,Conductor*%
%TO.N,+3.3V*%
G36*
X133702196Y-102722319D02*
G01*
X133707404Y-102728088D01*
X133819115Y-102995490D01*
X133819142Y-103004445D01*
X133819115Y-103004510D01*
X133707548Y-103271566D01*
X133701197Y-103277879D01*
X133693046Y-103278154D01*
X133220264Y-103120269D01*
X133213502Y-103114398D01*
X133212270Y-103109171D01*
X133212270Y-102872341D01*
X133215697Y-102864068D01*
X133220651Y-102861121D01*
X133693292Y-102721378D01*
X133702196Y-102722319D01*
G37*
%TD.AperFunction*%
%TD*%
%TA.AperFunction,Conductor*%
%TO.N,GND*%
G36*
X141757364Y-100557970D02*
G01*
X141760751Y-100565271D01*
X141809604Y-101151512D01*
X141806876Y-101160042D01*
X141798916Y-101164144D01*
X141797982Y-101164184D01*
X141505895Y-101165142D01*
X141505819Y-101165142D01*
X141213731Y-101164184D01*
X141205469Y-101160730D01*
X141202069Y-101152446D01*
X141202108Y-101151526D01*
X141250963Y-100565271D01*
X141255065Y-100557311D01*
X141262623Y-100554543D01*
X141749091Y-100554543D01*
X141757364Y-100557970D01*
G37*
%TD.AperFunction*%
%TD*%
%TA.AperFunction,Conductor*%
%TO.N,GND*%
G36*
X138061617Y-107392251D02*
G01*
X138647872Y-107441106D01*
X138655832Y-107445208D01*
X138658600Y-107452766D01*
X138658600Y-107939234D01*
X138655173Y-107947507D01*
X138647872Y-107950894D01*
X138061630Y-107999747D01*
X138053100Y-107997019D01*
X138048998Y-107989059D01*
X138048958Y-107988125D01*
X138048000Y-107696076D01*
X138048000Y-107696000D01*
X138048798Y-107452766D01*
X138048958Y-107403872D01*
X138052412Y-107395612D01*
X138060696Y-107392212D01*
X138061617Y-107392251D01*
G37*
%TD.AperFunction*%
%TD*%
%TA.AperFunction,Conductor*%
%TO.N,GND*%
G36*
X155938274Y-101883912D02*
G01*
X156206185Y-101993936D01*
X156212536Y-102000249D01*
X156212563Y-102000314D01*
X156322587Y-102268225D01*
X156322560Y-102277180D01*
X156317182Y-102283040D01*
X155876366Y-102513375D01*
X155867447Y-102514169D01*
X155862675Y-102511278D01*
X155695221Y-102343824D01*
X155691794Y-102335551D01*
X155693122Y-102330138D01*
X155923459Y-101889316D01*
X155930328Y-101883571D01*
X155938274Y-101883912D01*
G37*
%TD.AperFunction*%
%TD*%
%TA.AperFunction,Conductor*%
%TO.N,GND*%
G36*
X145046617Y-110440251D02*
G01*
X145632872Y-110489106D01*
X145640832Y-110493208D01*
X145643600Y-110500766D01*
X145643600Y-110987234D01*
X145640173Y-110995507D01*
X145632872Y-110998894D01*
X145046630Y-111047747D01*
X145038100Y-111045019D01*
X145033998Y-111037059D01*
X145033958Y-111036125D01*
X145033000Y-110744076D01*
X145033000Y-110744000D01*
X145033798Y-110500766D01*
X145033958Y-110451872D01*
X145037412Y-110443612D01*
X145045696Y-110440212D01*
X145046617Y-110440251D01*
G37*
%TD.AperFunction*%
%TD*%
%TA.AperFunction,Conductor*%
%TO.N,GND*%
G36*
X138061617Y-106122251D02*
G01*
X138647872Y-106171106D01*
X138655832Y-106175208D01*
X138658600Y-106182766D01*
X138658600Y-106669234D01*
X138655173Y-106677507D01*
X138647872Y-106680894D01*
X138061630Y-106729747D01*
X138053100Y-106727019D01*
X138048998Y-106719059D01*
X138048958Y-106718125D01*
X138048000Y-106426076D01*
X138048000Y-106426000D01*
X138048798Y-106182766D01*
X138048958Y-106133872D01*
X138052412Y-106125612D01*
X138060696Y-106122212D01*
X138061617Y-106122251D01*
G37*
%TD.AperFunction*%
%TD*%
%TA.AperFunction,Conductor*%
%TO.N,GND*%
G36*
X122802551Y-93426164D02*
G01*
X123388002Y-93471169D01*
X123395987Y-93475220D01*
X123398804Y-93482835D01*
X123398804Y-93969305D01*
X123395377Y-93977578D01*
X123388153Y-93980958D01*
X122802707Y-94033656D01*
X122794160Y-94030985D01*
X122790005Y-94023052D01*
X122789958Y-94022041D01*
X122789000Y-93730076D01*
X122789000Y-93730000D01*
X122789958Y-93437791D01*
X122793412Y-93429531D01*
X122801696Y-93426131D01*
X122802551Y-93426164D01*
G37*
%TD.AperFunction*%
%TD*%
%TA.AperFunction,Conductor*%
%TO.N,GND*%
G36*
X127412724Y-93416387D02*
G01*
X127997795Y-93471009D01*
X128005713Y-93475190D01*
X128008407Y-93482658D01*
X128008407Y-93969130D01*
X128004980Y-93977403D01*
X127997566Y-93980798D01*
X127412517Y-94023878D01*
X127404015Y-94021068D01*
X127399990Y-94013069D01*
X127399958Y-94012270D01*
X127399000Y-93720000D01*
X127399958Y-93427999D01*
X127403412Y-93419738D01*
X127411696Y-93416338D01*
X127412724Y-93416387D01*
G37*
%TD.AperFunction*%
%TD*%
%TA.AperFunction,Conductor*%
%TO.N,GND*%
G36*
X140838899Y-109934980D02*
G01*
X140843001Y-109942940D01*
X140843041Y-109943874D01*
X140844000Y-110236000D01*
X140844000Y-110236076D01*
X140843041Y-110528125D01*
X140839587Y-110536387D01*
X140831303Y-110539787D01*
X140830369Y-110539747D01*
X140244128Y-110490894D01*
X140236168Y-110486792D01*
X140233400Y-110479234D01*
X140233400Y-109992766D01*
X140236827Y-109984493D01*
X140244128Y-109981106D01*
X140830370Y-109932252D01*
X140838899Y-109934980D01*
G37*
%TD.AperFunction*%
%TD*%
%TA.AperFunction,Conductor*%
%TO.N,GND*%
G36*
X140799919Y-111928963D02*
G01*
X140804522Y-111936644D01*
X140804648Y-111938321D01*
X140805604Y-112229604D01*
X140805604Y-112229680D01*
X140804643Y-112522498D01*
X140801189Y-112530760D01*
X140792905Y-112534160D01*
X140792702Y-112534158D01*
X140214101Y-112522236D01*
X140205900Y-112518639D01*
X140202642Y-112510538D01*
X140202642Y-112024094D01*
X140206069Y-112015821D01*
X140212625Y-112012520D01*
X140791233Y-111926785D01*
X140799919Y-111928963D01*
G37*
%TD.AperFunction*%
%TD*%
%TA.AperFunction,Conductor*%
%TO.N,GND*%
G36*
X138300507Y-107089827D02*
G01*
X138303894Y-107097128D01*
X138352747Y-107683369D01*
X138350019Y-107691899D01*
X138342059Y-107696001D01*
X138341125Y-107696041D01*
X138049038Y-107696999D01*
X138048962Y-107696999D01*
X137756874Y-107696041D01*
X137748612Y-107692587D01*
X137745212Y-107684303D01*
X137745251Y-107683383D01*
X137794106Y-107097128D01*
X137798208Y-107089168D01*
X137805766Y-107086400D01*
X138292234Y-107086400D01*
X138300507Y-107089827D01*
G37*
%TD.AperFunction*%
%TD*%
%TA.AperFunction,Conductor*%
%TO.N,GND*%
G36*
X138202565Y-105794427D02*
G01*
X138205992Y-105802700D01*
X138202565Y-105810973D01*
X138196782Y-105814132D01*
X137785555Y-105903688D01*
X137776742Y-105902100D01*
X137771633Y-105894746D01*
X137771678Y-105889565D01*
X137792869Y-105800005D01*
X137798109Y-105792744D01*
X137804255Y-105791000D01*
X138194292Y-105791000D01*
X138202565Y-105794427D01*
G37*
%TD.AperFunction*%
%TD*%
%TA.AperFunction,Conductor*%
%TO.N,GND*%
G36*
X138202565Y-106429427D02*
G01*
X138205992Y-106437700D01*
X138202565Y-106445973D01*
X138196782Y-106449132D01*
X137785555Y-106538688D01*
X137776742Y-106537100D01*
X137771633Y-106529746D01*
X137771678Y-106524565D01*
X137792869Y-106435005D01*
X137798109Y-106427744D01*
X137804255Y-106426000D01*
X138194292Y-106426000D01*
X138202565Y-106429427D01*
G37*
%TD.AperFunction*%
%TD*%
%TA.AperFunction,Conductor*%
%TO.N,GND*%
G36*
X138202565Y-107064427D02*
G01*
X138205992Y-107072700D01*
X138202565Y-107080973D01*
X138196782Y-107084132D01*
X137785555Y-107173688D01*
X137776742Y-107172100D01*
X137771633Y-107164746D01*
X137771678Y-107159565D01*
X137792869Y-107070005D01*
X137798109Y-107062744D01*
X137804255Y-107061000D01*
X138194292Y-107061000D01*
X138202565Y-107064427D01*
G37*
%TD.AperFunction*%
%TD*%
%TA.AperFunction,Conductor*%
%TO.N,GND*%
G36*
X138341126Y-105155958D02*
G01*
X138349387Y-105159412D01*
X138352787Y-105167696D01*
X138352747Y-105168630D01*
X138303894Y-105754872D01*
X138299792Y-105762832D01*
X138292234Y-105765600D01*
X137805766Y-105765600D01*
X137797493Y-105762173D01*
X137794106Y-105754872D01*
X137745252Y-105168630D01*
X137747980Y-105160100D01*
X137755940Y-105155998D01*
X137756863Y-105155958D01*
X138049000Y-105155000D01*
X138341126Y-105155958D01*
G37*
%TD.AperFunction*%
%TD*%
%TA.AperFunction,Conductor*%
%TO.N,GND*%
G36*
X151887899Y-115141980D02*
G01*
X151892001Y-115149940D01*
X151892041Y-115150874D01*
X151893000Y-115443000D01*
X151893000Y-115443076D01*
X151892041Y-115735125D01*
X151888587Y-115743387D01*
X151880303Y-115746787D01*
X151879369Y-115746747D01*
X151293128Y-115697894D01*
X151285168Y-115693792D01*
X151282400Y-115686234D01*
X151282400Y-115199766D01*
X151285827Y-115191493D01*
X151293128Y-115188106D01*
X151879370Y-115139252D01*
X151887899Y-115141980D01*
G37*
%TD.AperFunction*%
%TD*%
%TA.AperFunction,Conductor*%
%TO.N,GND*%
G36*
X135140617Y-102566251D02*
G01*
X135726872Y-102615106D01*
X135734832Y-102619208D01*
X135737600Y-102626766D01*
X135737600Y-103113234D01*
X135734173Y-103121507D01*
X135726872Y-103124894D01*
X135140630Y-103173747D01*
X135132100Y-103171019D01*
X135127998Y-103163059D01*
X135127958Y-103162125D01*
X135127000Y-102870076D01*
X135127000Y-102870000D01*
X135127798Y-102626766D01*
X135127958Y-102577872D01*
X135131412Y-102569612D01*
X135139696Y-102566212D01*
X135140617Y-102566251D01*
G37*
%TD.AperFunction*%
%TD*%
%TA.AperFunction,Conductor*%
%TO.N,GND*%
G36*
X152143507Y-114836827D02*
G01*
X152146894Y-114844128D01*
X152195747Y-115430369D01*
X152193019Y-115438899D01*
X152185059Y-115443001D01*
X152184125Y-115443041D01*
X151892038Y-115443999D01*
X151891962Y-115443999D01*
X151599874Y-115443041D01*
X151591612Y-115439587D01*
X151588212Y-115431303D01*
X151588251Y-115430383D01*
X151637106Y-114844128D01*
X151641208Y-114836168D01*
X151648766Y-114833400D01*
X152135234Y-114833400D01*
X152143507Y-114836827D01*
G37*
%TD.AperFunction*%
%TD*%
%TA.AperFunction,Conductor*%
%TO.N,GND*%
G36*
X152184126Y-114807958D02*
G01*
X152192387Y-114811412D01*
X152195787Y-114819696D01*
X152195747Y-114820630D01*
X152146894Y-115406872D01*
X152142792Y-115414832D01*
X152135234Y-115417600D01*
X151648766Y-115417600D01*
X151640493Y-115414173D01*
X151637106Y-115406872D01*
X151588252Y-114820630D01*
X151590980Y-114812100D01*
X151598940Y-114807998D01*
X151599863Y-114807958D01*
X151892000Y-114807000D01*
X152184126Y-114807958D01*
G37*
%TD.AperFunction*%
%TD*%
%TA.AperFunction,Conductor*%
%TO.N,GND*%
G36*
X152782522Y-104690182D02*
G01*
X153049762Y-104801826D01*
X153056075Y-104808177D01*
X153056416Y-104816123D01*
X152907583Y-105290699D01*
X152901837Y-105297568D01*
X152896419Y-105298898D01*
X152659605Y-105298898D01*
X152651332Y-105295471D01*
X152648441Y-105290699D01*
X152592614Y-105112689D01*
X152499607Y-104816121D01*
X152500401Y-104807204D01*
X152506260Y-104801826D01*
X152773502Y-104690181D01*
X152782457Y-104690155D01*
X152782522Y-104690182D01*
G37*
%TD.AperFunction*%
%TD*%
%TA.AperFunction,Conductor*%
%TO.N,GND*%
G36*
X152492126Y-100349958D02*
G01*
X152500387Y-100353412D01*
X152503787Y-100361696D01*
X152503747Y-100362630D01*
X152454894Y-100948872D01*
X152450792Y-100956832D01*
X152443234Y-100959600D01*
X151956766Y-100959600D01*
X151948493Y-100956173D01*
X151945106Y-100948872D01*
X151896252Y-100362630D01*
X151898980Y-100354100D01*
X151906940Y-100349998D01*
X151907863Y-100349958D01*
X152200000Y-100349000D01*
X152492126Y-100349958D01*
G37*
%TD.AperFunction*%
%TD*%
%TA.AperFunction,Conductor*%
%TO.N,GND*%
G36*
X152383131Y-114654317D02*
G01*
X152387622Y-114657116D01*
X152553399Y-114822893D01*
X152556826Y-114831166D01*
X152553399Y-114839439D01*
X152549996Y-114841804D01*
X152019643Y-115084561D01*
X152010694Y-115084889D01*
X152004135Y-115078793D01*
X152003988Y-115078459D01*
X151893171Y-114813204D01*
X151893145Y-114804251D01*
X152004433Y-114536526D01*
X152010773Y-114530203D01*
X152019017Y-114529946D01*
X152383131Y-114654317D01*
G37*
%TD.AperFunction*%
%TD*%
%TA.AperFunction,Conductor*%
%TO.N,GND*%
G36*
X159875899Y-101198980D02*
G01*
X159880001Y-101206940D01*
X159880041Y-101207874D01*
X159881000Y-101500000D01*
X159881000Y-101500076D01*
X159880041Y-101792125D01*
X159876587Y-101800387D01*
X159868303Y-101803787D01*
X159867369Y-101803747D01*
X159281128Y-101754894D01*
X159273168Y-101750792D01*
X159270400Y-101743234D01*
X159270400Y-101256766D01*
X159273827Y-101248493D01*
X159281128Y-101245106D01*
X159867370Y-101196252D01*
X159875899Y-101198980D01*
G37*
%TD.AperFunction*%
%TD*%
%TA.AperFunction,Conductor*%
%TO.N,GND*%
G36*
X122916225Y-115372805D02*
G01*
X122922958Y-115378709D01*
X122924165Y-115383884D01*
X122924165Y-115873848D01*
X122920738Y-115882121D01*
X122914690Y-115885335D01*
X121933897Y-116075308D01*
X121925123Y-116073516D01*
X121920185Y-116066046D01*
X121919972Y-116063844D01*
X121919004Y-115572345D01*
X121919902Y-115567833D01*
X122110199Y-115110765D01*
X122116542Y-115104445D01*
X122124760Y-115104184D01*
X122916225Y-115372805D01*
G37*
%TD.AperFunction*%
%TD*%
%TA.AperFunction,Conductor*%
%TO.N,GND*%
G36*
X152761827Y-95619957D02*
G01*
X152770088Y-95623411D01*
X152773488Y-95631695D01*
X152773422Y-95632899D01*
X152711117Y-96216357D01*
X152706831Y-96224220D01*
X152699483Y-96226815D01*
X152213012Y-96226815D01*
X152204739Y-96223388D01*
X152201333Y-96215823D01*
X152165950Y-95632367D01*
X152168870Y-95623902D01*
X152176921Y-95619980D01*
X152177578Y-95619959D01*
X152470000Y-95619000D01*
X152761827Y-95619957D01*
G37*
%TD.AperFunction*%
%TD*%
%TA.AperFunction,Conductor*%
%TO.N,GND*%
G36*
X140061025Y-102379453D02*
G01*
X140064679Y-102381449D01*
X140617448Y-102683380D01*
X140623066Y-102690353D01*
X140622662Y-102698093D01*
X140511895Y-102967818D01*
X140509326Y-102971665D01*
X140303631Y-103176410D01*
X140295350Y-103179818D01*
X140287085Y-103176372D01*
X140286309Y-103175512D01*
X140046350Y-102881227D01*
X140043718Y-102873833D01*
X140043718Y-102389722D01*
X140047145Y-102381449D01*
X140055418Y-102378022D01*
X140061025Y-102379453D01*
G37*
%TD.AperFunction*%
%TD*%
%TA.AperFunction,Conductor*%
%TO.N,GND*%
G36*
X134058617Y-107326251D02*
G01*
X134644872Y-107375106D01*
X134652832Y-107379208D01*
X134655600Y-107386766D01*
X134655600Y-107873234D01*
X134652173Y-107881507D01*
X134644872Y-107884894D01*
X134058630Y-107933747D01*
X134050100Y-107931019D01*
X134045998Y-107923059D01*
X134045958Y-107922125D01*
X134045000Y-107630076D01*
X134045000Y-107630000D01*
X134045798Y-107386766D01*
X134045958Y-107337872D01*
X134049412Y-107329612D01*
X134057696Y-107326212D01*
X134058617Y-107326251D01*
G37*
%TD.AperFunction*%
%TD*%
%TA.AperFunction,Conductor*%
%TO.N,GND*%
G36*
X133122126Y-95719958D02*
G01*
X133130387Y-95723412D01*
X133133787Y-95731696D01*
X133133747Y-95732630D01*
X133084894Y-96318872D01*
X133080792Y-96326832D01*
X133073234Y-96329600D01*
X132586766Y-96329600D01*
X132578493Y-96326173D01*
X132575106Y-96318872D01*
X132526252Y-95732630D01*
X132528980Y-95724100D01*
X132536940Y-95719998D01*
X132537863Y-95719958D01*
X132830000Y-95719000D01*
X133122126Y-95719958D01*
G37*
%TD.AperFunction*%
%TD*%
%TA.AperFunction,Conductor*%
%TO.N,GND*%
G36*
X138044899Y-106124980D02*
G01*
X138049001Y-106132940D01*
X138049041Y-106133874D01*
X138050000Y-106426000D01*
X138050000Y-106426076D01*
X138049041Y-106718125D01*
X138045587Y-106726387D01*
X138037303Y-106729787D01*
X138036369Y-106729747D01*
X137450128Y-106680894D01*
X137442168Y-106676792D01*
X137439400Y-106669234D01*
X137439400Y-106182766D01*
X137442827Y-106174493D01*
X137450128Y-106171106D01*
X138036370Y-106122252D01*
X138044899Y-106124980D01*
G37*
%TD.AperFunction*%
%TD*%
%TA.AperFunction,Conductor*%
%TO.N,GND*%
G36*
X138991957Y-95759957D02*
G01*
X139000217Y-95763411D01*
X139003617Y-95771695D01*
X139003563Y-95772783D01*
X138947023Y-96357435D01*
X138942815Y-96365340D01*
X138935377Y-96368009D01*
X138448905Y-96368009D01*
X138440632Y-96364582D01*
X138437234Y-96357131D01*
X138396078Y-95772478D01*
X138398915Y-95763986D01*
X138406927Y-95759987D01*
X138407682Y-95759959D01*
X138700000Y-95759000D01*
X138991957Y-95759957D01*
G37*
%TD.AperFunction*%
%TD*%
%TA.AperFunction,Conductor*%
%TO.N,GND*%
G36*
X132092617Y-108916251D02*
G01*
X132678872Y-108965106D01*
X132686832Y-108969208D01*
X132689600Y-108976766D01*
X132689600Y-109463234D01*
X132686173Y-109471507D01*
X132678872Y-109474894D01*
X132092630Y-109523747D01*
X132084100Y-109521019D01*
X132079998Y-109513059D01*
X132079958Y-109512125D01*
X132079000Y-109220076D01*
X132079000Y-109220000D01*
X132079798Y-108976766D01*
X132079958Y-108927872D01*
X132083412Y-108919612D01*
X132091696Y-108916212D01*
X132092617Y-108916251D01*
G37*
%TD.AperFunction*%
%TD*%
%TA.AperFunction,Conductor*%
%TO.N,GND*%
G36*
X134152126Y-95719958D02*
G01*
X134160387Y-95723412D01*
X134163787Y-95731696D01*
X134163747Y-95732630D01*
X134114894Y-96318872D01*
X134110792Y-96326832D01*
X134103234Y-96329600D01*
X133616766Y-96329600D01*
X133608493Y-96326173D01*
X133605106Y-96318872D01*
X133556252Y-95732630D01*
X133558980Y-95724100D01*
X133566940Y-95719998D01*
X133567863Y-95719958D01*
X133860000Y-95719000D01*
X134152126Y-95719958D01*
G37*
%TD.AperFunction*%
%TD*%
%TA.AperFunction,Conductor*%
%TO.N,GND*%
G36*
X133726921Y-106505967D02*
G01*
X133731003Y-106513937D01*
X133731041Y-106514841D01*
X133732000Y-106807000D01*
X133732000Y-106807076D01*
X133731041Y-107099092D01*
X133727587Y-107107354D01*
X133719303Y-107110754D01*
X133718338Y-107110711D01*
X133132415Y-107060319D01*
X133124466Y-107056196D01*
X133121718Y-107048662D01*
X133121718Y-106562193D01*
X133125145Y-106553920D01*
X133132475Y-106550531D01*
X133718400Y-106503217D01*
X133726921Y-106505967D01*
G37*
%TD.AperFunction*%
%TD*%
%TA.AperFunction,Conductor*%
%TO.N,GND*%
G36*
X144442586Y-101245020D02*
G01*
X144445513Y-101249909D01*
X144588543Y-101723248D01*
X144587656Y-101732158D01*
X144581853Y-101737428D01*
X144314510Y-101849115D01*
X144305555Y-101849142D01*
X144305490Y-101849115D01*
X144038366Y-101737520D01*
X144032053Y-101731169D01*
X144031754Y-101723093D01*
X144186365Y-101249660D01*
X144192191Y-101242860D01*
X144197487Y-101241593D01*
X144434313Y-101241593D01*
X144442586Y-101245020D01*
G37*
%TD.AperFunction*%
%TD*%
%TA.AperFunction,Conductor*%
%TO.N,GND*%
G36*
X138061778Y-104852435D02*
G01*
X138646435Y-104908977D01*
X138654340Y-104913185D01*
X138657009Y-104920623D01*
X138657009Y-105407094D01*
X138653582Y-105415367D01*
X138646131Y-105418765D01*
X138061480Y-105459921D01*
X138052986Y-105457084D01*
X138048987Y-105449072D01*
X138048959Y-105448316D01*
X138048000Y-105156000D01*
X138048957Y-104864041D01*
X138052411Y-104855782D01*
X138060695Y-104852382D01*
X138061778Y-104852435D01*
G37*
%TD.AperFunction*%
%TD*%
%TA.AperFunction,Conductor*%
%TO.N,GND*%
G36*
X148587507Y-110899827D02*
G01*
X148590894Y-110907128D01*
X148639747Y-111493369D01*
X148637019Y-111501899D01*
X148629059Y-111506001D01*
X148628125Y-111506041D01*
X148336038Y-111506999D01*
X148335962Y-111506999D01*
X148043874Y-111506041D01*
X148035612Y-111502587D01*
X148032212Y-111494303D01*
X148032251Y-111493383D01*
X148081106Y-110907128D01*
X148085208Y-110899168D01*
X148092766Y-110896400D01*
X148579234Y-110896400D01*
X148587507Y-110899827D01*
G37*
%TD.AperFunction*%
%TD*%
%TA.AperFunction,Conductor*%
%TO.N,GND*%
G36*
X142151126Y-97408958D02*
G01*
X142159387Y-97412412D01*
X142162787Y-97420696D01*
X142162747Y-97421630D01*
X142113894Y-98007872D01*
X142109792Y-98015832D01*
X142102234Y-98018600D01*
X141615766Y-98018600D01*
X141607493Y-98015173D01*
X141604106Y-98007872D01*
X141555252Y-97421630D01*
X141557980Y-97413100D01*
X141565940Y-97408998D01*
X141566863Y-97408958D01*
X141859000Y-97408000D01*
X142151126Y-97408958D01*
G37*
%TD.AperFunction*%
%TD*%
%TA.AperFunction,Conductor*%
%TO.N,GND*%
G36*
X140711378Y-115087423D02*
G01*
X140715892Y-115095156D01*
X140716000Y-115096739D01*
X140716000Y-115551275D01*
X140712573Y-115559548D01*
X140704300Y-115562975D01*
X140699171Y-115561791D01*
X140447209Y-115438889D01*
X140441275Y-115432182D01*
X140441822Y-115423244D01*
X140443017Y-115421301D01*
X140694984Y-115089660D01*
X140702717Y-115085147D01*
X140711378Y-115087423D01*
G37*
%TD.AperFunction*%
%TD*%
%TA.AperFunction,Conductor*%
%TO.N,GND*%
G36*
X141473899Y-115014980D02*
G01*
X141478001Y-115022940D01*
X141478041Y-115023874D01*
X141479000Y-115316000D01*
X141479000Y-115316076D01*
X141478041Y-115608125D01*
X141474587Y-115616387D01*
X141466303Y-115619787D01*
X141465369Y-115619747D01*
X140879128Y-115570894D01*
X140871168Y-115566792D01*
X140868400Y-115559234D01*
X140868400Y-115072766D01*
X140871827Y-115064493D01*
X140879128Y-115061106D01*
X141465370Y-115012252D01*
X141473899Y-115014980D01*
G37*
%TD.AperFunction*%
%TD*%
%TA.AperFunction,Conductor*%
%TO.N,GND*%
G36*
X135267281Y-114503864D02*
G01*
X135849954Y-114535401D01*
X135858028Y-114539269D01*
X135861020Y-114547083D01*
X135861020Y-115033553D01*
X135857593Y-115041826D01*
X135850640Y-115045178D01*
X135267977Y-115111326D01*
X135259370Y-115108855D01*
X135255032Y-115101021D01*
X135254957Y-115099739D01*
X135254000Y-114808076D01*
X135254000Y-114808000D01*
X135254959Y-114515508D01*
X135258413Y-114507248D01*
X135266697Y-114503848D01*
X135267281Y-114503864D01*
G37*
%TD.AperFunction*%
%TD*%
%TA.AperFunction,Conductor*%
%TO.N,GND*%
G36*
X126123617Y-111998751D02*
G01*
X126709872Y-112047606D01*
X126717832Y-112051708D01*
X126720600Y-112059266D01*
X126720600Y-112545734D01*
X126717173Y-112554007D01*
X126709872Y-112557394D01*
X126123630Y-112606247D01*
X126115100Y-112603519D01*
X126110998Y-112595559D01*
X126110958Y-112594625D01*
X126110000Y-112302576D01*
X126110000Y-112302500D01*
X126110798Y-112059266D01*
X126110958Y-112010372D01*
X126114412Y-112002112D01*
X126122696Y-111998712D01*
X126123617Y-111998751D01*
G37*
%TD.AperFunction*%
%TD*%
%TA.AperFunction,Conductor*%
%TO.N,GND*%
G36*
X145832328Y-95749959D02*
G01*
X145840590Y-95753413D01*
X145843990Y-95761697D01*
X145843964Y-95762443D01*
X145804733Y-96346695D01*
X145800759Y-96354720D01*
X145793059Y-96357611D01*
X145306588Y-96357611D01*
X145298315Y-96354184D01*
X145294946Y-96347076D01*
X145236483Y-95762822D01*
X145239069Y-95754249D01*
X145246960Y-95750015D01*
X145248072Y-95749957D01*
X145540000Y-95749000D01*
X145832328Y-95749959D01*
G37*
%TD.AperFunction*%
%TD*%
%TA.AperFunction,Conductor*%
%TO.N,GND*%
G36*
X118014594Y-114974482D02*
G01*
X118019526Y-114980106D01*
X118209127Y-115435503D01*
X118209144Y-115444458D01*
X118209127Y-115444497D01*
X118019498Y-115899958D01*
X118013155Y-115906279D01*
X118005767Y-115906788D01*
X117203367Y-115699268D01*
X117196216Y-115693879D01*
X117194597Y-115687941D01*
X117194597Y-115197995D01*
X117198024Y-115189722D01*
X117203289Y-115186688D01*
X118005718Y-114973296D01*
X118014594Y-114974482D01*
G37*
%TD.AperFunction*%
%TD*%
%TA.AperFunction,Conductor*%
%TO.N,GND*%
G36*
X151590478Y-114323170D02*
G01*
X151998758Y-114521598D01*
X152004701Y-114528296D01*
X152004467Y-114536566D01*
X151895979Y-114800745D01*
X151889666Y-114807096D01*
X151885156Y-114808000D01*
X151598256Y-114808000D01*
X151589983Y-114804573D01*
X151586575Y-114796961D01*
X151573687Y-114569335D01*
X151573668Y-114568674D01*
X151573668Y-114333694D01*
X151577095Y-114325421D01*
X151585368Y-114321994D01*
X151590478Y-114323170D01*
G37*
%TD.AperFunction*%
%TD*%
%TA.AperFunction,Conductor*%
%TO.N,GND*%
G36*
X127312174Y-115104770D02*
G01*
X127317800Y-115110766D01*
X127508096Y-115567829D01*
X127508995Y-115572349D01*
X127508027Y-116063844D01*
X127504584Y-116072110D01*
X127496304Y-116075521D01*
X127494102Y-116075308D01*
X126513310Y-115885335D01*
X126505840Y-115880397D01*
X126503835Y-115873848D01*
X126503835Y-115383884D01*
X126507262Y-115375611D01*
X126511774Y-115372805D01*
X127303240Y-115104184D01*
X127312174Y-115104770D01*
G37*
%TD.AperFunction*%
%TD*%
%TA.AperFunction,Conductor*%
%TO.N,+5V*%
G36*
X153987484Y-102232330D02*
G01*
X153994245Y-102238201D01*
X153995477Y-102243427D01*
X153995477Y-102729660D01*
X153992050Y-102737933D01*
X153983777Y-102741360D01*
X153982252Y-102741260D01*
X153426141Y-102668133D01*
X153418385Y-102663657D01*
X153415966Y-102656571D01*
X153415007Y-102364361D01*
X153415910Y-102359821D01*
X153528451Y-102090432D01*
X153534802Y-102084120D01*
X153542952Y-102083846D01*
X153987484Y-102232330D01*
G37*
%TD.AperFunction*%
%TD*%
%TA.AperFunction,Conductor*%
%TO.N,+5V*%
G36*
X131151563Y-95791356D02*
G01*
X131159824Y-95794810D01*
X131163224Y-95803094D01*
X131163131Y-95804531D01*
X131089299Y-96385603D01*
X131084856Y-96393378D01*
X131077692Y-96395828D01*
X130591230Y-96395828D01*
X130582957Y-96392401D01*
X130579540Y-96384608D01*
X130555698Y-95803540D01*
X130558783Y-95795133D01*
X130566908Y-95791370D01*
X130567342Y-95791360D01*
X130860000Y-95790400D01*
X131151563Y-95791356D01*
G37*
%TD.AperFunction*%
%TD*%
%TA.AperFunction,Conductor*%
%TO.N,+5V*%
G36*
X153200126Y-112394958D02*
G01*
X153208387Y-112398412D01*
X153211787Y-112406696D01*
X153211747Y-112407630D01*
X153162894Y-112993872D01*
X153158792Y-113001832D01*
X153151234Y-113004600D01*
X152664766Y-113004600D01*
X152656493Y-113001173D01*
X152653106Y-112993872D01*
X152604252Y-112407630D01*
X152606980Y-112399100D01*
X152614940Y-112394998D01*
X152615863Y-112394958D01*
X152908000Y-112394000D01*
X153200126Y-112394958D01*
G37*
%TD.AperFunction*%
%TD*%
%TA.AperFunction,Conductor*%
%TO.N,/BQ76920/VC1*%
G36*
X115776680Y-94663827D02*
G01*
X115779571Y-94668599D01*
X115928404Y-95143174D01*
X115927610Y-95152093D01*
X115921750Y-95157471D01*
X115654510Y-95269115D01*
X115645555Y-95269142D01*
X115645490Y-95269115D01*
X115378249Y-95157471D01*
X115371936Y-95151120D01*
X115371595Y-95143176D01*
X115520429Y-94668599D01*
X115526175Y-94661730D01*
X115531593Y-94660400D01*
X115768407Y-94660400D01*
X115776680Y-94663827D01*
G37*
%TD.AperFunction*%
%TD*%
%TA.AperFunction,Conductor*%
%TO.N,/BQ76920/VC1*%
G36*
X125898274Y-106177412D02*
G01*
X126166185Y-106287436D01*
X126172536Y-106293749D01*
X126172563Y-106293814D01*
X126282587Y-106561725D01*
X126282560Y-106570680D01*
X126277182Y-106576540D01*
X125836366Y-106806875D01*
X125827447Y-106807669D01*
X125822675Y-106804778D01*
X125655221Y-106637324D01*
X125651794Y-106629051D01*
X125653122Y-106623638D01*
X125883459Y-106182816D01*
X125890328Y-106177071D01*
X125898274Y-106177412D01*
G37*
%TD.AperFunction*%
%TD*%
%TA.AperFunction,Conductor*%
%TO.N,/BQ76920/BAT*%
G36*
X113764617Y-100447251D02*
G01*
X114350872Y-100496106D01*
X114358832Y-100500208D01*
X114361600Y-100507766D01*
X114361600Y-100994234D01*
X114358173Y-101002507D01*
X114350872Y-101005894D01*
X113764630Y-101054747D01*
X113756100Y-101052019D01*
X113751998Y-101044059D01*
X113751958Y-101043125D01*
X113751000Y-100751076D01*
X113751000Y-100751000D01*
X113751798Y-100507766D01*
X113751958Y-100458872D01*
X113755412Y-100450612D01*
X113763696Y-100447212D01*
X113764617Y-100447251D01*
G37*
%TD.AperFunction*%
%TD*%
%TA.AperFunction,Conductor*%
%TO.N,/BQ76920/BAT*%
G36*
X135013617Y-108916251D02*
G01*
X135599872Y-108965106D01*
X135607832Y-108969208D01*
X135610600Y-108976766D01*
X135610600Y-109463234D01*
X135607173Y-109471507D01*
X135599872Y-109474894D01*
X135013630Y-109523747D01*
X135005100Y-109521019D01*
X135000998Y-109513059D01*
X135000958Y-109512125D01*
X135000000Y-109220076D01*
X135000000Y-109220000D01*
X135000798Y-108976766D01*
X135000958Y-108927872D01*
X135004412Y-108919612D01*
X135012696Y-108916212D01*
X135013617Y-108916251D01*
G37*
%TD.AperFunction*%
%TD*%
%TA.AperFunction,Conductor*%
%TO.N,/BQ76920/BAT*%
G36*
X134996899Y-108918980D02*
G01*
X135001001Y-108926940D01*
X135001041Y-108927874D01*
X135002000Y-109220000D01*
X135002000Y-109220076D01*
X135001041Y-109512125D01*
X134997587Y-109520387D01*
X134989303Y-109523787D01*
X134988369Y-109523747D01*
X134402128Y-109474894D01*
X134394168Y-109470792D01*
X134391400Y-109463234D01*
X134391400Y-108976766D01*
X134394827Y-108968493D01*
X134402128Y-108965106D01*
X134988370Y-108916252D01*
X134996899Y-108918980D01*
G37*
%TD.AperFunction*%
%TD*%
%TA.AperFunction,Conductor*%
%TO.N,/ALERT*%
G36*
X137936863Y-102599187D02*
G01*
X138048115Y-102865490D01*
X138048142Y-102874445D01*
X138048115Y-102874510D01*
X137936863Y-103140812D01*
X137930512Y-103147125D01*
X137921567Y-103147102D01*
X137833269Y-103110311D01*
X137446600Y-102949199D01*
X137440281Y-102942854D01*
X137439400Y-102938399D01*
X137439400Y-102801600D01*
X137442827Y-102793327D01*
X137446600Y-102790800D01*
X137921569Y-102592896D01*
X137930522Y-102592878D01*
X137936863Y-102599187D01*
G37*
%TD.AperFunction*%
%TD*%
%TA.AperFunction,Conductor*%
%TO.N,/ALERT*%
G36*
X132207852Y-115779240D02*
G01*
X132208208Y-115780012D01*
X132319115Y-116045490D01*
X132319142Y-116054445D01*
X132319115Y-116054510D01*
X132207575Y-116321502D01*
X132201224Y-116327815D01*
X132193003Y-116328066D01*
X131726281Y-116168902D01*
X131719556Y-116162988D01*
X131718357Y-116157828D01*
X131718357Y-116020992D01*
X131721784Y-116012719D01*
X131724771Y-116010554D01*
X132192132Y-115774081D01*
X132201059Y-115773405D01*
X132207852Y-115779240D01*
G37*
%TD.AperFunction*%
%TD*%
%TA.AperFunction,Conductor*%
%TO.N,Net-(C25-Pad1)*%
G36*
X137673059Y-121570955D02*
G01*
X137852102Y-121749999D01*
X137852104Y-121750000D01*
X138024657Y-121922553D01*
X137629526Y-122389526D01*
X137413293Y-122174707D01*
X137198474Y-121958474D01*
X137657230Y-121570295D01*
X137665758Y-121567568D01*
X137673059Y-121570955D01*
G37*
%TD.AperFunction*%
%TD*%
%TA.AperFunction,Conductor*%
%TO.N,Net-(C25-Pad1)*%
G36*
X128231331Y-119066403D02*
G01*
X128016000Y-119888000D01*
X127508000Y-119888000D01*
X127292669Y-119066403D01*
X127762000Y-118871000D01*
X128231331Y-119066403D01*
G37*
%TD.AperFunction*%
%TD*%
%TA.AperFunction,Conductor*%
%TO.N,Net-(C25-Pad1)*%
G36*
X128231331Y-119066403D02*
G01*
X128016000Y-119634000D01*
X127508000Y-119634000D01*
X127292669Y-119066403D01*
X127762000Y-118871000D01*
X128231331Y-119066403D01*
G37*
%TD.AperFunction*%
%TD*%
%TA.AperFunction,Conductor*%
%TO.N,PACK-*%
G36*
X149910638Y-121636154D02*
G01*
X149914065Y-121644427D01*
X149913747Y-121647134D01*
X149760598Y-122290642D01*
X149479000Y-122175000D01*
X149197402Y-122057358D01*
X149405945Y-121639204D01*
X149412704Y-121633331D01*
X149416415Y-121632727D01*
X149902365Y-121632727D01*
X149910638Y-121636154D01*
G37*
%TD.AperFunction*%
%TD*%
%TA.AperFunction,Conductor*%
%TO.N,PACK-*%
G36*
X151008059Y-121570955D02*
G01*
X151187102Y-121749999D01*
X151187104Y-121750000D01*
X151359657Y-121922553D01*
X150964526Y-122389526D01*
X150748293Y-122174707D01*
X150533474Y-121958474D01*
X150992230Y-121570295D01*
X151000758Y-121567568D01*
X151008059Y-121570955D01*
G37*
%TD.AperFunction*%
%TD*%
%TA.AperFunction,Conductor*%
%TO.N,PACK-*%
G36*
X141028115Y-120437969D02*
G01*
X141033011Y-120443572D01*
X141222627Y-120899003D01*
X141222644Y-120907958D01*
X141222627Y-120907997D01*
X141033011Y-121363427D01*
X141026668Y-121369748D01*
X141019244Y-121370248D01*
X140216234Y-121159789D01*
X140209100Y-121154376D01*
X140207500Y-121148471D01*
X140207500Y-120658528D01*
X140210927Y-120650255D01*
X140216231Y-120647211D01*
X141019244Y-120436751D01*
X141028115Y-120437969D01*
G37*
%TD.AperFunction*%
%TD*%
%TA.AperFunction,Conductor*%
%TO.N,/SWDIO*%
G36*
X150008071Y-103080937D02*
G01*
X150014591Y-103087073D01*
X150015622Y-103091876D01*
X150015622Y-103228710D01*
X150012195Y-103236983D01*
X150008820Y-103239335D01*
X149537659Y-103456519D01*
X149528711Y-103456871D01*
X149522136Y-103450792D01*
X149521975Y-103450427D01*
X149410883Y-103184509D01*
X149410857Y-103175555D01*
X149410884Y-103175490D01*
X149445815Y-103091876D01*
X149522280Y-102908842D01*
X149528630Y-102902531D01*
X149537223Y-102902414D01*
X150008071Y-103080937D01*
G37*
%TD.AperFunction*%
%TD*%
%TA.AperFunction,Conductor*%
%TO.N,/SWDIO*%
G36*
X159837863Y-103229187D02*
G01*
X159949115Y-103495490D01*
X159949142Y-103504445D01*
X159949115Y-103504510D01*
X159837863Y-103770812D01*
X159831512Y-103777125D01*
X159822567Y-103777102D01*
X159734269Y-103740311D01*
X159347600Y-103579199D01*
X159341281Y-103572854D01*
X159340400Y-103568399D01*
X159340400Y-103431600D01*
X159343827Y-103423327D01*
X159347600Y-103420800D01*
X159822569Y-103222896D01*
X159831522Y-103222878D01*
X159837863Y-103229187D01*
G37*
%TD.AperFunction*%
%TD*%
%TA.AperFunction,Conductor*%
%TO.N,/SWCLK*%
G36*
X149393192Y-101570590D02*
G01*
X149395416Y-101573695D01*
X149626099Y-102042192D01*
X149626679Y-102051128D01*
X149620770Y-102057857D01*
X149620112Y-102058156D01*
X149354510Y-102169115D01*
X149345555Y-102169142D01*
X149345490Y-102169115D01*
X149078601Y-102057618D01*
X149072288Y-102051267D01*
X149072077Y-102042932D01*
X149237047Y-101574973D01*
X149243029Y-101568310D01*
X149248081Y-101567163D01*
X149384919Y-101567163D01*
X149393192Y-101570590D01*
G37*
%TD.AperFunction*%
%TD*%
%TA.AperFunction,Conductor*%
%TO.N,/SWCLK*%
G36*
X159817863Y-102219187D02*
G01*
X159929115Y-102485490D01*
X159929142Y-102494445D01*
X159929115Y-102494510D01*
X159817863Y-102760812D01*
X159811512Y-102767125D01*
X159802567Y-102767102D01*
X159714269Y-102730311D01*
X159327600Y-102569199D01*
X159321281Y-102562854D01*
X159320400Y-102558399D01*
X159320400Y-102421600D01*
X159323827Y-102413327D01*
X159327600Y-102410800D01*
X159802569Y-102212896D01*
X159811522Y-102212878D01*
X159817863Y-102219187D01*
G37*
%TD.AperFunction*%
%TD*%
%TA.AperFunction,Conductor*%
%TO.N,/I2C1_SCL*%
G36*
X145394101Y-102021775D02*
G01*
X145395657Y-102023701D01*
X145690109Y-102479643D01*
X145691718Y-102488452D01*
X145686627Y-102495819D01*
X145684790Y-102496786D01*
X145420610Y-102607151D01*
X145411655Y-102607178D01*
X145411590Y-102607151D01*
X145143540Y-102495169D01*
X145137227Y-102488818D01*
X145136630Y-102481833D01*
X145237761Y-102027505D01*
X145242903Y-102020175D01*
X145249181Y-102018348D01*
X145385828Y-102018348D01*
X145394101Y-102021775D01*
G37*
%TD.AperFunction*%
%TD*%
%TA.AperFunction,Conductor*%
%TO.N,/I2C1_SCL*%
G36*
X143011739Y-110042320D02*
G01*
X143018052Y-110048671D01*
X143018337Y-110056790D01*
X142864354Y-110522409D01*
X142858503Y-110529187D01*
X142853246Y-110530435D01*
X142716415Y-110530435D01*
X142708142Y-110527008D01*
X142706027Y-110524118D01*
X142464390Y-110057780D01*
X142463626Y-110048858D01*
X142469395Y-110042009D01*
X142470257Y-110041606D01*
X142735633Y-109930740D01*
X142744588Y-109930714D01*
X143011739Y-110042320D01*
G37*
%TD.AperFunction*%
%TD*%
%TA.AperFunction,Conductor*%
%TO.N,/I2C1_SDA*%
G36*
X144904290Y-102049318D02*
G01*
X144907605Y-102055976D01*
X144981752Y-102588128D01*
X144981745Y-102591409D01*
X144980507Y-102600017D01*
X144975937Y-102607718D01*
X144968964Y-102610051D01*
X144684883Y-102610983D01*
X144676599Y-102607583D01*
X144676553Y-102607537D01*
X144471979Y-102402014D01*
X144468571Y-102393733D01*
X144471268Y-102386288D01*
X144750291Y-102050119D01*
X144758212Y-102045941D01*
X144759294Y-102045891D01*
X144896017Y-102045891D01*
X144904290Y-102049318D01*
G37*
%TD.AperFunction*%
%TD*%
%TA.AperFunction,Conductor*%
%TO.N,/I2C1_SDA*%
G36*
X143051962Y-109082279D02*
G01*
X143058271Y-109088620D01*
X143254186Y-109564411D01*
X143254167Y-109573366D01*
X143251640Y-109577139D01*
X143154908Y-109673871D01*
X143146635Y-109677298D01*
X143142180Y-109676417D01*
X143067586Y-109645701D01*
X143063199Y-109642544D01*
X143061598Y-109640696D01*
X143026150Y-109599787D01*
X142921573Y-109532580D01*
X142861935Y-109515068D01*
X142802299Y-109497557D01*
X142802298Y-109497557D01*
X142710122Y-109497557D01*
X142705668Y-109496676D01*
X142688422Y-109489575D01*
X142666389Y-109480502D01*
X142660044Y-109474183D01*
X142660021Y-109465240D01*
X142769659Y-109198267D01*
X142775972Y-109191917D01*
X143043009Y-109082252D01*
X143051962Y-109082279D01*
G37*
%TD.AperFunction*%
%TD*%
%TA.AperFunction,Conductor*%
%TO.N,/LED_A*%
G36*
X133832093Y-101462389D02*
G01*
X133837471Y-101468249D01*
X133949115Y-101735490D01*
X133949142Y-101744445D01*
X133949115Y-101744510D01*
X133837471Y-102011750D01*
X133831120Y-102018063D01*
X133823174Y-102018404D01*
X133348599Y-101869571D01*
X133341730Y-101863825D01*
X133340400Y-101858407D01*
X133340400Y-101621592D01*
X133343827Y-101613319D01*
X133348596Y-101610429D01*
X133823176Y-101461595D01*
X133832093Y-101462389D01*
G37*
%TD.AperFunction*%
%TD*%
%TA.AperFunction,Conductor*%
%TO.N,/LED_A*%
G36*
X143591647Y-102722055D02*
G01*
X143797204Y-102926663D01*
X143800650Y-102934928D01*
X143800650Y-102934993D01*
X143799705Y-103223318D01*
X143796251Y-103231580D01*
X143788076Y-103234980D01*
X143268103Y-103238128D01*
X143259809Y-103234751D01*
X143256332Y-103226499D01*
X143256332Y-102989725D01*
X143259759Y-102981452D01*
X143260592Y-102980696D01*
X143575962Y-102721310D01*
X143584527Y-102718702D01*
X143591647Y-102722055D01*
G37*
%TD.AperFunction*%
%TD*%
%TA.AperFunction,Conductor*%
%TO.N,/LED_B*%
G36*
X133642093Y-104063173D02*
G01*
X133647471Y-104069033D01*
X133759115Y-104336274D01*
X133759142Y-104345229D01*
X133759115Y-104345294D01*
X133647471Y-104612534D01*
X133641120Y-104618847D01*
X133633174Y-104619188D01*
X133158599Y-104470355D01*
X133151730Y-104464609D01*
X133150400Y-104459191D01*
X133150400Y-104222376D01*
X133153827Y-104214103D01*
X133158596Y-104211213D01*
X133633176Y-104062379D01*
X133642093Y-104063173D01*
G37*
%TD.AperFunction*%
%TD*%
%TA.AperFunction,Conductor*%
%TO.N,/LED_B*%
G36*
X143632203Y-103392314D02*
G01*
X143637400Y-103398077D01*
X143749115Y-103665490D01*
X143749142Y-103674445D01*
X143749115Y-103674510D01*
X143637553Y-103941555D01*
X143631202Y-103947868D01*
X143623038Y-103948138D01*
X143150370Y-103789675D01*
X143143615Y-103783796D01*
X143142389Y-103778582D01*
X143142389Y-103541750D01*
X143145816Y-103533477D01*
X143150782Y-103530528D01*
X143623300Y-103391364D01*
X143632203Y-103392314D01*
G37*
%TD.AperFunction*%
%TD*%
%TA.AperFunction,Conductor*%
%TO.N,Net-(U4-TS1)*%
G36*
X135277430Y-106148896D02*
G01*
X135752400Y-106346800D01*
X135758719Y-106353145D01*
X135759600Y-106357600D01*
X135759600Y-106494399D01*
X135756173Y-106502672D01*
X135752400Y-106505199D01*
X135277432Y-106703102D01*
X135268477Y-106703121D01*
X135262136Y-106696812D01*
X135150884Y-106430510D01*
X135150857Y-106421555D01*
X135150884Y-106421490D01*
X135262136Y-106155187D01*
X135268487Y-106148874D01*
X135277430Y-106148896D01*
G37*
%TD.AperFunction*%
%TD*%
%TA.AperFunction,Conductor*%
%TO.N,Net-(U4-TS1)*%
G36*
X135254884Y-112500236D02*
G01*
X135256089Y-112500824D01*
X135718893Y-112760448D01*
X135724432Y-112767483D01*
X135724869Y-112770651D01*
X135724869Y-112907447D01*
X135721442Y-112915720D01*
X135716474Y-112918671D01*
X135254700Y-113054636D01*
X135245795Y-113053685D01*
X135240600Y-113047923D01*
X135128883Y-112780509D01*
X135128857Y-112771555D01*
X135128884Y-112771490D01*
X135132097Y-112763800D01*
X135239579Y-112506520D01*
X135245929Y-112500209D01*
X135254884Y-112500236D01*
G37*
%TD.AperFunction*%
%TD*%
%TA.AperFunction,Conductor*%
%TO.N,/KEY_A*%
G36*
X148303554Y-104937432D02*
G01*
X148873891Y-105031386D01*
X148881495Y-105036111D01*
X148883687Y-105042929D01*
X148883687Y-105279715D01*
X148880260Y-105287988D01*
X148877150Y-105290214D01*
X148417805Y-105516108D01*
X148408869Y-105516684D01*
X148402143Y-105510772D01*
X148401846Y-105510119D01*
X148289910Y-105242179D01*
X148289007Y-105237637D01*
X148289954Y-104948936D01*
X148293408Y-104940677D01*
X148301692Y-104937277D01*
X148303554Y-104937432D01*
G37*
%TD.AperFunction*%
%TD*%
%TA.AperFunction,Conductor*%
%TO.N,/KEY_A*%
G36*
X124995846Y-94629115D02*
G01*
X124998278Y-94632668D01*
X125206784Y-95105541D01*
X125206987Y-95114493D01*
X125200799Y-95120966D01*
X125200589Y-95121057D01*
X124934510Y-95232215D01*
X124925555Y-95232242D01*
X124925490Y-95232215D01*
X124658999Y-95120885D01*
X124652686Y-95114534D01*
X124652631Y-95105781D01*
X124839872Y-94633078D01*
X124846105Y-94626650D01*
X124850750Y-94625688D01*
X124987573Y-94625688D01*
X124995846Y-94629115D01*
G37*
%TD.AperFunction*%
%TD*%
%TA.AperFunction,Conductor*%
%TO.N,/CAN_STB*%
G36*
X151930566Y-104384409D02*
G01*
X151930603Y-104384495D01*
X152041814Y-104650701D01*
X152041841Y-104659656D01*
X152041814Y-104659721D01*
X151930528Y-104926105D01*
X151924177Y-104932418D01*
X151915315Y-104932429D01*
X151441335Y-104739169D01*
X151434968Y-104732872D01*
X151434052Y-104728335D01*
X151434052Y-104591524D01*
X151437479Y-104583251D01*
X151441156Y-104580765D01*
X151915212Y-104378245D01*
X151924165Y-104378147D01*
X151930566Y-104384409D01*
G37*
%TD.AperFunction*%
%TD*%
%TA.AperFunction,Conductor*%
%TO.N,/CAN_STB*%
G36*
X156255637Y-106725637D02*
G01*
X156459160Y-106929160D01*
X156462587Y-106937433D01*
X156461683Y-106941943D01*
X156351721Y-107205154D01*
X156345370Y-107211467D01*
X156336775Y-107211583D01*
X155881674Y-107038937D01*
X155875154Y-107032799D01*
X155874885Y-107023848D01*
X155877549Y-107019727D01*
X155971932Y-106925344D01*
X155973185Y-106924259D01*
X156240361Y-106724538D01*
X156249037Y-106722330D01*
X156255637Y-106725637D01*
G37*
%TD.AperFunction*%
%TD*%
%TA.AperFunction,Conductor*%
%TO.N,/CAN_TX*%
G36*
X151833074Y-103318541D02*
G01*
X152038930Y-103523446D01*
X152042376Y-103531711D01*
X152042376Y-103531776D01*
X152041438Y-103817936D01*
X152037984Y-103826198D01*
X152029700Y-103829598D01*
X152027822Y-103829440D01*
X151475781Y-103737823D01*
X151468181Y-103733088D01*
X151465997Y-103726281D01*
X151465997Y-103589616D01*
X151469424Y-103581343D01*
X151470627Y-103580294D01*
X151817759Y-103317504D01*
X151826423Y-103315243D01*
X151833074Y-103318541D01*
G37*
%TD.AperFunction*%
%TD*%
%TA.AperFunction,Conductor*%
%TO.N,/CAN_TX*%
G36*
X156115952Y-103010009D02*
G01*
X156383145Y-103119738D01*
X156389496Y-103126051D01*
X156389523Y-103126116D01*
X156499053Y-103392823D01*
X156499026Y-103401778D01*
X156492675Y-103408091D01*
X156492423Y-103408191D01*
X156009567Y-103593564D01*
X156000616Y-103593330D01*
X155997101Y-103590914D01*
X155900352Y-103494165D01*
X155896925Y-103485892D01*
X155897901Y-103481214D01*
X156100784Y-103016152D01*
X156107232Y-103009941D01*
X156115952Y-103010009D01*
G37*
%TD.AperFunction*%
%TD*%
%TA.AperFunction,Conductor*%
%TO.N,/I2C2_SCL*%
G36*
X146774135Y-106919963D02*
G01*
X147135063Y-107233671D01*
X147139059Y-107241684D01*
X147136219Y-107250176D01*
X147135661Y-107250774D01*
X147039399Y-107347036D01*
X147033106Y-107350294D01*
X146564051Y-107430815D01*
X146555317Y-107428838D01*
X146550540Y-107421264D01*
X146550371Y-107419322D01*
X146549708Y-107132534D01*
X146553116Y-107124254D01*
X146758217Y-106920493D01*
X146766499Y-106917095D01*
X146774135Y-106919963D01*
G37*
%TD.AperFunction*%
%TD*%
%TA.AperFunction,Conductor*%
%TO.N,/I2C2_SCL*%
G36*
X139768646Y-97884225D02*
G01*
X139771187Y-97888032D01*
X139967150Y-98362587D01*
X139967141Y-98371542D01*
X139960846Y-98377849D01*
X139694510Y-98489115D01*
X139685555Y-98489142D01*
X139685490Y-98489115D01*
X139419228Y-98377880D01*
X139412915Y-98371529D01*
X139412941Y-98362575D01*
X139612785Y-97887957D01*
X139619154Y-97881663D01*
X139623568Y-97880798D01*
X139760373Y-97880798D01*
X139768646Y-97884225D01*
G37*
%TD.AperFunction*%
%TD*%
%TA.AperFunction,Conductor*%
%TO.N,/I2C2_SDA*%
G36*
X140768798Y-97875418D02*
G01*
X140771257Y-97879030D01*
X140976871Y-98352474D01*
X140977023Y-98361428D01*
X140970800Y-98367867D01*
X140970649Y-98367931D01*
X140704510Y-98479115D01*
X140695555Y-98479142D01*
X140695490Y-98479115D01*
X140429050Y-98367806D01*
X140422737Y-98361455D01*
X140422703Y-98352651D01*
X140612852Y-97879328D01*
X140619116Y-97872930D01*
X140623709Y-97871991D01*
X140760525Y-97871991D01*
X140768798Y-97875418D01*
G37*
%TD.AperFunction*%
%TD*%
%TA.AperFunction,Conductor*%
%TO.N,/I2C2_SDA*%
G36*
X146841386Y-106280058D02*
G01*
X146847585Y-106286142D01*
X147051490Y-106749625D01*
X147051685Y-106758578D01*
X147049054Y-106762610D01*
X146952303Y-106859361D01*
X146944030Y-106862788D01*
X146939875Y-106862025D01*
X146887786Y-106842238D01*
X146884267Y-106840133D01*
X146861056Y-106819958D01*
X146861054Y-106819957D01*
X146861051Y-106819954D01*
X146850542Y-106813692D01*
X146847689Y-106811303D01*
X146836411Y-106798288D01*
X146731834Y-106731081D01*
X146672196Y-106713569D01*
X146612560Y-106696058D01*
X146612559Y-106696058D01*
X146505129Y-106696058D01*
X146500974Y-106695295D01*
X146455981Y-106678203D01*
X146449464Y-106672062D01*
X146449199Y-106663111D01*
X146449298Y-106662856D01*
X146558827Y-106396151D01*
X146565140Y-106389801D01*
X146832433Y-106280031D01*
X146841386Y-106280058D01*
G37*
%TD.AperFunction*%
%TD*%
M02*
