%TF.GenerationSoftware,KiCad,Pcbnew,7.0.6*%
%TF.CreationDate,2024-01-08T01:59:36+08:00*%
%TF.ProjectId,CawBMS,43617742-4d53-42e6-9b69-6361645f7063,rev?*%
%TF.SameCoordinates,Original*%
%TF.FileFunction,Soldermask,Top*%
%TF.FilePolarity,Negative*%
%FSLAX46Y46*%
G04 Gerber Fmt 4.6, Leading zero omitted, Abs format (unit mm)*
G04 Created by KiCad (PCBNEW 7.0.6) date 2024-01-08 01:59:36*
%MOMM*%
%LPD*%
G01*
G04 APERTURE LIST*
G04 Aperture macros list*
%AMRoundRect*
0 Rectangle with rounded corners*
0 $1 Rounding radius*
0 $2 $3 $4 $5 $6 $7 $8 $9 X,Y pos of 4 corners*
0 Add a 4 corners polygon primitive as box body*
4,1,4,$2,$3,$4,$5,$6,$7,$8,$9,$2,$3,0*
0 Add four circle primitives for the rounded corners*
1,1,$1+$1,$2,$3*
1,1,$1+$1,$4,$5*
1,1,$1+$1,$6,$7*
1,1,$1+$1,$8,$9*
0 Add four rect primitives between the rounded corners*
20,1,$1+$1,$2,$3,$4,$5,0*
20,1,$1+$1,$4,$5,$6,$7,0*
20,1,$1+$1,$6,$7,$8,$9,0*
20,1,$1+$1,$8,$9,$2,$3,0*%
G04 Aperture macros list end*
%ADD10C,0.700000*%
%ADD11C,4.400000*%
%ADD12R,0.749000X1.300000*%
%ADD13R,4.560000X4.000000*%
%ADD14RoundRect,0.150000X0.200000X-0.150000X0.200000X0.150000X-0.200000X0.150000X-0.200000X-0.150000X0*%
%ADD15RoundRect,0.155000X-0.212500X-0.155000X0.212500X-0.155000X0.212500X0.155000X-0.212500X0.155000X0*%
%ADD16RoundRect,0.160000X-0.197500X-0.160000X0.197500X-0.160000X0.197500X0.160000X-0.197500X0.160000X0*%
%ADD17RoundRect,0.249999X-0.450001X-1.425001X0.450001X-1.425001X0.450001X1.425001X-0.450001X1.425001X0*%
%ADD18R,0.500000X1.700000*%
%ADD19R,1.200000X2.500000*%
%ADD20RoundRect,0.155000X-0.155000X0.212500X-0.155000X-0.212500X0.155000X-0.212500X0.155000X0.212500X0*%
%ADD21RoundRect,0.050800X0.400000X0.850000X-0.400000X0.850000X-0.400000X-0.850000X0.400000X-0.850000X0*%
%ADD22RoundRect,0.250000X-0.650000X1.500000X-0.650000X-1.500000X0.650000X-1.500000X0.650000X1.500000X0*%
%ADD23RoundRect,0.237500X-0.237500X0.300000X-0.237500X-0.300000X0.237500X-0.300000X0.237500X0.300000X0*%
%ADD24RoundRect,0.160000X0.160000X-0.197500X0.160000X0.197500X-0.160000X0.197500X-0.160000X-0.197500X0*%
%ADD25RoundRect,0.250001X1.074999X-0.462499X1.074999X0.462499X-1.074999X0.462499X-1.074999X-0.462499X0*%
%ADD26RoundRect,0.160000X-0.222500X-0.160000X0.222500X-0.160000X0.222500X0.160000X-0.222500X0.160000X0*%
%ADD27RoundRect,0.250000X0.250000X0.250000X-0.250000X0.250000X-0.250000X-0.250000X0.250000X-0.250000X0*%
%ADD28RoundRect,0.155000X0.212500X0.155000X-0.212500X0.155000X-0.212500X-0.155000X0.212500X-0.155000X0*%
%ADD29RoundRect,0.237500X-0.300000X-0.237500X0.300000X-0.237500X0.300000X0.237500X-0.300000X0.237500X0*%
%ADD30R,0.150000X0.250000*%
%ADD31R,0.500000X0.250000*%
%ADD32RoundRect,0.160000X0.197500X0.160000X-0.197500X0.160000X-0.197500X-0.160000X0.197500X-0.160000X0*%
%ADD33RoundRect,0.237500X0.237500X-0.300000X0.237500X0.300000X-0.237500X0.300000X-0.237500X-0.300000X0*%
%ADD34RoundRect,0.050800X-0.400000X-0.850000X0.400000X-0.850000X0.400000X0.850000X-0.400000X0.850000X0*%
%ADD35RoundRect,1.500000X-1.000000X-1.000000X1.000000X-1.000000X1.000000X1.000000X-1.000000X1.000000X0*%
%ADD36RoundRect,0.250000X0.650000X-1.500000X0.650000X1.500000X-0.650000X1.500000X-0.650000X-1.500000X0*%
%ADD37R,1.700000X0.500000*%
%ADD38R,2.500000X1.200000*%
%ADD39O,0.350000X0.840000*%
%ADD40R,2.400000X1.650000*%
%ADD41RoundRect,0.237500X-0.237500X0.287500X-0.237500X-0.287500X0.237500X-0.287500X0.237500X0.287500X0*%
%ADD42RoundRect,0.155000X0.155000X-0.212500X0.155000X0.212500X-0.155000X0.212500X-0.155000X-0.212500X0*%
%ADD43O,0.607000X0.364000*%
%ADD44R,1.000000X1.600000*%
%ADD45RoundRect,0.075000X-0.662500X-0.075000X0.662500X-0.075000X0.662500X0.075000X-0.662500X0.075000X0*%
%ADD46RoundRect,0.075000X-0.075000X-0.662500X0.075000X-0.662500X0.075000X0.662500X-0.075000X0.662500X0*%
%ADD47R,1.700000X0.650000*%
%ADD48O,1.742000X0.364000*%
%ADD49RoundRect,0.150000X-0.587500X-0.150000X0.587500X-0.150000X0.587500X0.150000X-0.587500X0.150000X0*%
%ADD50RoundRect,0.237500X0.300000X0.237500X-0.300000X0.237500X-0.300000X-0.237500X0.300000X-0.237500X0*%
G04 APERTURE END LIST*
D10*
%TO.C,H4*%
X159350000Y-113500000D03*
X159833274Y-112333274D03*
X159833274Y-114666726D03*
X161000000Y-111850000D03*
D11*
X161000000Y-113500000D03*
D10*
X161000000Y-115150000D03*
X162166726Y-112333274D03*
X162166726Y-114666726D03*
X162650000Y-113500000D03*
%TD*%
D12*
%TO.C,Q6*%
X133985000Y-123165000D03*
X132715000Y-123165000D03*
X131445000Y-123165000D03*
X130175000Y-123165000D03*
X130175000Y-128803000D03*
X131445000Y-128803000D03*
X132715000Y-128803000D03*
X133985000Y-128778000D03*
D13*
X132080000Y-126721000D03*
%TD*%
D14*
%TO.C,D12*%
X149663176Y-118986000D03*
X149663176Y-120386000D03*
%TD*%
D15*
%TO.C,C3*%
X151070500Y-101092000D03*
X152205500Y-101092000D03*
%TD*%
D16*
%TO.C,R21*%
X124087000Y-102538444D03*
X125282000Y-102538444D03*
%TD*%
D17*
%TO.C,R34*%
X121662000Y-127762000D03*
X127762000Y-127762000D03*
%TD*%
D18*
%TO.C,CN1*%
X133834000Y-97077000D03*
X132834000Y-97077000D03*
X131834000Y-97077000D03*
X130834000Y-97077000D03*
D19*
X134934000Y-93677000D03*
X129734000Y-93677000D03*
%TD*%
D10*
%TO.C,H2*%
X159350000Y-94500000D03*
X159833274Y-93333274D03*
X159833274Y-95666726D03*
X161000000Y-92850000D03*
D11*
X161000000Y-94500000D03*
D10*
X161000000Y-96150000D03*
X162166726Y-93333274D03*
X162166726Y-95666726D03*
X162650000Y-94500000D03*
%TD*%
D16*
%TO.C,R27*%
X124087000Y-111125000D03*
X125282000Y-111125000D03*
%TD*%
D20*
%TO.C,C10*%
X126873000Y-99782000D03*
X126873000Y-100917000D03*
%TD*%
D12*
%TO.C,Q8*%
X146007666Y-123165000D03*
X144737666Y-123165000D03*
X143467666Y-123165000D03*
X142197666Y-123165000D03*
X142197666Y-128803000D03*
X143467666Y-128803000D03*
X144737666Y-128803000D03*
X146007666Y-128778000D03*
D13*
X144102666Y-126721000D03*
%TD*%
D16*
%TO.C,R24*%
X124087000Y-106813777D03*
X125282000Y-106813777D03*
%TD*%
D21*
%TO.C,SW1*%
X123683500Y-93726000D03*
X120283500Y-93726000D03*
%TD*%
D10*
%TO.C,H1*%
X110850000Y-94500000D03*
X111333274Y-93333274D03*
X111333274Y-95666726D03*
X112500000Y-92850000D03*
D11*
X112500000Y-94500000D03*
D10*
X112500000Y-96150000D03*
X113666726Y-93333274D03*
X113666726Y-95666726D03*
X114150000Y-94500000D03*
%TD*%
D22*
%TO.C,D9*%
X118110000Y-120436000D03*
X118110000Y-125436000D03*
%TD*%
D23*
%TO.C,C26*%
X139888088Y-119178500D03*
X139888088Y-120903500D03*
%TD*%
D16*
%TO.C,R37*%
X115902500Y-115443000D03*
X117097500Y-115443000D03*
%TD*%
D24*
%TO.C,R40*%
X151229448Y-120088500D03*
X151229448Y-118893500D03*
%TD*%
D14*
%TO.C,D4*%
X122398500Y-96963000D03*
X122398500Y-98363000D03*
%TD*%
D16*
%TO.C,R16*%
X117766500Y-108839000D03*
X118961500Y-108839000D03*
%TD*%
D20*
%TO.C,C23*%
X126492000Y-114494500D03*
X126492000Y-115629500D03*
%TD*%
D25*
%TO.C,L2*%
X146939000Y-115660500D03*
X146939000Y-112685500D03*
%TD*%
D14*
%TO.C,D8*%
X122398500Y-108139000D03*
X122398500Y-109539000D03*
%TD*%
D26*
%TO.C,L1*%
X138881500Y-108966000D03*
X140026500Y-108966000D03*
%TD*%
D27*
%TO.C,D11*%
X144125000Y-119380000D03*
X141625000Y-119380000D03*
%TD*%
D28*
%TO.C,C18*%
X140013500Y-112268000D03*
X138878500Y-112268000D03*
%TD*%
D29*
%TO.C,C28*%
X154712500Y-117348000D03*
X156437500Y-117348000D03*
%TD*%
D16*
%TO.C,R12*%
X117766500Y-97663000D03*
X118961500Y-97663000D03*
%TD*%
%TO.C,R25*%
X124087000Y-108238888D03*
X125282000Y-108238888D03*
%TD*%
D30*
%TO.C,Q1*%
X120445500Y-97988000D03*
X120795500Y-97988000D03*
D31*
X120620500Y-97338000D03*
%TD*%
D16*
%TO.C,R38*%
X135965000Y-101727000D03*
X137160000Y-101727000D03*
%TD*%
D20*
%TO.C,C12*%
X126873000Y-105585000D03*
X126873000Y-106720000D03*
%TD*%
D18*
%TO.C,CN2*%
X140692000Y-97077000D03*
X139692000Y-97077000D03*
X138692000Y-97077000D03*
X137692000Y-97077000D03*
D19*
X141792000Y-93677000D03*
X136592000Y-93677000D03*
%TD*%
D28*
%TO.C,C6*%
X140021500Y-107696000D03*
X138886500Y-107696000D03*
%TD*%
D32*
%TO.C,R28*%
X137160000Y-106426000D03*
X135965000Y-106426000D03*
%TD*%
%TO.C,R5*%
X143980500Y-112014000D03*
X142785500Y-112014000D03*
%TD*%
D33*
%TO.C,C27*%
X152825720Y-120903500D03*
X152825720Y-119178500D03*
%TD*%
D12*
%TO.C,Q9*%
X152019000Y-123165000D03*
X150749000Y-123165000D03*
X149479000Y-123165000D03*
X148209000Y-123165000D03*
X148209000Y-128803000D03*
X149479000Y-128803000D03*
X150749000Y-128803000D03*
X152019000Y-128778000D03*
D13*
X150114000Y-126721000D03*
%TD*%
D30*
%TO.C,Q2*%
X120445500Y-100782000D03*
X120795500Y-100782000D03*
D31*
X120620500Y-100132000D03*
%TD*%
D15*
%TO.C,C5*%
X154372500Y-102489000D03*
X155507500Y-102489000D03*
%TD*%
D34*
%TO.C,SW2*%
X124919000Y-93726000D03*
X128319000Y-93726000D03*
%TD*%
D16*
%TO.C,R20*%
X124087000Y-101113333D03*
X125282000Y-101113333D03*
%TD*%
D35*
%TO.C,H7*%
X160528000Y-126627000D03*
%TD*%
D36*
%TO.C,D10*%
X155702000Y-125391000D03*
X155702000Y-120391000D03*
%TD*%
D18*
%TO.C,CN3*%
X156456000Y-96950000D03*
X155456000Y-96950000D03*
X154456000Y-96950000D03*
X153456000Y-96950000D03*
X152456000Y-96950000D03*
X151456000Y-96950000D03*
D19*
X150356000Y-93550000D03*
X157556000Y-93550000D03*
%TD*%
D30*
%TO.C,Q5*%
X120445500Y-109164000D03*
X120795500Y-109164000D03*
D31*
X120620500Y-108514000D03*
%TD*%
D20*
%TO.C,C11*%
X126873000Y-102683500D03*
X126873000Y-103818500D03*
%TD*%
D14*
%TO.C,D7*%
X122398500Y-105333750D03*
X122398500Y-106733750D03*
%TD*%
D30*
%TO.C,Q3*%
X120445500Y-103576000D03*
X120795500Y-103576000D03*
D31*
X120620500Y-102926000D03*
%TD*%
D32*
%TO.C,R39*%
X144107500Y-117094000D03*
X142912500Y-117094000D03*
%TD*%
D37*
%TO.C,U5*%
X158701000Y-109000000D03*
X158701000Y-108000000D03*
D38*
X162101000Y-106900000D03*
X162101000Y-110100000D03*
%TD*%
D39*
%TO.C,U2*%
X155859000Y-103632000D03*
X155209000Y-103632000D03*
X154559000Y-103632000D03*
X153909000Y-103632000D03*
X153909000Y-106622000D03*
X154559000Y-106622000D03*
X155209000Y-106622000D03*
X155859000Y-106622000D03*
D40*
X154884000Y-105127000D03*
%TD*%
D26*
%TO.C,D2*%
X131761500Y-105533800D03*
X132906500Y-105533800D03*
%TD*%
D32*
%TO.C,R29*%
X137160000Y-105156000D03*
X135965000Y-105156000D03*
%TD*%
D14*
%TO.C,D5*%
X122398500Y-99723250D03*
X122398500Y-101123250D03*
%TD*%
D24*
%TO.C,R35*%
X125349000Y-116802500D03*
X125349000Y-115607500D03*
%TD*%
D28*
%TO.C,C2*%
X149411500Y-110744000D03*
X148276500Y-110744000D03*
%TD*%
D30*
%TO.C,Q4*%
X120445500Y-106370000D03*
X120795500Y-106370000D03*
D31*
X120620500Y-105720000D03*
%TD*%
D24*
%TO.C,R6*%
X156920000Y-109097500D03*
X156920000Y-107902500D03*
%TD*%
D16*
%TO.C,R19*%
X124087000Y-99688222D03*
X125282000Y-99688222D03*
%TD*%
D41*
%TO.C,L3*%
X136175544Y-119166000D03*
X136175544Y-120916000D03*
%TD*%
D33*
%TO.C,C25*%
X138031816Y-120903500D03*
X138031816Y-119178500D03*
%TD*%
D41*
%TO.C,L4*%
X134319272Y-119166000D03*
X134319272Y-120916000D03*
%TD*%
D28*
%TO.C,C1*%
X142688500Y-100465000D03*
X141553500Y-100465000D03*
%TD*%
D16*
%TO.C,R22*%
X124087000Y-103963555D03*
X125282000Y-103963555D03*
%TD*%
D42*
%TO.C,C7*%
X152527000Y-106739500D03*
X152527000Y-105604500D03*
%TD*%
D20*
%TO.C,C9*%
X126873000Y-96880500D03*
X126873000Y-98015500D03*
%TD*%
D37*
%TO.C,CN5*%
X158574000Y-103489000D03*
X158574000Y-102489000D03*
X158574000Y-101489000D03*
X158574000Y-100489000D03*
D38*
X161974000Y-104589000D03*
X161974000Y-99389000D03*
%TD*%
D28*
%TO.C,C4*%
X142688500Y-99322000D03*
X141553500Y-99322000D03*
%TD*%
D15*
%TO.C,C22*%
X124154500Y-114435000D03*
X125289500Y-114435000D03*
%TD*%
D24*
%TO.C,R31*%
X124079000Y-116802500D03*
X124079000Y-115607500D03*
%TD*%
D16*
%TO.C,R15*%
X117766500Y-106045000D03*
X118961500Y-106045000D03*
%TD*%
D17*
%TO.C,R33*%
X121662000Y-123698000D03*
X127762000Y-123698000D03*
%TD*%
D26*
%TO.C,D3*%
X131761500Y-108077000D03*
X132906500Y-108077000D03*
%TD*%
D16*
%TO.C,R9*%
X131736500Y-104262200D03*
X132931500Y-104262200D03*
%TD*%
D42*
%TO.C,C21*%
X122936000Y-115629500D03*
X122936000Y-114494500D03*
%TD*%
D43*
%TO.C,U3*%
X151523000Y-114442000D03*
X151523000Y-113792000D03*
X151523000Y-113142000D03*
X149467000Y-113142000D03*
X149467000Y-113792000D03*
X149467000Y-114442000D03*
D44*
X150495000Y-113792000D03*
%TD*%
D35*
%TO.C,H8*%
X160528000Y-119181000D03*
%TD*%
D16*
%TO.C,R2*%
X141896500Y-98179000D03*
X143091500Y-98179000D03*
%TD*%
D45*
%TO.C,U1*%
X142403500Y-102160000D03*
X142403500Y-102660000D03*
X142403500Y-103160000D03*
X142403500Y-103660000D03*
X142403500Y-104160000D03*
X142403500Y-104660000D03*
X142403500Y-105160000D03*
X142403500Y-105660000D03*
X142403500Y-106160000D03*
X142403500Y-106660000D03*
X142403500Y-107160000D03*
X142403500Y-107660000D03*
D46*
X143816000Y-109072500D03*
X144316000Y-109072500D03*
X144816000Y-109072500D03*
X145316000Y-109072500D03*
X145816000Y-109072500D03*
X146316000Y-109072500D03*
X146816000Y-109072500D03*
X147316000Y-109072500D03*
X147816000Y-109072500D03*
X148316000Y-109072500D03*
X148816000Y-109072500D03*
X149316000Y-109072500D03*
D45*
X150728500Y-107660000D03*
X150728500Y-107160000D03*
X150728500Y-106660000D03*
X150728500Y-106160000D03*
X150728500Y-105660000D03*
X150728500Y-105160000D03*
X150728500Y-104660000D03*
X150728500Y-104160000D03*
X150728500Y-103660000D03*
X150728500Y-103160000D03*
X150728500Y-102660000D03*
X150728500Y-102160000D03*
D46*
X149316000Y-100747500D03*
X148816000Y-100747500D03*
X148316000Y-100747500D03*
X147816000Y-100747500D03*
X147316000Y-100747500D03*
X146816000Y-100747500D03*
X146316000Y-100747500D03*
X145816000Y-100747500D03*
X145316000Y-100747500D03*
X144816000Y-100747500D03*
X144316000Y-100747500D03*
X143816000Y-100747500D03*
%TD*%
D35*
%TO.C,H6*%
X113030000Y-119173000D03*
%TD*%
D47*
%TO.C,X1*%
X139454000Y-101424000D03*
D37*
X139454000Y-102624000D03*
D47*
X139454000Y-103824000D03*
%TD*%
D26*
%TO.C,D1*%
X131761500Y-102990600D03*
X132906500Y-102990600D03*
%TD*%
D16*
%TO.C,R30*%
X135927500Y-109220000D03*
X137122500Y-109220000D03*
%TD*%
%TO.C,R26*%
X124087000Y-109664000D03*
X125282000Y-109664000D03*
%TD*%
D48*
%TO.C,U4*%
X136737000Y-116090000D03*
X136737000Y-115440000D03*
X136737000Y-114790000D03*
X136737000Y-114140000D03*
X136737000Y-113490000D03*
X136737000Y-112840000D03*
X136737000Y-112190000D03*
X136737000Y-111540000D03*
X136737000Y-110890000D03*
X136737000Y-110240000D03*
X130995000Y-110240000D03*
X130995000Y-110890000D03*
X130995000Y-111540000D03*
X130995000Y-112190000D03*
X130995000Y-112840000D03*
X130995000Y-113490000D03*
X130995000Y-114140000D03*
X130995000Y-114790000D03*
X130995000Y-115440000D03*
X130995000Y-116090000D03*
%TD*%
D35*
%TO.C,H5*%
X113030000Y-126492000D03*
%TD*%
D17*
%TO.C,R32*%
X121662000Y-119634000D03*
X127762000Y-119634000D03*
%TD*%
D32*
%TO.C,R3*%
X140043500Y-106426000D03*
X138848500Y-106426000D03*
%TD*%
D10*
%TO.C,H3*%
X110850000Y-113500000D03*
X111333274Y-112333274D03*
X111333274Y-114666726D03*
X112500000Y-111850000D03*
D11*
X112500000Y-113500000D03*
D10*
X112500000Y-115150000D03*
X113666726Y-112333274D03*
X113666726Y-114666726D03*
X114150000Y-113500000D03*
%TD*%
D12*
%TO.C,Q7*%
X139996333Y-123165000D03*
X138726333Y-123165000D03*
X137456333Y-123165000D03*
X136186333Y-123165000D03*
X136186333Y-128803000D03*
X137456333Y-128803000D03*
X138726333Y-128803000D03*
X139996333Y-128778000D03*
D13*
X138091333Y-126721000D03*
%TD*%
D41*
%TO.C,L5*%
X145980632Y-119166000D03*
X145980632Y-120916000D03*
%TD*%
D16*
%TO.C,R17*%
X124087000Y-96838000D03*
X125282000Y-96838000D03*
%TD*%
D15*
%TO.C,C15*%
X138886500Y-110236000D03*
X140021500Y-110236000D03*
%TD*%
D24*
%TO.C,R36*%
X132723000Y-120088500D03*
X132723000Y-118893500D03*
%TD*%
D16*
%TO.C,R1*%
X145841500Y-110744000D03*
X147036500Y-110744000D03*
%TD*%
D18*
%TO.C,CN4*%
X147550000Y-97077000D03*
X146550000Y-97077000D03*
X145550000Y-97077000D03*
X144550000Y-97077000D03*
D19*
X148650000Y-93677000D03*
X143450000Y-93677000D03*
%TD*%
D49*
%TO.C,Q10*%
X139349000Y-115382000D03*
X139349000Y-117282000D03*
X141224000Y-116332000D03*
%TD*%
D16*
%TO.C,R8*%
X135965000Y-104013000D03*
X137160000Y-104013000D03*
%TD*%
D28*
%TO.C,C8*%
X140021500Y-105164000D03*
X138886500Y-105164000D03*
%TD*%
D20*
%TO.C,C14*%
X126873000Y-111167500D03*
X126873000Y-112302500D03*
%TD*%
D34*
%TO.C,SW3*%
X115648000Y-93726000D03*
X119048000Y-93726000D03*
%TD*%
D20*
%TO.C,C13*%
X126873000Y-108486500D03*
X126873000Y-109621500D03*
%TD*%
D28*
%TO.C,C17*%
X134044500Y-109220000D03*
X132909500Y-109220000D03*
%TD*%
%TO.C,C24*%
X137130000Y-102870000D03*
X135995000Y-102870000D03*
%TD*%
D14*
%TO.C,D6*%
X122398500Y-102528500D03*
X122398500Y-103928500D03*
%TD*%
D32*
%TO.C,R4*%
X143980500Y-110744000D03*
X142785500Y-110744000D03*
%TD*%
D41*
%TO.C,L6*%
X147836904Y-119166000D03*
X147836904Y-120916000D03*
%TD*%
D16*
%TO.C,R14*%
X117766500Y-103251000D03*
X118961500Y-103251000D03*
%TD*%
%TO.C,R10*%
X131736500Y-106805400D03*
X132931500Y-106805400D03*
%TD*%
%TO.C,R7*%
X131736500Y-101719000D03*
X132931500Y-101719000D03*
%TD*%
D20*
%TO.C,C20*%
X152908000Y-113177500D03*
X152908000Y-114312500D03*
%TD*%
D16*
%TO.C,R23*%
X124087000Y-105388666D03*
X125282000Y-105388666D03*
%TD*%
D50*
%TO.C,C19*%
X136879500Y-107823000D03*
X135154500Y-107823000D03*
%TD*%
D16*
%TO.C,R13*%
X117766500Y-100457000D03*
X118961500Y-100457000D03*
%TD*%
D37*
%TO.C,CN6*%
X114984000Y-100751000D03*
X114984000Y-101751000D03*
X114984000Y-102751000D03*
X114984000Y-103751000D03*
X114984000Y-104751000D03*
X114984000Y-105751000D03*
D38*
X111584000Y-106851000D03*
X111584000Y-99651000D03*
%TD*%
D16*
%TO.C,R18*%
X124087000Y-98263111D03*
X125282000Y-98263111D03*
%TD*%
D15*
%TO.C,C16*%
X149927500Y-115443000D03*
X151062500Y-115443000D03*
%TD*%
M02*
