%TF.GenerationSoftware,KiCad,Pcbnew,8.0.3-8.0.3-0~ubuntu24.04.1*%
%TF.CreationDate,2024-07-11T14:27:15+08:00*%
%TF.ProjectId,CawBMS,43617742-4d53-42e6-9b69-6361645f7063,rev?*%
%TF.SameCoordinates,Original*%
%TF.FileFunction,Copper,L4,Bot*%
%TF.FilePolarity,Positive*%
%FSLAX46Y46*%
G04 Gerber Fmt 4.6, Leading zero omitted, Abs format (unit mm)*
G04 Created by KiCad (PCBNEW 8.0.3-8.0.3-0~ubuntu24.04.1) date 2024-07-11 14:27:15*
%MOMM*%
%LPD*%
G01*
G04 APERTURE LIST*
G04 Aperture macros list*
%AMRoundRect*
0 Rectangle with rounded corners*
0 $1 Rounding radius*
0 $2 $3 $4 $5 $6 $7 $8 $9 X,Y pos of 4 corners*
0 Add a 4 corners polygon primitive as box body*
4,1,4,$2,$3,$4,$5,$6,$7,$8,$9,$2,$3,0*
0 Add four circle primitives for the rounded corners*
1,1,$1+$1,$2,$3*
1,1,$1+$1,$4,$5*
1,1,$1+$1,$6,$7*
1,1,$1+$1,$8,$9*
0 Add four rect primitives between the rounded corners*
20,1,$1+$1,$2,$3,$4,$5,0*
20,1,$1+$1,$4,$5,$6,$7,0*
20,1,$1+$1,$6,$7,$8,$9,0*
20,1,$1+$1,$8,$9,$2,$3,0*%
G04 Aperture macros list end*
%TA.AperFunction,ComponentPad*%
%ADD10C,0.700000*%
%TD*%
%TA.AperFunction,ComponentPad*%
%ADD11C,4.400000*%
%TD*%
%TA.AperFunction,ComponentPad*%
%ADD12RoundRect,1.500000X-1.000000X-1.000000X1.000000X-1.000000X1.000000X1.000000X-1.000000X1.000000X0*%
%TD*%
%TA.AperFunction,ViaPad*%
%ADD13C,0.609600*%
%TD*%
%TA.AperFunction,ViaPad*%
%ADD14C,1.016000*%
%TD*%
%TA.AperFunction,Conductor*%
%ADD15C,0.508000*%
%TD*%
%TA.AperFunction,Conductor*%
%ADD16C,0.254000*%
%TD*%
%TA.AperFunction,Conductor*%
%ADD17C,0.152400*%
%TD*%
G04 APERTURE END LIST*
D10*
%TO.P,H4,1,1*%
%TO.N,unconnected-(H4-Pad1)*%
X159350000Y-113500000D03*
X159833274Y-112333274D03*
X159833274Y-114666726D03*
X161000000Y-111850000D03*
D11*
X161000000Y-113500000D03*
D10*
X161000000Y-115150000D03*
X162166726Y-112333274D03*
X162166726Y-114666726D03*
X162650000Y-113500000D03*
%TD*%
%TO.P,H2,1,1*%
%TO.N,unconnected-(H2-Pad1)*%
X159350000Y-94500000D03*
X159833274Y-93333274D03*
X159833274Y-95666726D03*
X161000000Y-92850000D03*
D11*
X161000000Y-94500000D03*
D10*
X161000000Y-96150000D03*
X162166726Y-93333274D03*
X162166726Y-95666726D03*
X162650000Y-94500000D03*
%TD*%
%TO.P,H1,1,1*%
%TO.N,unconnected-(H1-Pad1)*%
X110850000Y-94500000D03*
X111333274Y-93333274D03*
X111333274Y-95666726D03*
X112500000Y-92850000D03*
D11*
X112500000Y-94500000D03*
D10*
X112500000Y-96150000D03*
X113666726Y-93333274D03*
X113666726Y-95666726D03*
X114150000Y-94500000D03*
%TD*%
D12*
%TO.P,H7,1,1*%
%TO.N,PACK+*%
X160528000Y-126627000D03*
%TD*%
%TO.P,H8,1,1*%
%TO.N,PACK-*%
X160528000Y-119181000D03*
%TD*%
%TO.P,H6,1,1*%
%TO.N,-BATT*%
X113030000Y-119173000D03*
%TD*%
%TO.P,H5,1,1*%
%TO.N,PACK+*%
X113030000Y-126492000D03*
%TD*%
D10*
%TO.P,H3,1,1*%
%TO.N,unconnected-(H3-Pad1)*%
X110850000Y-113500000D03*
X111333274Y-112333274D03*
X111333274Y-114666726D03*
X112500000Y-111850000D03*
D11*
X112500000Y-113500000D03*
D10*
X112500000Y-115150000D03*
X113666726Y-112333274D03*
X113666726Y-114666726D03*
X114150000Y-113500000D03*
%TD*%
D13*
%TO.N,+3.3V*%
X143250000Y-101490000D03*
X138049000Y-108966000D03*
X154559000Y-115450000D03*
X153289000Y-115443000D03*
X159880000Y-100520000D03*
X133820000Y-103000000D03*
X150210000Y-100830000D03*
X143300000Y-100010000D03*
X138460000Y-111320000D03*
X148732000Y-113106700D03*
X131840000Y-95740000D03*
X151460000Y-95620000D03*
X153924000Y-115443000D03*
X152527000Y-107569000D03*
X133800000Y-108410000D03*
X133760000Y-105530000D03*
X150241000Y-110744000D03*
X144570000Y-95760000D03*
X135128000Y-104013000D03*
X144018000Y-111379000D03*
X137700000Y-95750000D03*
X138890000Y-110860000D03*
%TO.N,GND*%
X140716000Y-115316000D03*
X126111000Y-112302500D03*
X152778012Y-104689298D03*
X155702000Y-105537000D03*
X133860000Y-95720000D03*
X138049000Y-105791000D03*
X152200000Y-100350000D03*
X132830000Y-95720000D03*
X150495000Y-113411000D03*
X140804604Y-112229604D03*
X156210000Y-101996500D03*
X144310000Y-101850000D03*
X138049000Y-107061000D03*
D14*
X118210000Y-115440000D03*
D13*
X151892000Y-114808000D03*
D14*
X121920000Y-115570000D03*
D13*
X145540000Y-95750000D03*
X151892000Y-115443000D03*
X141859000Y-97409000D03*
X127400000Y-93720000D03*
X159880000Y-101500000D03*
X135128000Y-102870000D03*
X150495000Y-114173000D03*
D14*
X127508000Y-115570000D03*
D13*
X145034000Y-110744000D03*
X148336000Y-111506000D03*
X154051000Y-105537000D03*
X141505857Y-101164143D03*
X154940000Y-105537000D03*
X135255000Y-114808000D03*
X133731000Y-106807000D03*
X154051000Y-104648000D03*
X154940000Y-104648000D03*
X155702000Y-104648000D03*
X138049000Y-107696000D03*
X140510000Y-102970000D03*
X138700000Y-95760000D03*
X152470000Y-95620000D03*
X140843000Y-110236000D03*
X132080000Y-109220000D03*
X141478000Y-115316000D03*
X122790000Y-93730000D03*
X134046000Y-107630000D03*
X138049000Y-106426000D03*
X138049000Y-105156000D03*
%TO.N,+5V*%
X130860000Y-95791400D03*
X152908000Y-112395000D03*
X153416000Y-102362000D03*
%TO.N,/BQ76920/VC1*%
X115650000Y-95270000D03*
X126170000Y-106290000D03*
%TO.N,/BQ76920/BAT*%
X113752000Y-100751000D03*
X135001000Y-109220000D03*
%TO.N,/ALERT*%
X138049000Y-102870000D03*
X132320000Y-116050000D03*
%TO.N,Net-(C25-Pad1)*%
X139954000Y-122809000D03*
X137414000Y-122174000D03*
X131445000Y-122809000D03*
X135255000Y-122809000D03*
X132715000Y-122174000D03*
X133985000Y-122174000D03*
X131445000Y-122174000D03*
X137414000Y-122809000D03*
D14*
X127762000Y-120904000D03*
D13*
X132715000Y-122809000D03*
X135255000Y-122174000D03*
X138684000Y-122174000D03*
X139954000Y-122174000D03*
D14*
X127762000Y-117094000D03*
D13*
X133985000Y-122809000D03*
D14*
X127762000Y-118872000D03*
D13*
X138684000Y-122809000D03*
%TO.N,PACK-*%
X150749000Y-122809000D03*
X146050000Y-122809000D03*
X149479000Y-122174000D03*
X147193000Y-122174000D03*
X152019000Y-122809000D03*
D14*
X155702000Y-119380000D03*
X155702000Y-121412000D03*
D13*
X143510000Y-122809000D03*
X149479000Y-122809000D03*
X144780000Y-122809000D03*
X147193000Y-122809000D03*
X146050000Y-122174000D03*
X143510000Y-122174000D03*
X150749000Y-122174000D03*
X144780000Y-122174000D03*
D14*
X141223500Y-120903500D03*
D13*
X152019000Y-122174000D03*
D14*
%TO.N,PACK+*%
X155702000Y-124206000D03*
X155702000Y-126238000D03*
%TO.N,-BATT*%
X121666000Y-119634000D03*
X121666000Y-120904000D03*
X118110000Y-119634000D03*
X118110000Y-121158000D03*
X121666000Y-118364000D03*
D13*
%TO.N,/SWDIO*%
X149410000Y-103180000D03*
X159950000Y-103500000D03*
%TO.N,/SWCLK*%
X149350000Y-102170000D03*
X159930000Y-102490000D03*
D14*
%TO.N,Net-(Q6-D-Pad5)*%
X142240000Y-125222000D03*
X144272000Y-125222000D03*
X136144000Y-125222000D03*
X148336000Y-125222000D03*
X133350000Y-125222000D03*
X152400000Y-125222000D03*
X139192000Y-125222000D03*
X145288000Y-125222000D03*
X149352000Y-125222000D03*
X146304000Y-125222000D03*
X151384000Y-125222000D03*
X134366000Y-125222000D03*
X140208000Y-125222000D03*
X137160000Y-125222000D03*
X130302000Y-125222000D03*
X132334000Y-125222000D03*
X138176000Y-125222000D03*
X150368000Y-125222000D03*
X131318000Y-125222000D03*
X143256000Y-125222000D03*
D13*
%TO.N,/I2C1_SCL*%
X142740143Y-109929857D03*
X145416100Y-102608036D03*
%TO.N,/I2C1_SDA*%
X142772223Y-109194454D03*
X144680000Y-102610000D03*
%TO.N,/LED_A*%
X133950000Y-101740000D03*
X143799667Y-102930110D03*
%TO.N,/LED_B*%
X133760000Y-104340784D03*
X143750000Y-103670000D03*
%TO.N,Net-(U4-TS1)*%
X135128000Y-112776000D03*
X135150000Y-106426000D03*
%TO.N,/KEY_A*%
X124930000Y-95233100D03*
X148290000Y-105240000D03*
%TO.N,/CAN_STB*%
X152042699Y-104655211D03*
X156464000Y-106934000D03*
%TO.N,/CAN_TX*%
X156386960Y-103122302D03*
X152041393Y-103526893D03*
%TO.N,/I2C2_SCL*%
X139690000Y-98490000D03*
X146550404Y-107128358D03*
%TO.N,/I2C2_SDA*%
X146561391Y-106392338D03*
X140700000Y-98480000D03*
%TD*%
D15*
%TO.N,+5V*%
X130860000Y-95750132D02*
X131720132Y-94890000D01*
X131720132Y-94890000D02*
X140840000Y-94890000D01*
X140840000Y-94890000D02*
X146940000Y-100990000D01*
X152905000Y-112395000D02*
X152908000Y-112395000D01*
X146940000Y-100990000D02*
X146940000Y-104922632D01*
X152236418Y-102362000D02*
X153416000Y-102362000D01*
X130860000Y-95791400D02*
X130860000Y-95750132D01*
X149013300Y-106995932D02*
X149013300Y-108503300D01*
X151355593Y-103242825D02*
X152236418Y-102362000D01*
X152900000Y-112387000D02*
X152900000Y-108911868D01*
X146940000Y-104922632D02*
X149013300Y-106995932D01*
X152908000Y-112395000D02*
X152900000Y-112387000D01*
X149013300Y-108503300D02*
X152905000Y-112395000D01*
X151355593Y-107367461D02*
X151355593Y-103242825D01*
X152900000Y-108911868D02*
X151355593Y-107367461D01*
D16*
%TO.N,/BQ76920/VC1*%
X117729000Y-106045000D02*
X113030000Y-101346000D01*
X126170000Y-106290000D02*
X125925000Y-106045000D01*
X115510000Y-96390000D02*
X115650000Y-96250000D01*
X113030000Y-101346000D02*
X113030000Y-98870000D01*
X113030000Y-98870000D02*
X115510000Y-96390000D01*
X125925000Y-106045000D02*
X117729000Y-106045000D01*
X115650000Y-96250000D02*
X115650000Y-95270000D01*
D15*
%TO.N,/BQ76920/BAT*%
X113752000Y-101349580D02*
X113752000Y-100751000D01*
X133190000Y-109220000D02*
X129507000Y-105537000D01*
X129507000Y-105537000D02*
X117939420Y-105537000D01*
X135001000Y-109220000D02*
X133190000Y-109220000D01*
X117939420Y-105537000D02*
X113752000Y-101349580D01*
D17*
%TO.N,/ALERT*%
X136144000Y-104775000D02*
X138049000Y-102870000D01*
X136144000Y-112606697D02*
X136144000Y-104775000D01*
X132700697Y-116050000D02*
X136144000Y-112606697D01*
X132320000Y-116050000D02*
X132700697Y-116050000D01*
D15*
%TO.N,PACK-*%
X142233500Y-120903500D02*
X143504000Y-122174000D01*
X141223500Y-120903500D02*
X142233500Y-120903500D01*
X143504000Y-122174000D02*
X143510000Y-122174000D01*
D17*
%TO.N,/SWDIO*%
X151101500Y-101488500D02*
X157938500Y-101488500D01*
X157938500Y-101488500D02*
X159950000Y-103500000D01*
X149410000Y-103180000D02*
X151101500Y-101488500D01*
%TO.N,/SWCLK*%
X150985769Y-101209100D02*
X158649100Y-101209100D01*
X158649100Y-101209100D02*
X159930000Y-102490000D01*
X149350000Y-102170000D02*
X150024868Y-102170000D01*
X150024868Y-102170000D02*
X150985769Y-101209100D01*
%TO.N,/I2C1_SCL*%
X142800143Y-109929857D02*
X142740143Y-109929857D01*
X145186400Y-102837736D02*
X145186400Y-107543599D01*
X145186400Y-107543599D02*
X142800143Y-109929857D01*
X145416100Y-102608036D02*
X145186400Y-102837736D01*
%TO.N,/I2C1_SDA*%
X144680000Y-102610000D02*
X144907000Y-102837000D01*
X144907000Y-102837000D02*
X144907000Y-107427868D01*
X143140414Y-109194454D02*
X142772223Y-109194454D01*
X144907000Y-107427868D02*
X143140414Y-109194454D01*
D16*
%TO.N,/LED_A*%
X142609557Y-101740000D02*
X133950000Y-101740000D01*
X143799667Y-102930110D02*
X142609557Y-101740000D01*
%TO.N,/LED_B*%
X133999216Y-104580000D02*
X135351263Y-104580000D01*
X137620063Y-102311200D02*
X142391200Y-102311200D01*
X142391200Y-102311200D02*
X143750000Y-103670000D01*
X135351263Y-104580000D02*
X137620063Y-102311200D01*
X133760000Y-104340784D02*
X133999216Y-104580000D01*
D17*
%TO.N,Net-(U4-TS1)*%
X135864600Y-112039400D02*
X135128000Y-112776000D01*
X135150000Y-106426000D02*
X135864600Y-107140600D01*
X135864600Y-107140600D02*
X135864600Y-112039400D01*
D16*
%TO.N,/KEY_A*%
X147460000Y-100760000D02*
X141070000Y-94370000D01*
X125793100Y-94370000D02*
X124930000Y-95233100D01*
X148290000Y-105240000D02*
X147460000Y-104410000D01*
X141070000Y-94370000D02*
X125793100Y-94370000D01*
X147460000Y-104410000D02*
X147460000Y-100760000D01*
D17*
%TO.N,/CAN_STB*%
X154305000Y-106934000D02*
X156464000Y-106934000D01*
X152042699Y-104655211D02*
X152042699Y-104671699D01*
X152042699Y-104671699D02*
X154305000Y-106934000D01*
%TO.N,/CAN_TX*%
X156134658Y-102870000D02*
X156386960Y-103122302D01*
X152698286Y-102870000D02*
X156134658Y-102870000D01*
X152041393Y-103526893D02*
X152698286Y-102870000D01*
%TO.N,/I2C2_SCL*%
X146000000Y-102470000D02*
X144512000Y-100982000D01*
X142182000Y-100982000D02*
X139690000Y-98490000D01*
X146000000Y-106577954D02*
X146000000Y-102470000D01*
X146550404Y-107128358D02*
X146000000Y-106577954D01*
X144512000Y-100982000D02*
X142182000Y-100982000D01*
%TO.N,/I2C2_SDA*%
X140700000Y-99104868D02*
X140700000Y-98480000D01*
X142297732Y-100702600D02*
X140700000Y-99104868D01*
X146561391Y-106392338D02*
X146279400Y-106110347D01*
X144627732Y-100702600D02*
X142297732Y-100702600D01*
X146279400Y-102354269D02*
X144627732Y-100702600D01*
X146279400Y-106110347D02*
X146279400Y-102354269D01*
%TD*%
%TA.AperFunction,Conductor*%
%TO.N,Net-(C25-Pad1)*%
G36*
X127117224Y-116505339D02*
G01*
X127120193Y-116506239D01*
X127120196Y-116506241D01*
X127310299Y-116563908D01*
X127310298Y-116563908D01*
X127328024Y-116565653D01*
X127508000Y-116583380D01*
X127705701Y-116563908D01*
X127895804Y-116506241D01*
X127895805Y-116506239D01*
X127898776Y-116505339D01*
X127934771Y-116500000D01*
X131583144Y-116500000D01*
X131650183Y-116519685D01*
X131680921Y-116550739D01*
X131682064Y-116549828D01*
X131686407Y-116555274D01*
X131814725Y-116683592D01*
X131814731Y-116683597D01*
X131968374Y-116780138D01*
X131968377Y-116780140D01*
X131968381Y-116780141D01*
X131968382Y-116780142D01*
X132139670Y-116840078D01*
X132139675Y-116840079D01*
X132319996Y-116860396D01*
X132320000Y-116860396D01*
X132320004Y-116860396D01*
X132500324Y-116840079D01*
X132500327Y-116840078D01*
X132500330Y-116840078D01*
X132671618Y-116780142D01*
X132825274Y-116683593D01*
X132845074Y-116663791D01*
X132866755Y-116646496D01*
X132870945Y-116643863D01*
X132958890Y-116569171D01*
X132977149Y-116556305D01*
X133040579Y-116519685D01*
X133045902Y-116516612D01*
X133107900Y-116500000D01*
X140876000Y-116500000D01*
X140943039Y-116519685D01*
X140988794Y-116572489D01*
X141000000Y-116624000D01*
X141000000Y-119825453D01*
X140980315Y-119892492D01*
X140927511Y-119938247D01*
X140911996Y-119944113D01*
X140835694Y-119967259D01*
X140660501Y-120060901D01*
X140660494Y-120060905D01*
X140506931Y-120186931D01*
X140380905Y-120340494D01*
X140380901Y-120340501D01*
X140287260Y-120515691D01*
X140229591Y-120705800D01*
X140210120Y-120903500D01*
X140229591Y-121101199D01*
X140287260Y-121291308D01*
X140380901Y-121466498D01*
X140380905Y-121466505D01*
X140506931Y-121620068D01*
X140553152Y-121658000D01*
X140660496Y-121746095D01*
X140835696Y-121839741D01*
X140911997Y-121862886D01*
X140970434Y-121901183D01*
X140998890Y-121964995D01*
X141000000Y-121981546D01*
X141000000Y-122870500D01*
X140980315Y-122937539D01*
X140927511Y-122983294D01*
X140876000Y-122994500D01*
X140403636Y-122994500D01*
X140403629Y-122994501D01*
X140263687Y-123014257D01*
X140263686Y-123014257D01*
X140197723Y-123033262D01*
X140197722Y-123033262D01*
X140119643Y-123068199D01*
X140109953Y-123072054D01*
X140034324Y-123098518D01*
X140007254Y-123104696D01*
X139973852Y-123108460D01*
X139967880Y-123109133D01*
X139940118Y-123109133D01*
X139900745Y-123104696D01*
X139873688Y-123098522D01*
X139870492Y-123097404D01*
X139870485Y-123097402D01*
X139798032Y-123072050D01*
X139788340Y-123068193D01*
X139710284Y-123033265D01*
X139710282Y-123033264D01*
X139710281Y-123033264D01*
X139688290Y-123026928D01*
X139644310Y-123014257D01*
X139522426Y-122997050D01*
X139504364Y-122994500D01*
X139133636Y-122994500D01*
X139133629Y-122994501D01*
X138993687Y-123014257D01*
X138993686Y-123014257D01*
X138927723Y-123033262D01*
X138927722Y-123033262D01*
X138849643Y-123068199D01*
X138839953Y-123072054D01*
X138764324Y-123098518D01*
X138737254Y-123104696D01*
X138703852Y-123108460D01*
X138697880Y-123109133D01*
X138670118Y-123109133D01*
X138630745Y-123104696D01*
X138603688Y-123098522D01*
X138600492Y-123097404D01*
X138600485Y-123097402D01*
X138528032Y-123072050D01*
X138518340Y-123068193D01*
X138440284Y-123033265D01*
X138440282Y-123033264D01*
X138440281Y-123033264D01*
X138418290Y-123026928D01*
X138374310Y-123014257D01*
X138252426Y-122997050D01*
X138234364Y-122994500D01*
X137863636Y-122994500D01*
X137863629Y-122994501D01*
X137723687Y-123014257D01*
X137723686Y-123014257D01*
X137657723Y-123033262D01*
X137657722Y-123033262D01*
X137579643Y-123068199D01*
X137569953Y-123072054D01*
X137494324Y-123098518D01*
X137467254Y-123104696D01*
X137433852Y-123108460D01*
X137427880Y-123109133D01*
X137400118Y-123109133D01*
X137360745Y-123104696D01*
X137333688Y-123098522D01*
X137330492Y-123097404D01*
X137330485Y-123097402D01*
X137258032Y-123072050D01*
X137248340Y-123068193D01*
X137170284Y-123033265D01*
X137170282Y-123033264D01*
X137170281Y-123033264D01*
X137148290Y-123026928D01*
X137104310Y-123014257D01*
X136982426Y-122997050D01*
X136964364Y-122994500D01*
X135704636Y-122994500D01*
X135704629Y-122994501D01*
X135564687Y-123014257D01*
X135564686Y-123014257D01*
X135498723Y-123033262D01*
X135498722Y-123033262D01*
X135420643Y-123068199D01*
X135410953Y-123072054D01*
X135335324Y-123098518D01*
X135308254Y-123104696D01*
X135274852Y-123108460D01*
X135268880Y-123109133D01*
X135241118Y-123109133D01*
X135201745Y-123104696D01*
X135174688Y-123098522D01*
X135171492Y-123097404D01*
X135171485Y-123097402D01*
X135099032Y-123072050D01*
X135089340Y-123068193D01*
X135011284Y-123033265D01*
X135011282Y-123033264D01*
X135011281Y-123033264D01*
X134989290Y-123026928D01*
X134945310Y-123014257D01*
X134823426Y-122997050D01*
X134805364Y-122994500D01*
X134434636Y-122994500D01*
X134434629Y-122994501D01*
X134294687Y-123014257D01*
X134294686Y-123014257D01*
X134228723Y-123033262D01*
X134228722Y-123033262D01*
X134150643Y-123068199D01*
X134140953Y-123072054D01*
X134065324Y-123098518D01*
X134038254Y-123104696D01*
X134004852Y-123108460D01*
X133998880Y-123109133D01*
X133971118Y-123109133D01*
X133931745Y-123104696D01*
X133904688Y-123098522D01*
X133901492Y-123097404D01*
X133901485Y-123097402D01*
X133829032Y-123072050D01*
X133819340Y-123068193D01*
X133741284Y-123033265D01*
X133741282Y-123033264D01*
X133741281Y-123033264D01*
X133719290Y-123026928D01*
X133675310Y-123014257D01*
X133553426Y-122997050D01*
X133535364Y-122994500D01*
X133164636Y-122994500D01*
X133164629Y-122994501D01*
X133024687Y-123014257D01*
X133024686Y-123014257D01*
X132958723Y-123033262D01*
X132958722Y-123033262D01*
X132880643Y-123068199D01*
X132870953Y-123072054D01*
X132795324Y-123098518D01*
X132768254Y-123104696D01*
X132734852Y-123108460D01*
X132728880Y-123109133D01*
X132701118Y-123109133D01*
X132661745Y-123104696D01*
X132634688Y-123098522D01*
X132631492Y-123097404D01*
X132631485Y-123097402D01*
X132559032Y-123072050D01*
X132549340Y-123068193D01*
X132471284Y-123033265D01*
X132471282Y-123033264D01*
X132471281Y-123033264D01*
X132449290Y-123026928D01*
X132405310Y-123014257D01*
X132283426Y-122997050D01*
X132265364Y-122994500D01*
X131894636Y-122994500D01*
X131894629Y-122994501D01*
X131754687Y-123014257D01*
X131754686Y-123014257D01*
X131688723Y-123033262D01*
X131688722Y-123033262D01*
X131610643Y-123068199D01*
X131600953Y-123072054D01*
X131525324Y-123098518D01*
X131498254Y-123104696D01*
X131464852Y-123108460D01*
X131458880Y-123109133D01*
X131431118Y-123109133D01*
X131391745Y-123104696D01*
X131364688Y-123098522D01*
X131361492Y-123097404D01*
X131361485Y-123097402D01*
X131289032Y-123072050D01*
X131279340Y-123068193D01*
X131201284Y-123033265D01*
X131201282Y-123033264D01*
X131201281Y-123033264D01*
X131179290Y-123026928D01*
X131135310Y-123014257D01*
X131013426Y-122997050D01*
X130995364Y-122994500D01*
X126124000Y-122994500D01*
X126056961Y-122974815D01*
X126011206Y-122922011D01*
X126000000Y-122870500D01*
X126000000Y-116624000D01*
X126019685Y-116556961D01*
X126072489Y-116511206D01*
X126124000Y-116500000D01*
X127081229Y-116500000D01*
X127117224Y-116505339D01*
G37*
%TD.AperFunction*%
%TD*%
%TA.AperFunction,Conductor*%
%TO.N,PACK-*%
G36*
X163443039Y-116519685D02*
G01*
X163488794Y-116572489D01*
X163500000Y-116624000D01*
X163500000Y-122876000D01*
X163480315Y-122943039D01*
X163427511Y-122988794D01*
X163376000Y-123000000D01*
X142124000Y-123000000D01*
X142056961Y-122980315D01*
X142011206Y-122927511D01*
X142000000Y-122876000D01*
X142000000Y-116624000D01*
X142019685Y-116556961D01*
X142072489Y-116511206D01*
X142124000Y-116500000D01*
X163376000Y-116500000D01*
X163443039Y-116519685D01*
G37*
%TD.AperFunction*%
%TD*%
%TA.AperFunction,Conductor*%
%TO.N,-BATT*%
G36*
X121529224Y-116505339D02*
G01*
X121532193Y-116506239D01*
X121532196Y-116506241D01*
X121722299Y-116563908D01*
X121722298Y-116563908D01*
X121740024Y-116565653D01*
X121920000Y-116583380D01*
X122117701Y-116563908D01*
X122307804Y-116506241D01*
X122307805Y-116506239D01*
X122310776Y-116505339D01*
X122346771Y-116500000D01*
X123376000Y-116500000D01*
X123443039Y-116519685D01*
X123488794Y-116572489D01*
X123500000Y-116624000D01*
X123500000Y-122876000D01*
X123480315Y-122943039D01*
X123427511Y-122988794D01*
X123376000Y-123000000D01*
X110124000Y-123000000D01*
X110056961Y-122980315D01*
X110011206Y-122927511D01*
X110000000Y-122876000D01*
X110000000Y-116624000D01*
X110019685Y-116556961D01*
X110072489Y-116511206D01*
X110124000Y-116500000D01*
X121493229Y-116500000D01*
X121529224Y-116505339D01*
G37*
%TD.AperFunction*%
%TD*%
%TA.AperFunction,Conductor*%
%TO.N,PACK+*%
G36*
X131061337Y-123519007D02*
G01*
X131093379Y-123539140D01*
X131093377Y-123539140D01*
X131093381Y-123539141D01*
X131093382Y-123539142D01*
X131204401Y-123577989D01*
X131264670Y-123599078D01*
X131264675Y-123599079D01*
X131444996Y-123619396D01*
X131445000Y-123619396D01*
X131445004Y-123619396D01*
X131625324Y-123599079D01*
X131625327Y-123599078D01*
X131625330Y-123599078D01*
X131796618Y-123539142D01*
X131805093Y-123533816D01*
X131828663Y-123519007D01*
X131894636Y-123500000D01*
X132265364Y-123500000D01*
X132331337Y-123519007D01*
X132363379Y-123539140D01*
X132363377Y-123539140D01*
X132363381Y-123539141D01*
X132363382Y-123539142D01*
X132474401Y-123577989D01*
X132534670Y-123599078D01*
X132534675Y-123599079D01*
X132714996Y-123619396D01*
X132715000Y-123619396D01*
X132715004Y-123619396D01*
X132895324Y-123599079D01*
X132895327Y-123599078D01*
X132895330Y-123599078D01*
X133066618Y-123539142D01*
X133075093Y-123533816D01*
X133098663Y-123519007D01*
X133164636Y-123500000D01*
X133535364Y-123500000D01*
X133601337Y-123519007D01*
X133633379Y-123539140D01*
X133633377Y-123539140D01*
X133633381Y-123539141D01*
X133633382Y-123539142D01*
X133744401Y-123577989D01*
X133804670Y-123599078D01*
X133804675Y-123599079D01*
X133984996Y-123619396D01*
X133985000Y-123619396D01*
X133985004Y-123619396D01*
X134165324Y-123599079D01*
X134165327Y-123599078D01*
X134165330Y-123599078D01*
X134336618Y-123539142D01*
X134345093Y-123533816D01*
X134368663Y-123519007D01*
X134434636Y-123500000D01*
X134805364Y-123500000D01*
X134871337Y-123519007D01*
X134903379Y-123539140D01*
X134903377Y-123539140D01*
X134903381Y-123539141D01*
X134903382Y-123539142D01*
X135014401Y-123577989D01*
X135074670Y-123599078D01*
X135074675Y-123599079D01*
X135254996Y-123619396D01*
X135255000Y-123619396D01*
X135255004Y-123619396D01*
X135435324Y-123599079D01*
X135435327Y-123599078D01*
X135435330Y-123599078D01*
X135606618Y-123539142D01*
X135615093Y-123533816D01*
X135638663Y-123519007D01*
X135704636Y-123500000D01*
X136964364Y-123500000D01*
X137030337Y-123519007D01*
X137062379Y-123539140D01*
X137062377Y-123539140D01*
X137062381Y-123539141D01*
X137062382Y-123539142D01*
X137173401Y-123577989D01*
X137233670Y-123599078D01*
X137233675Y-123599079D01*
X137413996Y-123619396D01*
X137414000Y-123619396D01*
X137414004Y-123619396D01*
X137594324Y-123599079D01*
X137594327Y-123599078D01*
X137594330Y-123599078D01*
X137765618Y-123539142D01*
X137774093Y-123533816D01*
X137797663Y-123519007D01*
X137863636Y-123500000D01*
X138234364Y-123500000D01*
X138300337Y-123519007D01*
X138332379Y-123539140D01*
X138332377Y-123539140D01*
X138332381Y-123539141D01*
X138332382Y-123539142D01*
X138443401Y-123577989D01*
X138503670Y-123599078D01*
X138503675Y-123599079D01*
X138683996Y-123619396D01*
X138684000Y-123619396D01*
X138684004Y-123619396D01*
X138864324Y-123599079D01*
X138864327Y-123599078D01*
X138864330Y-123599078D01*
X139035618Y-123539142D01*
X139044093Y-123533816D01*
X139067663Y-123519007D01*
X139133636Y-123500000D01*
X139504364Y-123500000D01*
X139570337Y-123519007D01*
X139602379Y-123539140D01*
X139602377Y-123539140D01*
X139602381Y-123539141D01*
X139602382Y-123539142D01*
X139713401Y-123577989D01*
X139773670Y-123599078D01*
X139773675Y-123599079D01*
X139953996Y-123619396D01*
X139954000Y-123619396D01*
X139954004Y-123619396D01*
X140134324Y-123599079D01*
X140134327Y-123599078D01*
X140134330Y-123599078D01*
X140305618Y-123539142D01*
X140314093Y-123533816D01*
X140337663Y-123519007D01*
X140403636Y-123500000D01*
X142076877Y-123500000D01*
X142094523Y-123501262D01*
X142097650Y-123501711D01*
X142124000Y-123505500D01*
X143069117Y-123505500D01*
X143135090Y-123524507D01*
X143158379Y-123539140D01*
X143158377Y-123539140D01*
X143158381Y-123539141D01*
X143158382Y-123539142D01*
X143269401Y-123577989D01*
X143329670Y-123599078D01*
X143329675Y-123599079D01*
X143509996Y-123619396D01*
X143510000Y-123619396D01*
X143510004Y-123619396D01*
X143690324Y-123599079D01*
X143690327Y-123599078D01*
X143690330Y-123599078D01*
X143861618Y-123539142D01*
X143867831Y-123535237D01*
X143884910Y-123524507D01*
X143950883Y-123505500D01*
X144339117Y-123505500D01*
X144405090Y-123524507D01*
X144428379Y-123539140D01*
X144428377Y-123539140D01*
X144428381Y-123539141D01*
X144428382Y-123539142D01*
X144539401Y-123577989D01*
X144599670Y-123599078D01*
X144599675Y-123599079D01*
X144779996Y-123619396D01*
X144780000Y-123619396D01*
X144780004Y-123619396D01*
X144960324Y-123599079D01*
X144960327Y-123599078D01*
X144960330Y-123599078D01*
X145131618Y-123539142D01*
X145137831Y-123535237D01*
X145154910Y-123524507D01*
X145220883Y-123505500D01*
X145609117Y-123505500D01*
X145675090Y-123524507D01*
X145698379Y-123539140D01*
X145698377Y-123539140D01*
X145698381Y-123539141D01*
X145698382Y-123539142D01*
X145809401Y-123577989D01*
X145869670Y-123599078D01*
X145869675Y-123599079D01*
X146049996Y-123619396D01*
X146050000Y-123619396D01*
X146050004Y-123619396D01*
X146230324Y-123599079D01*
X146230327Y-123599078D01*
X146230330Y-123599078D01*
X146401618Y-123539142D01*
X146407831Y-123535237D01*
X146424910Y-123524507D01*
X146490883Y-123505500D01*
X146752117Y-123505500D01*
X146818090Y-123524507D01*
X146841379Y-123539140D01*
X146841377Y-123539140D01*
X146841381Y-123539141D01*
X146841382Y-123539142D01*
X146952401Y-123577989D01*
X147012670Y-123599078D01*
X147012675Y-123599079D01*
X147192996Y-123619396D01*
X147193000Y-123619396D01*
X147193004Y-123619396D01*
X147373324Y-123599079D01*
X147373327Y-123599078D01*
X147373330Y-123599078D01*
X147544618Y-123539142D01*
X147550831Y-123535237D01*
X147567910Y-123524507D01*
X147633883Y-123505500D01*
X149038117Y-123505500D01*
X149104090Y-123524507D01*
X149127379Y-123539140D01*
X149127377Y-123539140D01*
X149127381Y-123539141D01*
X149127382Y-123539142D01*
X149238401Y-123577989D01*
X149298670Y-123599078D01*
X149298675Y-123599079D01*
X149478996Y-123619396D01*
X149479000Y-123619396D01*
X149479004Y-123619396D01*
X149659324Y-123599079D01*
X149659327Y-123599078D01*
X149659330Y-123599078D01*
X149830618Y-123539142D01*
X149836831Y-123535237D01*
X149853910Y-123524507D01*
X149919883Y-123505500D01*
X150308117Y-123505500D01*
X150374090Y-123524507D01*
X150397379Y-123539140D01*
X150397377Y-123539140D01*
X150397381Y-123539141D01*
X150397382Y-123539142D01*
X150508401Y-123577989D01*
X150568670Y-123599078D01*
X150568675Y-123599079D01*
X150748996Y-123619396D01*
X150749000Y-123619396D01*
X150749004Y-123619396D01*
X150929324Y-123599079D01*
X150929327Y-123599078D01*
X150929330Y-123599078D01*
X151100618Y-123539142D01*
X151106831Y-123535237D01*
X151123910Y-123524507D01*
X151189883Y-123505500D01*
X151578117Y-123505500D01*
X151644090Y-123524507D01*
X151667379Y-123539140D01*
X151667377Y-123539140D01*
X151667381Y-123539141D01*
X151667382Y-123539142D01*
X151778401Y-123577989D01*
X151838670Y-123599078D01*
X151838675Y-123599079D01*
X152018996Y-123619396D01*
X152019000Y-123619396D01*
X152019004Y-123619396D01*
X152199324Y-123599079D01*
X152199327Y-123599078D01*
X152199330Y-123599078D01*
X152370618Y-123539142D01*
X152376831Y-123535237D01*
X152393910Y-123524507D01*
X152459883Y-123505500D01*
X163376000Y-123505500D01*
X163443039Y-123525185D01*
X163488794Y-123577989D01*
X163500000Y-123629500D01*
X163500000Y-127499012D01*
X163499983Y-127501039D01*
X163497440Y-127656571D01*
X163496396Y-127670729D01*
X163455655Y-127980187D01*
X163452491Y-127996096D01*
X163371967Y-128296612D01*
X163366753Y-128311971D01*
X163247696Y-128599400D01*
X163240522Y-128613947D01*
X163084967Y-128883377D01*
X163075956Y-128896863D01*
X162886562Y-129143686D01*
X162875867Y-129155881D01*
X162655881Y-129375867D01*
X162643686Y-129386562D01*
X162396863Y-129575956D01*
X162383377Y-129584967D01*
X162113947Y-129740522D01*
X162099400Y-129747696D01*
X161811971Y-129866753D01*
X161796612Y-129871967D01*
X161496096Y-129952491D01*
X161480187Y-129955655D01*
X161170729Y-129996396D01*
X161156571Y-129997440D01*
X161001040Y-129999983D01*
X160999013Y-130000000D01*
X112500987Y-130000000D01*
X112498960Y-129999983D01*
X112343428Y-129997440D01*
X112329270Y-129996396D01*
X112019812Y-129955655D01*
X112003903Y-129952491D01*
X111703387Y-129871967D01*
X111688028Y-129866753D01*
X111400599Y-129747696D01*
X111386052Y-129740522D01*
X111116622Y-129584967D01*
X111103136Y-129575956D01*
X110856313Y-129386562D01*
X110844118Y-129375867D01*
X110624132Y-129155881D01*
X110613437Y-129143686D01*
X110424043Y-128896863D01*
X110415032Y-128883377D01*
X110259477Y-128613947D01*
X110252303Y-128599400D01*
X110133246Y-128311971D01*
X110128032Y-128296612D01*
X110112921Y-128240218D01*
X110047506Y-127996087D01*
X110044345Y-127980196D01*
X110003602Y-127670718D01*
X110002559Y-127656582D01*
X110000017Y-127501038D01*
X110000000Y-127499012D01*
X110000000Y-125222000D01*
X129288620Y-125222000D01*
X129308091Y-125419699D01*
X129365760Y-125609808D01*
X129459401Y-125784998D01*
X129459405Y-125785005D01*
X129585431Y-125938568D01*
X129738994Y-126064594D01*
X129739001Y-126064598D01*
X129914191Y-126158239D01*
X129914193Y-126158239D01*
X129914196Y-126158241D01*
X130104299Y-126215908D01*
X130104298Y-126215908D01*
X130122024Y-126217653D01*
X130302000Y-126235380D01*
X130499701Y-126215908D01*
X130689804Y-126158241D01*
X130751546Y-126125238D01*
X130819949Y-126110997D01*
X130868452Y-126125238D01*
X130930196Y-126158241D01*
X131120299Y-126215908D01*
X131120298Y-126215908D01*
X131138024Y-126217653D01*
X131318000Y-126235380D01*
X131515701Y-126215908D01*
X131705804Y-126158241D01*
X131767546Y-126125238D01*
X131835949Y-126110997D01*
X131884452Y-126125238D01*
X131946196Y-126158241D01*
X132136299Y-126215908D01*
X132136298Y-126215908D01*
X132154024Y-126217653D01*
X132334000Y-126235380D01*
X132531701Y-126215908D01*
X132721804Y-126158241D01*
X132783546Y-126125238D01*
X132851949Y-126110997D01*
X132900452Y-126125238D01*
X132962196Y-126158241D01*
X133152299Y-126215908D01*
X133152298Y-126215908D01*
X133170024Y-126217653D01*
X133350000Y-126235380D01*
X133547701Y-126215908D01*
X133737804Y-126158241D01*
X133799546Y-126125238D01*
X133867949Y-126110997D01*
X133916452Y-126125238D01*
X133978196Y-126158241D01*
X134168299Y-126215908D01*
X134168298Y-126215908D01*
X134186024Y-126217653D01*
X134366000Y-126235380D01*
X134563701Y-126215908D01*
X134753804Y-126158241D01*
X134929004Y-126064595D01*
X135082568Y-125938568D01*
X135159147Y-125845257D01*
X135216893Y-125805923D01*
X135286737Y-125804052D01*
X135346505Y-125840240D01*
X135350853Y-125845257D01*
X135427431Y-125938568D01*
X135580994Y-126064594D01*
X135581001Y-126064598D01*
X135756191Y-126158239D01*
X135756193Y-126158239D01*
X135756196Y-126158241D01*
X135946299Y-126215908D01*
X135946298Y-126215908D01*
X135964024Y-126217653D01*
X136144000Y-126235380D01*
X136341701Y-126215908D01*
X136531804Y-126158241D01*
X136593546Y-126125238D01*
X136661949Y-126110997D01*
X136710452Y-126125238D01*
X136772196Y-126158241D01*
X136962299Y-126215908D01*
X136962298Y-126215908D01*
X136980024Y-126217653D01*
X137160000Y-126235380D01*
X137357701Y-126215908D01*
X137547804Y-126158241D01*
X137609546Y-126125238D01*
X137677949Y-126110997D01*
X137726452Y-126125238D01*
X137788196Y-126158241D01*
X137978299Y-126215908D01*
X137978298Y-126215908D01*
X137996024Y-126217653D01*
X138176000Y-126235380D01*
X138373701Y-126215908D01*
X138563804Y-126158241D01*
X138625546Y-126125238D01*
X138693949Y-126110997D01*
X138742452Y-126125238D01*
X138804196Y-126158241D01*
X138994299Y-126215908D01*
X138994298Y-126215908D01*
X139012024Y-126217653D01*
X139192000Y-126235380D01*
X139389701Y-126215908D01*
X139579804Y-126158241D01*
X139641546Y-126125238D01*
X139709949Y-126110997D01*
X139758452Y-126125238D01*
X139820196Y-126158241D01*
X140010299Y-126215908D01*
X140010298Y-126215908D01*
X140028024Y-126217653D01*
X140208000Y-126235380D01*
X140405701Y-126215908D01*
X140595804Y-126158241D01*
X140771004Y-126064595D01*
X140924568Y-125938568D01*
X141050595Y-125785004D01*
X141097000Y-125698186D01*
X141114642Y-125665181D01*
X141163604Y-125615337D01*
X141231741Y-125599876D01*
X141297421Y-125623707D01*
X141333358Y-125665181D01*
X141397401Y-125784998D01*
X141397405Y-125785005D01*
X141523431Y-125938568D01*
X141676994Y-126064594D01*
X141677001Y-126064598D01*
X141852191Y-126158239D01*
X141852193Y-126158239D01*
X141852196Y-126158241D01*
X142042299Y-126215908D01*
X142042298Y-126215908D01*
X142060024Y-126217653D01*
X142240000Y-126235380D01*
X142437701Y-126215908D01*
X142627804Y-126158241D01*
X142689546Y-126125238D01*
X142757949Y-126110997D01*
X142806452Y-126125238D01*
X142868196Y-126158241D01*
X143058299Y-126215908D01*
X143058298Y-126215908D01*
X143076024Y-126217653D01*
X143256000Y-126235380D01*
X143453701Y-126215908D01*
X143643804Y-126158241D01*
X143705546Y-126125238D01*
X143773949Y-126110997D01*
X143822452Y-126125238D01*
X143884196Y-126158241D01*
X144074299Y-126215908D01*
X144074298Y-126215908D01*
X144092024Y-126217653D01*
X144272000Y-126235380D01*
X144469701Y-126215908D01*
X144659804Y-126158241D01*
X144721546Y-126125238D01*
X144789949Y-126110997D01*
X144838452Y-126125238D01*
X144900196Y-126158241D01*
X145090299Y-126215908D01*
X145090298Y-126215908D01*
X145108024Y-126217653D01*
X145288000Y-126235380D01*
X145485701Y-126215908D01*
X145675804Y-126158241D01*
X145737546Y-126125238D01*
X145805949Y-126110997D01*
X145854452Y-126125238D01*
X145916196Y-126158241D01*
X146106299Y-126215908D01*
X146106298Y-126215908D01*
X146124024Y-126217653D01*
X146304000Y-126235380D01*
X146501701Y-126215908D01*
X146691804Y-126158241D01*
X146867004Y-126064595D01*
X147020568Y-125938568D01*
X147146595Y-125785004D01*
X147193000Y-125698186D01*
X147210642Y-125665181D01*
X147259604Y-125615337D01*
X147327741Y-125599876D01*
X147393421Y-125623707D01*
X147429358Y-125665181D01*
X147493401Y-125784998D01*
X147493405Y-125785005D01*
X147619431Y-125938568D01*
X147772994Y-126064594D01*
X147773001Y-126064598D01*
X147948191Y-126158239D01*
X147948193Y-126158239D01*
X147948196Y-126158241D01*
X148138299Y-126215908D01*
X148138298Y-126215908D01*
X148156024Y-126217653D01*
X148336000Y-126235380D01*
X148533701Y-126215908D01*
X148723804Y-126158241D01*
X148785546Y-126125238D01*
X148853949Y-126110997D01*
X148902452Y-126125238D01*
X148964196Y-126158241D01*
X149154299Y-126215908D01*
X149154298Y-126215908D01*
X149172024Y-126217653D01*
X149352000Y-126235380D01*
X149549701Y-126215908D01*
X149739804Y-126158241D01*
X149801546Y-126125238D01*
X149869949Y-126110997D01*
X149918452Y-126125238D01*
X149980196Y-126158241D01*
X150170299Y-126215908D01*
X150170298Y-126215908D01*
X150188024Y-126217653D01*
X150368000Y-126235380D01*
X150565701Y-126215908D01*
X150755804Y-126158241D01*
X150817546Y-126125238D01*
X150885949Y-126110997D01*
X150934452Y-126125238D01*
X150996196Y-126158241D01*
X151186299Y-126215908D01*
X151186298Y-126215908D01*
X151204024Y-126217653D01*
X151384000Y-126235380D01*
X151581701Y-126215908D01*
X151771804Y-126158241D01*
X151833546Y-126125238D01*
X151901949Y-126110997D01*
X151950452Y-126125238D01*
X152012196Y-126158241D01*
X152202299Y-126215908D01*
X152202298Y-126215908D01*
X152220024Y-126217653D01*
X152400000Y-126235380D01*
X152597701Y-126215908D01*
X152787804Y-126158241D01*
X152963004Y-126064595D01*
X153116568Y-125938568D01*
X153242595Y-125785004D01*
X153298782Y-125679884D01*
X153336239Y-125609808D01*
X153336239Y-125609807D01*
X153336241Y-125609804D01*
X153393908Y-125419701D01*
X153413380Y-125222000D01*
X153393908Y-125024299D01*
X153336241Y-124834196D01*
X153336239Y-124834193D01*
X153336239Y-124834191D01*
X153242598Y-124659001D01*
X153242594Y-124658994D01*
X153116568Y-124505431D01*
X152963005Y-124379405D01*
X152962998Y-124379401D01*
X152787808Y-124285760D01*
X152692752Y-124256925D01*
X152597701Y-124228092D01*
X152597699Y-124228091D01*
X152597701Y-124228091D01*
X152400000Y-124208620D01*
X152202302Y-124228091D01*
X152202299Y-124228092D01*
X152012196Y-124285759D01*
X152012192Y-124285760D01*
X152012192Y-124285761D01*
X151950452Y-124318761D01*
X151882049Y-124333002D01*
X151833548Y-124318761D01*
X151807452Y-124304813D01*
X151771804Y-124285759D01*
X151581701Y-124228092D01*
X151581699Y-124228091D01*
X151581697Y-124228091D01*
X151384000Y-124208620D01*
X151186302Y-124228091D01*
X151186299Y-124228092D01*
X150996196Y-124285759D01*
X150996192Y-124285760D01*
X150996192Y-124285761D01*
X150934452Y-124318761D01*
X150866049Y-124333002D01*
X150817548Y-124318761D01*
X150791452Y-124304813D01*
X150755804Y-124285759D01*
X150565701Y-124228092D01*
X150565699Y-124228091D01*
X150565697Y-124228091D01*
X150368000Y-124208620D01*
X150170302Y-124228091D01*
X150170299Y-124228092D01*
X149980196Y-124285759D01*
X149980192Y-124285760D01*
X149980192Y-124285761D01*
X149918452Y-124318761D01*
X149850049Y-124333002D01*
X149801548Y-124318761D01*
X149775452Y-124304813D01*
X149739804Y-124285759D01*
X149549701Y-124228092D01*
X149549699Y-124228091D01*
X149549697Y-124228091D01*
X149352000Y-124208620D01*
X149154302Y-124228091D01*
X149154299Y-124228092D01*
X148964196Y-124285759D01*
X148964192Y-124285760D01*
X148964192Y-124285761D01*
X148902452Y-124318761D01*
X148834049Y-124333002D01*
X148785548Y-124318761D01*
X148759452Y-124304813D01*
X148723804Y-124285759D01*
X148533701Y-124228092D01*
X148533699Y-124228091D01*
X148533697Y-124228091D01*
X148336000Y-124208620D01*
X148138300Y-124228091D01*
X147948191Y-124285760D01*
X147773001Y-124379401D01*
X147772994Y-124379405D01*
X147619431Y-124505431D01*
X147493405Y-124658994D01*
X147493401Y-124659001D01*
X147429358Y-124778818D01*
X147380396Y-124828662D01*
X147312258Y-124844123D01*
X147246579Y-124820291D01*
X147210642Y-124778818D01*
X147146598Y-124659001D01*
X147146594Y-124658994D01*
X147020568Y-124505431D01*
X146867005Y-124379405D01*
X146866998Y-124379401D01*
X146691808Y-124285760D01*
X146596752Y-124256925D01*
X146501701Y-124228092D01*
X146501699Y-124228091D01*
X146501701Y-124228091D01*
X146304000Y-124208620D01*
X146106302Y-124228091D01*
X146106299Y-124228092D01*
X145916196Y-124285759D01*
X145916192Y-124285760D01*
X145916192Y-124285761D01*
X145854452Y-124318761D01*
X145786049Y-124333002D01*
X145737548Y-124318761D01*
X145711452Y-124304813D01*
X145675804Y-124285759D01*
X145485701Y-124228092D01*
X145485699Y-124228091D01*
X145485697Y-124228091D01*
X145288000Y-124208620D01*
X145090302Y-124228091D01*
X145090299Y-124228092D01*
X144900196Y-124285759D01*
X144900192Y-124285760D01*
X144900192Y-124285761D01*
X144838452Y-124318761D01*
X144770049Y-124333002D01*
X144721548Y-124318761D01*
X144695452Y-124304813D01*
X144659804Y-124285759D01*
X144469701Y-124228092D01*
X144469699Y-124228091D01*
X144469697Y-124228091D01*
X144272000Y-124208620D01*
X144074302Y-124228091D01*
X144074299Y-124228092D01*
X143884196Y-124285759D01*
X143884192Y-124285760D01*
X143884192Y-124285761D01*
X143822452Y-124318761D01*
X143754049Y-124333002D01*
X143705548Y-124318761D01*
X143679452Y-124304813D01*
X143643804Y-124285759D01*
X143453701Y-124228092D01*
X143453699Y-124228091D01*
X143453697Y-124228091D01*
X143256000Y-124208620D01*
X143058302Y-124228091D01*
X143058299Y-124228092D01*
X142868196Y-124285759D01*
X142868192Y-124285760D01*
X142868192Y-124285761D01*
X142806452Y-124318761D01*
X142738049Y-124333002D01*
X142689548Y-124318761D01*
X142663452Y-124304813D01*
X142627804Y-124285759D01*
X142437701Y-124228092D01*
X142437699Y-124228091D01*
X142437697Y-124228091D01*
X142240000Y-124208620D01*
X142042300Y-124228091D01*
X141852191Y-124285760D01*
X141677001Y-124379401D01*
X141676994Y-124379405D01*
X141523431Y-124505431D01*
X141397405Y-124658994D01*
X141397401Y-124659001D01*
X141333358Y-124778818D01*
X141284396Y-124828662D01*
X141216258Y-124844123D01*
X141150579Y-124820291D01*
X141114642Y-124778818D01*
X141050598Y-124659001D01*
X141050594Y-124658994D01*
X140924568Y-124505431D01*
X140771005Y-124379405D01*
X140770998Y-124379401D01*
X140595808Y-124285760D01*
X140500752Y-124256925D01*
X140405701Y-124228092D01*
X140405699Y-124228091D01*
X140405701Y-124228091D01*
X140208000Y-124208620D01*
X140010302Y-124228091D01*
X140010299Y-124228092D01*
X139820196Y-124285759D01*
X139820192Y-124285760D01*
X139820192Y-124285761D01*
X139758452Y-124318761D01*
X139690049Y-124333002D01*
X139641548Y-124318761D01*
X139615452Y-124304813D01*
X139579804Y-124285759D01*
X139389701Y-124228092D01*
X139389699Y-124228091D01*
X139389697Y-124228091D01*
X139192000Y-124208620D01*
X138994302Y-124228091D01*
X138994299Y-124228092D01*
X138804196Y-124285759D01*
X138804192Y-124285760D01*
X138804192Y-124285761D01*
X138742452Y-124318761D01*
X138674049Y-124333002D01*
X138625548Y-124318761D01*
X138599452Y-124304813D01*
X138563804Y-124285759D01*
X138373701Y-124228092D01*
X138373699Y-124228091D01*
X138373697Y-124228091D01*
X138176000Y-124208620D01*
X137978302Y-124228091D01*
X137978299Y-124228092D01*
X137788196Y-124285759D01*
X137788192Y-124285760D01*
X137788192Y-124285761D01*
X137726452Y-124318761D01*
X137658049Y-124333002D01*
X137609548Y-124318761D01*
X137583452Y-124304813D01*
X137547804Y-124285759D01*
X137357701Y-124228092D01*
X137357699Y-124228091D01*
X137357697Y-124228091D01*
X137160000Y-124208620D01*
X136962302Y-124228091D01*
X136962299Y-124228092D01*
X136772196Y-124285759D01*
X136772192Y-124285760D01*
X136772192Y-124285761D01*
X136710452Y-124318761D01*
X136642049Y-124333002D01*
X136593548Y-124318761D01*
X136567452Y-124304813D01*
X136531804Y-124285759D01*
X136341701Y-124228092D01*
X136341699Y-124228091D01*
X136341697Y-124228091D01*
X136144000Y-124208620D01*
X135946300Y-124228091D01*
X135756191Y-124285760D01*
X135581001Y-124379401D01*
X135580994Y-124379405D01*
X135427431Y-124505431D01*
X135350853Y-124598742D01*
X135293107Y-124638076D01*
X135223262Y-124639947D01*
X135163494Y-124603759D01*
X135159147Y-124598742D01*
X135082568Y-124505431D01*
X134929005Y-124379405D01*
X134928998Y-124379401D01*
X134753808Y-124285760D01*
X134658752Y-124256925D01*
X134563701Y-124228092D01*
X134563699Y-124228091D01*
X134563701Y-124228091D01*
X134366000Y-124208620D01*
X134168302Y-124228091D01*
X134168299Y-124228092D01*
X133978196Y-124285759D01*
X133978192Y-124285760D01*
X133978192Y-124285761D01*
X133916452Y-124318761D01*
X133848049Y-124333002D01*
X133799548Y-124318761D01*
X133773452Y-124304813D01*
X133737804Y-124285759D01*
X133547701Y-124228092D01*
X133547699Y-124228091D01*
X133547697Y-124228091D01*
X133350000Y-124208620D01*
X133152302Y-124228091D01*
X133152299Y-124228092D01*
X132962196Y-124285759D01*
X132962192Y-124285760D01*
X132962192Y-124285761D01*
X132900452Y-124318761D01*
X132832049Y-124333002D01*
X132783548Y-124318761D01*
X132757452Y-124304813D01*
X132721804Y-124285759D01*
X132531701Y-124228092D01*
X132531699Y-124228091D01*
X132531697Y-124228091D01*
X132334000Y-124208620D01*
X132136302Y-124228091D01*
X132136299Y-124228092D01*
X131946196Y-124285759D01*
X131946192Y-124285760D01*
X131946192Y-124285761D01*
X131884452Y-124318761D01*
X131816049Y-124333002D01*
X131767548Y-124318761D01*
X131741452Y-124304813D01*
X131705804Y-124285759D01*
X131515701Y-124228092D01*
X131515699Y-124228091D01*
X131515697Y-124228091D01*
X131318000Y-124208620D01*
X131120302Y-124228091D01*
X131120299Y-124228092D01*
X130930196Y-124285759D01*
X130930192Y-124285760D01*
X130930192Y-124285761D01*
X130868452Y-124318761D01*
X130800049Y-124333002D01*
X130751548Y-124318761D01*
X130725452Y-124304813D01*
X130689804Y-124285759D01*
X130499701Y-124228092D01*
X130499699Y-124228091D01*
X130499697Y-124228091D01*
X130302000Y-124208620D01*
X130104300Y-124228091D01*
X129914191Y-124285760D01*
X129739001Y-124379401D01*
X129738994Y-124379405D01*
X129585431Y-124505431D01*
X129459405Y-124658994D01*
X129459401Y-124659001D01*
X129365760Y-124834191D01*
X129308091Y-125024300D01*
X129288620Y-125222000D01*
X110000000Y-125222000D01*
X110000000Y-123624000D01*
X110019685Y-123556961D01*
X110072489Y-123511206D01*
X110124000Y-123500000D01*
X130995364Y-123500000D01*
X131061337Y-123519007D01*
G37*
%TD.AperFunction*%
%TD*%
%TA.AperFunction,Conductor*%
%TO.N,+5V*%
G36*
X131094691Y-95172195D02*
G01*
X131438669Y-95516173D01*
X131442096Y-95524446D01*
X131439684Y-95531561D01*
X131083618Y-95996361D01*
X131075866Y-96000845D01*
X131067215Y-95998534D01*
X131066084Y-95997546D01*
X130859293Y-95792107D01*
X130859239Y-95792053D01*
X130652992Y-95584448D01*
X130649592Y-95576164D01*
X130653046Y-95567902D01*
X130653271Y-95567684D01*
X131078447Y-95171903D01*
X131086837Y-95168775D01*
X131094691Y-95172195D01*
G37*
%TD.AperFunction*%
%TD*%
%TA.AperFunction,Conductor*%
%TO.N,+5V*%
G36*
X153411899Y-102060980D02*
G01*
X153416001Y-102068940D01*
X153416041Y-102069874D01*
X153417000Y-102362000D01*
X153417000Y-102362076D01*
X153416041Y-102654125D01*
X153412587Y-102662387D01*
X153404303Y-102665787D01*
X153403369Y-102665747D01*
X152817128Y-102616894D01*
X152809168Y-102612792D01*
X152806400Y-102605234D01*
X152806400Y-102118766D01*
X152809827Y-102110493D01*
X152817128Y-102107106D01*
X153403370Y-102058252D01*
X153411899Y-102060980D01*
G37*
%TD.AperFunction*%
%TD*%
%TA.AperFunction,Conductor*%
%TO.N,+5V*%
G36*
X153151650Y-111790418D02*
G01*
X153155023Y-111797565D01*
X153211563Y-112382216D01*
X153208948Y-112390780D01*
X153201043Y-112394988D01*
X153199955Y-112395042D01*
X152908038Y-112395999D01*
X152907962Y-112395999D01*
X152615711Y-112395041D01*
X152607449Y-112391587D01*
X152604049Y-112383303D01*
X152604077Y-112382536D01*
X152645234Y-111797868D01*
X152649233Y-111789857D01*
X152656905Y-111786991D01*
X153143377Y-111786991D01*
X153151650Y-111790418D01*
G37*
%TD.AperFunction*%
%TD*%
%TA.AperFunction,Conductor*%
%TO.N,+5V*%
G36*
X152663563Y-111793040D02*
G01*
X153113788Y-112171293D01*
X153117918Y-112179237D01*
X153115220Y-112187776D01*
X153114562Y-112188496D01*
X152908761Y-112395653D01*
X152908707Y-112395707D01*
X152701434Y-112601623D01*
X152693150Y-112605023D01*
X152684888Y-112601569D01*
X152684282Y-112600911D01*
X152303146Y-112153573D01*
X152300389Y-112145053D01*
X152303778Y-112137713D01*
X152647766Y-111793725D01*
X152656038Y-111790299D01*
X152663563Y-111793040D01*
G37*
%TD.AperFunction*%
%TD*%
%TA.AperFunction,Conductor*%
%TO.N,/BQ76920/VC1*%
G36*
X125675112Y-105919749D02*
G01*
X126159868Y-105983860D01*
X126167619Y-105988341D01*
X126170033Y-105995420D01*
X126170983Y-106285116D01*
X126167583Y-106293400D01*
X126167537Y-106293446D01*
X125963305Y-106496735D01*
X125955024Y-106500143D01*
X125946759Y-106496697D01*
X125946266Y-106496169D01*
X125664787Y-106175311D01*
X125661882Y-106167595D01*
X125661882Y-105931349D01*
X125665309Y-105923076D01*
X125673582Y-105919649D01*
X125675112Y-105919749D01*
G37*
%TD.AperFunction*%
%TD*%
%TA.AperFunction,Conductor*%
%TO.N,/BQ76920/VC1*%
G36*
X115654510Y-95270884D02*
G01*
X115921750Y-95382528D01*
X115928063Y-95388879D01*
X115928404Y-95396825D01*
X115779571Y-95871401D01*
X115773825Y-95878270D01*
X115768407Y-95879600D01*
X115531593Y-95879600D01*
X115523320Y-95876173D01*
X115520429Y-95871401D01*
X115464602Y-95693391D01*
X115371595Y-95396823D01*
X115372389Y-95387906D01*
X115378248Y-95382528D01*
X115645490Y-95270883D01*
X115654445Y-95270857D01*
X115654510Y-95270884D01*
G37*
%TD.AperFunction*%
%TD*%
%TA.AperFunction,Conductor*%
%TO.N,/BQ76920/BAT*%
G36*
X113753461Y-100751194D02*
G01*
X114023814Y-100863575D01*
X114030138Y-100869915D01*
X114030518Y-100877779D01*
X113940248Y-101174965D01*
X113937326Y-101179838D01*
X113596215Y-101520948D01*
X113587942Y-101524375D01*
X113579669Y-101520948D01*
X113576406Y-101514627D01*
X113519759Y-101179838D01*
X113449504Y-100764618D01*
X113451503Y-100755890D01*
X113459088Y-100751131D01*
X113461002Y-100750967D01*
X113748945Y-100750298D01*
X113753461Y-100751194D01*
G37*
%TD.AperFunction*%
%TD*%
%TA.AperFunction,Conductor*%
%TO.N,/BQ76920/BAT*%
G36*
X134996899Y-108918980D02*
G01*
X135001001Y-108926940D01*
X135001041Y-108927874D01*
X135002000Y-109220000D01*
X135002000Y-109220076D01*
X135001041Y-109512125D01*
X134997587Y-109520387D01*
X134989303Y-109523787D01*
X134988369Y-109523747D01*
X134402128Y-109474894D01*
X134394168Y-109470792D01*
X134391400Y-109463234D01*
X134391400Y-108976766D01*
X134394827Y-108968493D01*
X134402128Y-108965106D01*
X134988370Y-108916252D01*
X134996899Y-108918980D01*
G37*
%TD.AperFunction*%
%TD*%
%TA.AperFunction,Conductor*%
%TO.N,/ALERT*%
G36*
X138020156Y-102857157D02*
G01*
X138045185Y-102867436D01*
X138051536Y-102873749D01*
X138051563Y-102873814D01*
X138161201Y-103140784D01*
X138161174Y-103149739D01*
X138154833Y-103156048D01*
X137679042Y-103351963D01*
X137670087Y-103351944D01*
X137666314Y-103349417D01*
X137569582Y-103252685D01*
X137566155Y-103244412D01*
X137567035Y-103239961D01*
X137762952Y-102764164D01*
X137769270Y-102757821D01*
X137778213Y-102757798D01*
X138020156Y-102857157D01*
G37*
%TD.AperFunction*%
%TD*%
%TA.AperFunction,Conductor*%
%TO.N,/ALERT*%
G36*
X132333757Y-115747707D02*
G01*
X132805081Y-115833605D01*
X132811256Y-115836842D01*
X132907462Y-115933048D01*
X132910889Y-115941321D01*
X132907462Y-115949594D01*
X132906763Y-115950239D01*
X132543719Y-116258567D01*
X132535195Y-116261310D01*
X132527899Y-116257949D01*
X132322758Y-116054149D01*
X132319304Y-116045887D01*
X132319304Y-116045822D01*
X132319967Y-115759189D01*
X132323413Y-115750926D01*
X132331694Y-115747518D01*
X132333757Y-115747707D01*
G37*
%TD.AperFunction*%
%TD*%
%TA.AperFunction,Conductor*%
%TO.N,PACK-*%
G36*
X143725526Y-121958474D02*
G01*
X143510707Y-122174707D01*
X143294474Y-122389526D01*
X142896940Y-121926150D01*
X143256150Y-121566940D01*
X143725526Y-121958474D01*
G37*
%TD.AperFunction*%
%TD*%
%TA.AperFunction,Conductor*%
%TO.N,PACK-*%
G36*
X142417347Y-120728138D02*
G01*
X142058138Y-121087347D01*
X142000000Y-121113271D01*
X141428870Y-121367940D01*
X141419918Y-121368179D01*
X141413419Y-121362019D01*
X141413299Y-121361740D01*
X141224656Y-120907283D01*
X141224650Y-120898332D01*
X141413869Y-120443856D01*
X141420211Y-120437537D01*
X141427970Y-120437130D01*
X142417347Y-120728138D01*
G37*
%TD.AperFunction*%
%TD*%
%TA.AperFunction,Conductor*%
%TO.N,/SWDIO*%
G36*
X159580038Y-103018035D02*
G01*
X160055833Y-103213951D01*
X160062178Y-103220270D01*
X160062201Y-103229215D01*
X159952563Y-103496185D01*
X159946250Y-103502536D01*
X159946185Y-103502563D01*
X159679215Y-103612201D01*
X159670260Y-103612174D01*
X159663951Y-103605833D01*
X159618802Y-103496185D01*
X159468036Y-103130040D01*
X159468055Y-103121087D01*
X159470579Y-103117317D01*
X159567315Y-103020581D01*
X159575587Y-103017155D01*
X159580038Y-103018035D01*
G37*
%TD.AperFunction*%
%TD*%
%TA.AperFunction,Conductor*%
%TO.N,/SWDIO*%
G36*
X149788912Y-102698055D02*
G01*
X149792685Y-102700582D01*
X149889417Y-102797314D01*
X149892844Y-102805587D01*
X149891963Y-102810042D01*
X149696048Y-103285833D01*
X149689729Y-103292178D01*
X149680784Y-103292201D01*
X149413814Y-103182563D01*
X149407463Y-103176250D01*
X149407436Y-103176185D01*
X149397157Y-103151156D01*
X149297798Y-102909213D01*
X149297825Y-102900260D01*
X149304164Y-102893952D01*
X149779959Y-102698036D01*
X149788912Y-102698055D01*
G37*
%TD.AperFunction*%
%TD*%
%TA.AperFunction,Conductor*%
%TO.N,/SWCLK*%
G36*
X159560038Y-102008035D02*
G01*
X160035833Y-102203951D01*
X160042178Y-102210270D01*
X160042201Y-102219215D01*
X159932563Y-102486185D01*
X159926250Y-102492536D01*
X159926185Y-102492563D01*
X159659215Y-102602201D01*
X159650260Y-102602174D01*
X159643951Y-102595833D01*
X159598802Y-102486185D01*
X159448036Y-102120040D01*
X159448055Y-102111087D01*
X159450579Y-102107317D01*
X159547315Y-102010581D01*
X159555587Y-102007155D01*
X159560038Y-102008035D01*
G37*
%TD.AperFunction*%
%TD*%
%TA.AperFunction,Conductor*%
%TO.N,/SWCLK*%
G36*
X149477430Y-101892896D02*
G01*
X149952400Y-102090800D01*
X149958719Y-102097145D01*
X149959600Y-102101600D01*
X149959600Y-102238399D01*
X149956173Y-102246672D01*
X149952400Y-102249199D01*
X149477432Y-102447102D01*
X149468477Y-102447121D01*
X149462136Y-102440812D01*
X149350884Y-102174510D01*
X149350857Y-102165555D01*
X149350884Y-102165490D01*
X149462136Y-101899187D01*
X149468487Y-101892874D01*
X149477430Y-101892896D01*
G37*
%TD.AperFunction*%
%TD*%
%TA.AperFunction,Conductor*%
%TO.N,/I2C1_SCL*%
G36*
X143143461Y-109483807D02*
G01*
X143146406Y-109485951D01*
X143243163Y-109582708D01*
X143246590Y-109590981D01*
X143245369Y-109596185D01*
X143026586Y-110036741D01*
X143019837Y-110042626D01*
X143011662Y-110042360D01*
X142743957Y-109932420D01*
X142737606Y-109926107D01*
X142737579Y-109926042D01*
X142628302Y-109659950D01*
X142628329Y-109650995D01*
X142634680Y-109644682D01*
X142635522Y-109644373D01*
X142696143Y-109624780D01*
X142703032Y-109624688D01*
X142710068Y-109626754D01*
X142834378Y-109626754D01*
X142953653Y-109591731D01*
X143058230Y-109524524D01*
X143070312Y-109510578D01*
X143073277Y-109508125D01*
X143083550Y-109502164D01*
X143086375Y-109499674D01*
X143090509Y-109497321D01*
X143134538Y-109483091D01*
X143143461Y-109483807D01*
G37*
%TD.AperFunction*%
%TD*%
%TA.AperFunction,Conductor*%
%TO.N,/I2C1_SCL*%
G36*
X145419500Y-102610452D02*
G01*
X145419546Y-102610498D01*
X145622481Y-102814375D01*
X145625889Y-102822656D01*
X145622443Y-102830921D01*
X145621554Y-102831720D01*
X145265821Y-103119882D01*
X145258456Y-103122491D01*
X145122400Y-103122491D01*
X145114127Y-103119064D01*
X145110700Y-103110791D01*
X145110700Y-102888647D01*
X145110859Y-102814375D01*
X145111211Y-102649284D01*
X145111329Y-102647669D01*
X145115592Y-102618015D01*
X145120160Y-102610317D01*
X145127130Y-102607984D01*
X145411216Y-102607052D01*
X145419500Y-102610452D01*
G37*
%TD.AperFunction*%
%TD*%
%TA.AperFunction,Conductor*%
%TO.N,/I2C1_SDA*%
G36*
X144969425Y-102609949D02*
G01*
X144977686Y-102613403D01*
X144981086Y-102621687D01*
X144980967Y-102623312D01*
X144980177Y-102628810D01*
X144979181Y-102638008D01*
X144979063Y-102639625D01*
X144978710Y-102649008D01*
X144978374Y-102807065D01*
X144978359Y-102814091D01*
X144978200Y-102888363D01*
X144978200Y-103110791D01*
X144978360Y-103111594D01*
X144976611Y-103120376D01*
X144969164Y-103125350D01*
X144966884Y-103125574D01*
X144834980Y-103125574D01*
X144827566Y-103122925D01*
X144474446Y-102833694D01*
X144470217Y-102825801D01*
X144472809Y-102817229D01*
X144473560Y-102816397D01*
X144676554Y-102612461D01*
X144684818Y-102609016D01*
X144684877Y-102609016D01*
X144969425Y-102609949D01*
G37*
%TD.AperFunction*%
%TD*%
%TA.AperFunction,Conductor*%
%TO.N,/I2C1_SDA*%
G36*
X142785793Y-108891898D02*
G01*
X143253528Y-108969258D01*
X143259890Y-108972527D01*
X143356183Y-109068820D01*
X143359610Y-109077093D01*
X143356183Y-109085366D01*
X143355644Y-109085872D01*
X142995962Y-109402743D01*
X142987489Y-109405641D01*
X142979982Y-109402264D01*
X142774981Y-109198603D01*
X142771527Y-109190341D01*
X142771527Y-109190276D01*
X142772191Y-108903415D01*
X142775637Y-108895150D01*
X142783918Y-108891742D01*
X142785793Y-108891898D01*
G37*
%TD.AperFunction*%
%TD*%
%TA.AperFunction,Conductor*%
%TO.N,/LED_A*%
G36*
X134551402Y-101610429D02*
G01*
X134558270Y-101616174D01*
X134559600Y-101621592D01*
X134559600Y-101858407D01*
X134556173Y-101866680D01*
X134551401Y-101869571D01*
X134076825Y-102018404D01*
X134067906Y-102017610D01*
X134062528Y-102011750D01*
X133950884Y-101744510D01*
X133950857Y-101735555D01*
X133950884Y-101735490D01*
X134062528Y-101468249D01*
X134068879Y-101461936D01*
X134076823Y-101461595D01*
X134551402Y-101610429D01*
G37*
%TD.AperFunction*%
%TD*%
%TA.AperFunction,Conductor*%
%TO.N,/LED_A*%
G36*
X143466029Y-102413233D02*
G01*
X143816722Y-102596476D01*
X143906849Y-102643569D01*
X143912595Y-102650438D01*
X143912254Y-102658384D01*
X143802230Y-102926295D01*
X143795917Y-102932646D01*
X143795852Y-102932673D01*
X143527941Y-103042697D01*
X143518986Y-103042670D01*
X143513126Y-103037292D01*
X143458461Y-102932673D01*
X143282790Y-102596473D01*
X143281997Y-102587557D01*
X143284886Y-102582787D01*
X143452343Y-102415330D01*
X143460615Y-102411904D01*
X143466029Y-102413233D01*
G37*
%TD.AperFunction*%
%TD*%
%TA.AperFunction,Conductor*%
%TO.N,/LED_B*%
G36*
X143416361Y-103153122D02*
G01*
X143425817Y-103158063D01*
X143431039Y-103163571D01*
X143432254Y-103166233D01*
X143480368Y-103221759D01*
X143513660Y-103260180D01*
X143618237Y-103327387D01*
X143710437Y-103354460D01*
X143737511Y-103362410D01*
X143814025Y-103362410D01*
X143819443Y-103363740D01*
X143857182Y-103383459D01*
X143862928Y-103390328D01*
X143862587Y-103398274D01*
X143752563Y-103666185D01*
X143746250Y-103672536D01*
X143746185Y-103672563D01*
X143478274Y-103782587D01*
X143469319Y-103782560D01*
X143463459Y-103777182D01*
X143408794Y-103672563D01*
X143233123Y-103336363D01*
X143232330Y-103327447D01*
X143235219Y-103322677D01*
X143402676Y-103155220D01*
X143410948Y-103151794D01*
X143416361Y-103153122D01*
G37*
%TD.AperFunction*%
%TD*%
%TA.AperFunction,Conductor*%
%TO.N,/LED_B*%
G36*
X133983352Y-104133975D02*
G01*
X133983756Y-104134402D01*
X134267510Y-104449662D01*
X134270514Y-104457489D01*
X134270514Y-104693808D01*
X134267087Y-104702081D01*
X134258814Y-104705508D01*
X134257417Y-104705424D01*
X133770269Y-104646819D01*
X133762464Y-104642429D01*
X133759966Y-104635241D01*
X133759016Y-104345667D01*
X133762415Y-104337384D01*
X133966807Y-104133936D01*
X133975087Y-104130529D01*
X133983352Y-104133975D01*
G37*
%TD.AperFunction*%
%TD*%
%TA.AperFunction,Conductor*%
%TO.N,Net-(U4-TS1)*%
G36*
X135506912Y-112294055D02*
G01*
X135510685Y-112296582D01*
X135607417Y-112393314D01*
X135610844Y-112401587D01*
X135609963Y-112406042D01*
X135414048Y-112881833D01*
X135407729Y-112888178D01*
X135398784Y-112888201D01*
X135131814Y-112778563D01*
X135125463Y-112772250D01*
X135125436Y-112772185D01*
X135115157Y-112747156D01*
X135015798Y-112505213D01*
X135015825Y-112496260D01*
X135022164Y-112489952D01*
X135497959Y-112294036D01*
X135506912Y-112294055D01*
G37*
%TD.AperFunction*%
%TD*%
%TA.AperFunction,Conductor*%
%TO.N,Net-(U4-TS1)*%
G36*
X135429739Y-106313825D02*
G01*
X135436048Y-106320166D01*
X135631963Y-106795957D01*
X135631944Y-106804912D01*
X135629417Y-106808685D01*
X135532685Y-106905417D01*
X135524412Y-106908844D01*
X135519957Y-106907963D01*
X135044166Y-106712048D01*
X135037821Y-106705729D01*
X135037798Y-106696786D01*
X135147436Y-106429813D01*
X135153749Y-106423463D01*
X135420786Y-106313798D01*
X135429739Y-106313825D01*
G37*
%TD.AperFunction*%
%TD*%
%TA.AperFunction,Conductor*%
%TO.N,/KEY_A*%
G36*
X125277324Y-94718321D02*
G01*
X125444778Y-94885775D01*
X125448205Y-94894048D01*
X125446875Y-94899466D01*
X125216540Y-95340282D01*
X125209671Y-95346028D01*
X125201725Y-95345687D01*
X124933814Y-95235663D01*
X124927463Y-95229350D01*
X124927436Y-95229285D01*
X124817412Y-94961374D01*
X124817439Y-94952419D01*
X124822816Y-94946559D01*
X125263636Y-94716223D01*
X125272552Y-94715430D01*
X125277324Y-94718321D01*
G37*
%TD.AperFunction*%
%TD*%
%TA.AperFunction,Conductor*%
%TO.N,/KEY_A*%
G36*
X147956362Y-104723123D02*
G01*
X148307055Y-104906366D01*
X148397182Y-104953459D01*
X148402928Y-104960328D01*
X148402587Y-104968274D01*
X148292563Y-105236185D01*
X148286250Y-105242536D01*
X148286185Y-105242563D01*
X148018274Y-105352587D01*
X148009319Y-105352560D01*
X148003459Y-105347182D01*
X147948794Y-105242563D01*
X147773123Y-104906363D01*
X147772330Y-104897447D01*
X147775219Y-104892677D01*
X147942676Y-104725220D01*
X147950948Y-104721794D01*
X147956362Y-104723123D01*
G37*
%TD.AperFunction*%
%TD*%
%TA.AperFunction,Conductor*%
%TO.N,/CAN_STB*%
G36*
X156351863Y-106663187D02*
G01*
X156463115Y-106929490D01*
X156463142Y-106938445D01*
X156463115Y-106938510D01*
X156351863Y-107204812D01*
X156345512Y-107211125D01*
X156336567Y-107211102D01*
X156248269Y-107174311D01*
X155861600Y-107013199D01*
X155855281Y-107006854D01*
X155854400Y-107002399D01*
X155854400Y-106865600D01*
X155857827Y-106857327D01*
X155861600Y-106854800D01*
X156336569Y-106656896D01*
X156345522Y-106656878D01*
X156351863Y-106663187D01*
G37*
%TD.AperFunction*%
%TD*%
%TA.AperFunction,Conductor*%
%TO.N,/CAN_STB*%
G36*
X152322201Y-104543134D02*
G01*
X152328514Y-104549485D01*
X152328604Y-104549711D01*
X152351358Y-104608573D01*
X152352026Y-104614457D01*
X152341267Y-104689297D01*
X152358957Y-104812341D01*
X152358958Y-104812343D01*
X152410599Y-104925420D01*
X152492005Y-105019368D01*
X152507406Y-105029265D01*
X152512512Y-105036620D01*
X152510922Y-105045433D01*
X152509352Y-105047380D01*
X152415612Y-105141120D01*
X152407339Y-105144547D01*
X152402683Y-105143580D01*
X151936582Y-104941375D01*
X151930356Y-104934939D01*
X151930415Y-104926197D01*
X151930735Y-104925418D01*
X152040135Y-104659024D01*
X152046448Y-104652674D01*
X152313246Y-104543107D01*
X152322201Y-104543134D01*
G37*
%TD.AperFunction*%
%TD*%
%TA.AperFunction,Conductor*%
%TO.N,/CAN_TX*%
G36*
X155894082Y-102794373D02*
G01*
X156375844Y-102816980D01*
X156383948Y-102820791D01*
X156386996Y-102828629D01*
X156387943Y-103117418D01*
X156384543Y-103125702D01*
X156384497Y-103125748D01*
X156181039Y-103328267D01*
X156172758Y-103331675D01*
X156164493Y-103328229D01*
X156163377Y-103326931D01*
X155884159Y-102949299D01*
X155881867Y-102942343D01*
X155881867Y-102806061D01*
X155885294Y-102797788D01*
X155893567Y-102794361D01*
X155894082Y-102794373D01*
G37*
%TD.AperFunction*%
%TD*%
%TA.AperFunction,Conductor*%
%TO.N,/CAN_TX*%
G36*
X152420305Y-103044948D02*
G01*
X152424078Y-103047475D01*
X152520810Y-103144207D01*
X152524237Y-103152480D01*
X152523356Y-103156935D01*
X152327441Y-103632726D01*
X152321122Y-103639071D01*
X152312177Y-103639094D01*
X152045207Y-103529456D01*
X152038856Y-103523143D01*
X152038829Y-103523078D01*
X152028550Y-103498049D01*
X151929191Y-103256106D01*
X151929218Y-103247153D01*
X151935557Y-103240845D01*
X152411352Y-103044929D01*
X152420305Y-103044948D01*
G37*
%TD.AperFunction*%
%TD*%
%TA.AperFunction,Conductor*%
%TO.N,/I2C2_SCL*%
G36*
X139969739Y-98377825D02*
G01*
X139976048Y-98384166D01*
X140171963Y-98859957D01*
X140171944Y-98868912D01*
X140169417Y-98872685D01*
X140072685Y-98969417D01*
X140064412Y-98972844D01*
X140059957Y-98971963D01*
X139584166Y-98776048D01*
X139577821Y-98769729D01*
X139577798Y-98760786D01*
X139687436Y-98493813D01*
X139693749Y-98487463D01*
X139960786Y-98377798D01*
X139969739Y-98377825D01*
G37*
%TD.AperFunction*%
%TD*%
%TA.AperFunction,Conductor*%
%TO.N,/I2C2_SCL*%
G36*
X146180442Y-106646393D02*
G01*
X146223079Y-106663949D01*
X146227463Y-106667104D01*
X146275384Y-106722408D01*
X146379961Y-106789615D01*
X146472161Y-106816688D01*
X146499235Y-106824638D01*
X146611006Y-106824638D01*
X146615460Y-106825518D01*
X146656237Y-106842309D01*
X146662582Y-106848628D01*
X146662605Y-106857573D01*
X146552967Y-107124543D01*
X146546654Y-107130894D01*
X146546589Y-107130921D01*
X146279619Y-107240559D01*
X146270664Y-107240532D01*
X146264355Y-107234191D01*
X146219206Y-107124543D01*
X146068440Y-106758398D01*
X146068459Y-106749445D01*
X146070983Y-106745675D01*
X146167719Y-106648939D01*
X146175991Y-106645513D01*
X146180442Y-106646393D01*
G37*
%TD.AperFunction*%
%TD*%
%TA.AperFunction,Conductor*%
%TO.N,/I2C2_SDA*%
G36*
X140704510Y-98480884D02*
G01*
X140970812Y-98592136D01*
X140977125Y-98598487D01*
X140977102Y-98607432D01*
X140779200Y-99082400D01*
X140772855Y-99088719D01*
X140768400Y-99089600D01*
X140631600Y-99089600D01*
X140623327Y-99086173D01*
X140620800Y-99082400D01*
X140422896Y-98607430D01*
X140422878Y-98598477D01*
X140429186Y-98592136D01*
X140695490Y-98480883D01*
X140704445Y-98480857D01*
X140704510Y-98480884D01*
G37*
%TD.AperFunction*%
%TD*%
%TA.AperFunction,Conductor*%
%TO.N,/I2C2_SDA*%
G36*
X146358521Y-105901455D02*
G01*
X146669935Y-106105436D01*
X146674978Y-106112835D01*
X146674339Y-106119687D01*
X146564388Y-106386076D01*
X146558064Y-106392416D01*
X146553535Y-106393312D01*
X146267057Y-106392372D01*
X146258795Y-106388918D01*
X146255463Y-106381933D01*
X146204604Y-105912501D01*
X146207120Y-105903908D01*
X146214976Y-105899610D01*
X146216236Y-105899542D01*
X146352110Y-105899542D01*
X146358521Y-105901455D01*
G37*
%TD.AperFunction*%
%TD*%
M02*
