M48
; DRILL file {KiCad 8.0.3-8.0.3-0~ubuntu24.04.1} date 2024-07-11T14:27:08+0800
; FORMAT={-:-/ absolute / inch / decimal}
; #@! TF.CreationDate,2024-07-11T14:27:08+08:00
; #@! TF.GenerationSoftware,Kicad,Pcbnew,8.0.3-8.0.3-0~ubuntu24.04.1
; #@! TF.FileFunction,Plated,1,4,PTH
FMAT,2
INCH
; #@! TA.AperFunction,Plated,PTH,ViaDrill
T1C0.0120
; #@! TA.AperFunction,Plated,PTH,ComponentDrill
T2C0.0157
; #@! TA.AperFunction,Plated,PTH,ViaDrill
T3C0.0200
; #@! TA.AperFunction,Plated,PTH,ComponentDrill
T4C0.0866
; #@! TA.AperFunction,Plated,PTH,ComponentDrill
T5C0.0984
%
G90
G05
T1
X4.4784Y-3.9666
X4.5531Y-3.7508
X4.8343Y-3.6902
X4.9185Y-3.7493
X4.965Y-4.4214
X4.9673Y-4.1846
X5.0157Y-3.6898
X5.152Y-3.7713
X5.175Y-4.81
X5.175Y-4.835
X5.1906Y-3.7693
X5.2Y-4.3
X5.2094Y-4.5689
X5.225Y-4.81
X5.225Y-4.835
X5.2295Y-3.7685
X5.265Y-4.205
X5.2661Y-4.1079
X5.2661Y-4.1547
X5.2677Y-4.2681
X5.2685Y-4.0551
X5.2701Y-3.7685
X5.2736Y-4.0055
X5.275Y-4.81
X5.275Y-4.835
X5.2774Y-4.2374
X5.315Y-4.3
X5.32Y-4.05
X5.32Y-4.095
X5.32Y-4.44
X5.3209Y-4.19
X5.325Y-4.52
X5.325Y-4.81
X5.325Y-4.835
X5.41Y-4.81
X5.41Y-4.835
X5.4213Y-3.7697
X5.435Y-4.05
X5.435Y-4.14
X5.435Y-4.165
X5.435Y-4.19
X5.435Y-4.215
X5.435Y-4.24
X5.435Y-4.29
X5.4512Y-4.3827
X5.46Y-4.81
X5.46Y-4.835
X5.4606Y-3.7701
X5.4681Y-4.3646
X5.4996Y-3.8776
X5.51Y-4.81
X5.51Y-4.835
X5.5319Y-4.0539
X5.5394Y-3.8772
X5.54Y-4.54
X5.5435Y-4.4185
X5.545Y-4.34
X5.57Y-4.54
X5.5711Y-3.9828
X5.585Y-3.835
X5.6197Y-4.3279
X5.621Y-4.299
X5.6398Y-3.9957
X5.6417Y-3.9374
X5.65Y-4.81
X5.65Y-4.835
X5.6594Y-4.0815
X5.6614Y-4.0524
X5.67Y-4.385
X5.6815Y-4.0098
X5.6917Y-3.7701
X5.6961Y-4.0398
X5.7Y-4.81
X5.7Y-4.835
X5.71Y-4.36
X5.725Y-4.0397
X5.7299Y-3.7697
X5.75Y-4.81
X5.75Y-4.835
X5.7697Y-4.2177
X5.7701Y-4.1887
X5.795Y-4.81
X5.795Y-4.835
X5.8382Y-4.1433
X5.84Y-4.39
X5.8556Y-4.453
X5.8799Y-4.0224
X5.8823Y-4.0622
X5.885Y-4.81
X5.885Y-4.835
X5.9138Y-3.9697
X5.915Y-4.36
X5.925Y-4.465
X5.925Y-4.495
X5.935Y-4.81
X5.935Y-4.835
X5.963Y-3.7646
X5.98Y-4.52
X5.98Y-4.545
X5.985Y-4.81
X5.985Y-4.835
X5.9859Y-4.0759
X5.9859Y-4.1203
X5.9921Y-3.9508
X6.0028Y-3.7646
X6.005Y-4.235
X6.0149Y-4.1216
X6.02Y-4.425
X6.035Y-4.545
X6.04Y-4.03
X6.06Y-4.545
X6.065Y-4.12
X6.065Y-4.155
X6.085Y-4.5453
X6.1Y-4.12
X6.1Y-4.155
X6.13Y-4.12
X6.13Y-4.155
X6.15Y-4.0156
X6.157Y-4.0599
X6.16Y-4.21
X6.2945Y-3.9575
X6.2945Y-3.9961
X6.2965Y-4.035
X6.2972Y-4.0748
T2
X4.3642Y-3.7205
X4.3642Y-4.4685
X4.3832Y-3.6745
X4.3832Y-3.7664
X4.3832Y-4.4226
X4.3832Y-4.5144
X4.4291Y-3.6555
X4.4291Y-3.7854
X4.4291Y-4.4035
X4.4291Y-4.5335
X4.4751Y-3.6745
X4.4751Y-3.7664
X4.4751Y-4.4226
X4.4751Y-4.5144
X4.4941Y-3.7205
X4.4941Y-4.4685
X6.2736Y-3.7205
X6.2736Y-4.4685
X6.2926Y-3.6745
X6.2926Y-3.7664
X6.2926Y-4.4226
X6.2926Y-4.5144
X6.3386Y-3.6555
X6.3386Y-3.7854
X6.3386Y-4.4035
X6.3386Y-4.5335
X6.3845Y-3.6745
X6.3845Y-3.7664
X6.3845Y-4.4226
X6.3845Y-4.5144
X6.4035Y-3.7205
X6.4035Y-4.4685
T3
X4.65Y-4.71
X4.65Y-4.77
X4.6539Y-4.5449
X4.79Y-4.66
X4.79Y-4.71
X4.79Y-4.76
X4.8Y-4.55
X5.02Y-4.55
X5.03Y-4.61
X5.03Y-4.68
X5.03Y-4.76
X5.13Y-4.93
X5.17Y-4.93
X5.21Y-4.93
X5.25Y-4.93
X5.29Y-4.93
X5.36Y-4.93
X5.4Y-4.93
X5.44Y-4.93
X5.48Y-4.93
X5.52Y-4.93
X5.56Y-4.76
X5.6Y-4.93
X5.64Y-4.93
X5.68Y-4.93
X5.72Y-4.93
X5.76Y-4.93
X5.84Y-4.93
X5.88Y-4.93
X5.92Y-4.93
X5.96Y-4.93
X6.0Y-4.93
X6.13Y-4.7
X6.13Y-4.78
X6.13Y-4.89
X6.13Y-4.97
T4
X4.4291Y-3.7205
X4.4291Y-4.4685
X6.3386Y-3.7205
X6.3386Y-4.4685
T5
X4.45Y-4.6919
X4.45Y-4.98
X6.32Y-4.6922
X6.32Y-4.9853
M30
