<?xml version="1.0" standalone="no"?><!DOCTYPE svg PUBLIC "-//W3C//DTD SVG 1.1//EN" "http://www.w3.org/Graphics/SVG/1.1/DTD/svg11.dtd"><svg t="1703597082060" class="icon" viewBox="0 0 1024 1024" version="1.1" xmlns="http://www.w3.org/2000/svg" p-id="4199" width="32" height="32" xmlns:xlink="http://www.w3.org/1999/xlink"><path d="M955.136 551.488a64 64 0 0 1-13.888 69.76l-128 128A63.829333 63.829333 0 0 1 768 768a63.829333 63.829333 0 0 1-45.248-18.752l-128-128a64.106667 64.106667 0 0 1-13.888-69.76A64.042667 64.042667 0 0 1 640 512h64c0-141.376-114.624-256-256-256S192 370.624 192 512s114.624 256 256 256c33.344 0 64.896-6.784 94.144-18.368l96.512 95.36A381.802667 381.802667 0 0 1 448 896c-212.032 0-384-171.968-384-384S235.968 128 448 128s384 171.968 384 384h64c25.856 0 49.28 15.616 59.136 39.488z" fill="" p-id="4200"></path></svg>